%TF.GenerationSoftware,KiCad,Pcbnew,9.0.6*%
%TF.CreationDate,2026-03-07T16:09:32-05:00*%
%TF.ProjectId,Controller,436f6e74-726f-46c6-9c65-722e6b696361,rev?*%
%TF.SameCoordinates,Original*%
%TF.FileFunction,Paste,Top*%
%TF.FilePolarity,Positive*%
%FSLAX46Y46*%
G04 Gerber Fmt 4.6, Leading zero omitted, Abs format (unit mm)*
G04 Created by KiCad (PCBNEW 9.0.6) date 2026-03-07 16:09:32*
%MOMM*%
%LPD*%
G01*
G04 APERTURE LIST*
G04 Aperture macros list*
%AMRoundRect*
0 Rectangle with rounded corners*
0 $1 Rounding radius*
0 $2 $3 $4 $5 $6 $7 $8 $9 X,Y pos of 4 corners*
0 Add a 4 corners polygon primitive as box body*
4,1,4,$2,$3,$4,$5,$6,$7,$8,$9,$2,$3,0*
0 Add four circle primitives for the rounded corners*
1,1,$1+$1,$2,$3*
1,1,$1+$1,$4,$5*
1,1,$1+$1,$6,$7*
1,1,$1+$1,$8,$9*
0 Add four rect primitives between the rounded corners*
20,1,$1+$1,$2,$3,$4,$5,0*
20,1,$1+$1,$4,$5,$6,$7,0*
20,1,$1+$1,$6,$7,$8,$9,0*
20,1,$1+$1,$8,$9,$2,$3,0*%
G04 Aperture macros list end*
%ADD10RoundRect,0.250000X-0.337500X-0.475000X0.337500X-0.475000X0.337500X0.475000X-0.337500X0.475000X0*%
%ADD11RoundRect,0.250000X0.337500X0.475000X-0.337500X0.475000X-0.337500X-0.475000X0.337500X-0.475000X0*%
%ADD12RoundRect,0.250000X-0.450000X0.350000X-0.450000X-0.350000X0.450000X-0.350000X0.450000X0.350000X0*%
%ADD13RoundRect,0.249999X-0.290001X-0.290001X0.290001X-0.290001X0.290001X0.290001X-0.290001X0.290001X0*%
%ADD14RoundRect,0.062500X-0.350000X-0.062500X0.350000X-0.062500X0.350000X0.062500X-0.350000X0.062500X0*%
%ADD15RoundRect,0.062500X-0.062500X-0.350000X0.062500X-0.350000X0.062500X0.350000X-0.062500X0.350000X0*%
%ADD16RoundRect,0.250000X0.350000X0.450000X-0.350000X0.450000X-0.350000X-0.450000X0.350000X-0.450000X0*%
%ADD17RoundRect,0.250000X0.450000X-0.800000X0.450000X0.800000X-0.450000X0.800000X-0.450000X-0.800000X0*%
%ADD18RoundRect,0.250000X1.500000X0.550000X-1.500000X0.550000X-1.500000X-0.550000X1.500000X-0.550000X0*%
%ADD19RoundRect,0.237500X-0.237500X0.287500X-0.237500X-0.287500X0.237500X-0.287500X0.237500X0.287500X0*%
%ADD20RoundRect,0.162500X0.162500X-0.837500X0.162500X0.837500X-0.162500X0.837500X-0.162500X-0.837500X0*%
%ADD21RoundRect,0.250000X0.475000X-0.337500X0.475000X0.337500X-0.475000X0.337500X-0.475000X-0.337500X0*%
%ADD22R,0.900000X0.900000*%
%ADD23R,1.500000X0.900000*%
%ADD24R,0.900000X1.500000*%
%ADD25RoundRect,0.237500X-0.287500X-0.237500X0.287500X-0.237500X0.287500X0.237500X-0.287500X0.237500X0*%
%ADD26RoundRect,0.237500X0.287500X0.237500X-0.287500X0.237500X-0.287500X-0.237500X0.287500X-0.237500X0*%
%ADD27RoundRect,0.250000X0.450000X-0.350000X0.450000X0.350000X-0.450000X0.350000X-0.450000X-0.350000X0*%
%ADD28RoundRect,0.250000X-0.350000X-0.450000X0.350000X-0.450000X0.350000X0.450000X-0.350000X0.450000X0*%
%ADD29RoundRect,0.150000X0.512500X0.150000X-0.512500X0.150000X-0.512500X-0.150000X0.512500X-0.150000X0*%
%ADD30RoundRect,0.250000X-0.475000X0.337500X-0.475000X-0.337500X0.475000X-0.337500X0.475000X0.337500X0*%
%ADD31RoundRect,0.172500X0.262500X0.172500X-0.262500X0.172500X-0.262500X-0.172500X0.262500X-0.172500X0*%
%ADD32RoundRect,0.100000X0.125000X0.100000X-0.125000X0.100000X-0.125000X-0.100000X0.125000X-0.100000X0*%
%ADD33RoundRect,0.250000X-1.050000X-0.550000X1.050000X-0.550000X1.050000X0.550000X-1.050000X0.550000X0*%
%ADD34RoundRect,0.150000X0.150000X0.425000X-0.150000X0.425000X-0.150000X-0.425000X0.150000X-0.425000X0*%
%ADD35RoundRect,0.075000X0.075000X0.500000X-0.075000X0.500000X-0.075000X-0.500000X0.075000X-0.500000X0*%
%ADD36O,1.000000X2.100000*%
%ADD37O,1.000000X1.800000*%
G04 APERTURE END LIST*
D10*
%TO.C,C10*%
X148262500Y-93975000D03*
X150337500Y-93975000D03*
%TD*%
D11*
%TO.C,C18*%
X149637500Y-100950000D03*
X147562500Y-100950000D03*
%TD*%
D12*
%TO.C,R13*%
X153625000Y-96550000D03*
X153625000Y-98550000D03*
%TD*%
D13*
%TO.C,U2*%
X140850000Y-99825000D03*
X140850000Y-101075000D03*
X142100000Y-99825000D03*
X142100000Y-101075000D03*
D14*
X139537500Y-99450000D03*
X139537500Y-99950000D03*
X139537500Y-100450000D03*
X139537500Y-100950000D03*
X139537500Y-101450000D03*
D15*
X140475000Y-102387500D03*
X140975000Y-102387500D03*
X141475000Y-102387500D03*
X141975000Y-102387500D03*
X142475000Y-102387500D03*
D14*
X143412500Y-101450000D03*
X143412500Y-100950000D03*
X143412500Y-100450000D03*
X143412500Y-99950000D03*
X143412500Y-99450000D03*
D15*
X142475000Y-98512500D03*
X141975000Y-98512500D03*
X141475000Y-98512500D03*
X140975000Y-98512500D03*
X140475000Y-98512500D03*
%TD*%
D16*
%TO.C,R2*%
X181275000Y-100525000D03*
X179275000Y-100525000D03*
%TD*%
D17*
%TO.C,SW9*%
X176175000Y-114775000D03*
X176175000Y-105675000D03*
X180675000Y-114775000D03*
X180675000Y-105675000D03*
%TD*%
D18*
%TO.C,C16*%
X168175000Y-86625000D03*
X162575000Y-86625000D03*
%TD*%
D19*
%TO.C,D6*%
X189425000Y-124900000D03*
X189425000Y-126650000D03*
%TD*%
D20*
%TO.C,U4*%
X163537500Y-80585000D03*
X164487500Y-80585000D03*
X165437500Y-80585000D03*
X165437500Y-77165000D03*
X164487500Y-77165000D03*
X163537500Y-77165000D03*
%TD*%
D21*
%TO.C,C14*%
X127930000Y-94837500D03*
X127930000Y-92762500D03*
%TD*%
D16*
%TO.C,R4*%
X156775000Y-86925000D03*
X154775000Y-86925000D03*
%TD*%
D22*
%TO.C,U3*%
X189900000Y-89760000D03*
X189900000Y-91160000D03*
X189900000Y-92560000D03*
X191300000Y-89760000D03*
X191300000Y-91160000D03*
X191300000Y-92560000D03*
X192700000Y-89760000D03*
X192700000Y-91160000D03*
X192700000Y-92560000D03*
D23*
X184050000Y-83440000D03*
X184050000Y-84710000D03*
X184050000Y-85980000D03*
X184050000Y-87250000D03*
X184050000Y-88520000D03*
X184050000Y-89790000D03*
X184050000Y-91060000D03*
X184050000Y-92330000D03*
X184050000Y-93600000D03*
X184050000Y-94870000D03*
X184050000Y-96140000D03*
X184050000Y-97410000D03*
X184050000Y-98680000D03*
X184050000Y-99950000D03*
D24*
X185815000Y-101200000D03*
X187085000Y-101200000D03*
X188355000Y-101200000D03*
X189625000Y-101200000D03*
X190895000Y-101200000D03*
X192165000Y-101200000D03*
X193435000Y-101200000D03*
X194705000Y-101200000D03*
X195975000Y-101200000D03*
X197245000Y-101200000D03*
X198515000Y-101200000D03*
X199785000Y-101200000D03*
D23*
X201550000Y-99950000D03*
X201550000Y-98680000D03*
X201550000Y-97410000D03*
X201550000Y-96140000D03*
X201550000Y-94870000D03*
X201550000Y-93600000D03*
X201550000Y-92330000D03*
X201550000Y-91060000D03*
X201550000Y-89790000D03*
X201550000Y-88520000D03*
X201550000Y-87250000D03*
X201550000Y-85980000D03*
X201550000Y-84710000D03*
X201550000Y-83440000D03*
%TD*%
D25*
%TO.C,D1*%
X148775000Y-89400000D03*
X150525000Y-89400000D03*
%TD*%
D26*
%TO.C,D2*%
X156475000Y-89400000D03*
X154725000Y-89400000D03*
%TD*%
D19*
%TO.C,D4*%
X184350000Y-124900000D03*
X184350000Y-126650000D03*
%TD*%
D16*
%TO.C,R1*%
X181275000Y-98125000D03*
X179275000Y-98125000D03*
%TD*%
D27*
%TO.C,R11*%
X164900000Y-108050000D03*
X164900000Y-106050000D03*
%TD*%
D17*
%TO.C,SW8*%
X167850000Y-114775000D03*
X167850000Y-105675000D03*
X172350000Y-114775000D03*
X172350000Y-105675000D03*
%TD*%
D27*
%TO.C,R6*%
X148275000Y-98550000D03*
X148275000Y-96550000D03*
%TD*%
D21*
%TO.C,C15*%
X177025000Y-85512500D03*
X177025000Y-83437500D03*
%TD*%
D28*
%TO.C,R25*%
X128100000Y-106640000D03*
X130100000Y-106640000D03*
%TD*%
D21*
%TO.C,C2*%
X179775000Y-85512500D03*
X179775000Y-83437500D03*
%TD*%
D29*
%TO.C,U5*%
X155287500Y-102525000D03*
X155287500Y-101575000D03*
X155287500Y-100625000D03*
X153012500Y-100625000D03*
X153012500Y-101575000D03*
X153012500Y-102525000D03*
%TD*%
D12*
%TO.C,R26*%
X150975000Y-96525000D03*
X150975000Y-98525000D03*
%TD*%
D30*
%TO.C,C13*%
X120130000Y-92412500D03*
X120130000Y-94487500D03*
%TD*%
D19*
%TO.C,D7*%
X192000000Y-124900000D03*
X192000000Y-126650000D03*
%TD*%
D31*
%TO.C,U1*%
X123930000Y-93810000D03*
X123930000Y-93010000D03*
D32*
X124905000Y-94060000D03*
X124905000Y-93410000D03*
X124905000Y-92760000D03*
X122955000Y-92760000D03*
X122955000Y-93410000D03*
X122955000Y-94060000D03*
%TD*%
D27*
%TO.C,R14*%
X159350000Y-82625000D03*
X159350000Y-80625000D03*
%TD*%
D29*
%TO.C,Q2*%
X161937500Y-101112500D03*
X161937500Y-100162500D03*
X161937500Y-99212500D03*
X159662500Y-99212500D03*
X159662500Y-100162500D03*
X159662500Y-101112500D03*
%TD*%
D28*
%TO.C,R3*%
X147825000Y-86925000D03*
X149825000Y-86925000D03*
%TD*%
D33*
%TO.C,C1*%
X161300000Y-93175000D03*
X164900000Y-93175000D03*
%TD*%
D16*
%TO.C,NTC1*%
X130100000Y-104140000D03*
X128100000Y-104140000D03*
%TD*%
D27*
%TO.C,R18*%
X156350000Y-98550000D03*
X156350000Y-96550000D03*
%TD*%
D34*
%TO.C,J14*%
X155525000Y-82730000D03*
X154725000Y-82730000D03*
D35*
X153575000Y-82730000D03*
X152575000Y-82730000D03*
X152075000Y-82730000D03*
X151075000Y-82730000D03*
D34*
X149925000Y-82730000D03*
X149125000Y-82730000D03*
X149125000Y-82730000D03*
X149925000Y-82730000D03*
D35*
X150575000Y-82730000D03*
X151575000Y-82730000D03*
X153075000Y-82730000D03*
X154075000Y-82730000D03*
D34*
X154725000Y-82730000D03*
X155525000Y-82730000D03*
D36*
X156645000Y-82005000D03*
D37*
X156645000Y-77825000D03*
D36*
X148005000Y-82005000D03*
D37*
X148005000Y-77825000D03*
%TD*%
D10*
%TO.C,C5*%
X159337500Y-78325000D03*
X161412500Y-78325000D03*
%TD*%
D19*
%TO.C,D5*%
X186900000Y-124900000D03*
X186900000Y-126650000D03*
%TD*%
M02*
