%TF.GenerationSoftware,KiCad,Pcbnew,9.0.6*%
%TF.CreationDate,2026-03-07T16:09:32-05:00*%
%TF.ProjectId,Controller,436f6e74-726f-46c6-9c65-722e6b696361,rev?*%
%TF.SameCoordinates,Original*%
%TF.FileFunction,Soldermask,Bot*%
%TF.FilePolarity,Negative*%
%FSLAX46Y46*%
G04 Gerber Fmt 4.6, Leading zero omitted, Abs format (unit mm)*
G04 Created by KiCad (PCBNEW 9.0.6) date 2026-03-07 16:09:32*
%MOMM*%
%LPD*%
G01*
G04 APERTURE LIST*
G04 Aperture macros list*
%AMRoundRect*
0 Rectangle with rounded corners*
0 $1 Rounding radius*
0 $2 $3 $4 $5 $6 $7 $8 $9 X,Y pos of 4 corners*
0 Add a 4 corners polygon primitive as box body*
4,1,4,$2,$3,$4,$5,$6,$7,$8,$9,$2,$3,0*
0 Add four circle primitives for the rounded corners*
1,1,$1+$1,$2,$3*
1,1,$1+$1,$4,$5*
1,1,$1+$1,$6,$7*
1,1,$1+$1,$8,$9*
0 Add four rect primitives between the rounded corners*
20,1,$1+$1,$2,$3,$4,$5,0*
20,1,$1+$1,$4,$5,$6,$7,0*
20,1,$1+$1,$6,$7,$8,$9,0*
20,1,$1+$1,$8,$9,$2,$3,0*%
G04 Aperture macros list end*
%ADD10R,1.700000X1.700000*%
%ADD11C,1.700000*%
%ADD12C,3.000000*%
%ADD13C,2.640000*%
%ADD14R,2.000000X2.000000*%
%ADD15C,2.000000*%
%ADD16C,0.650000*%
%ADD17O,1.000000X2.100000*%
%ADD18O,1.000000X1.800000*%
%ADD19RoundRect,0.250000X0.475000X-0.337500X0.475000X0.337500X-0.475000X0.337500X-0.475000X-0.337500X0*%
%ADD20RoundRect,0.250000X0.450000X-0.350000X0.450000X0.350000X-0.450000X0.350000X-0.450000X-0.350000X0*%
%ADD21RoundRect,0.250000X-0.450000X0.350000X-0.450000X-0.350000X0.450000X-0.350000X0.450000X0.350000X0*%
%ADD22RoundRect,0.250000X0.350000X0.450000X-0.350000X0.450000X-0.350000X-0.450000X0.350000X-0.450000X0*%
%ADD23RoundRect,0.237500X-0.237500X0.287500X-0.237500X-0.287500X0.237500X-0.287500X0.237500X0.287500X0*%
%ADD24RoundRect,0.236111X1.013889X0.613889X-1.013889X0.613889X-1.013889X-0.613889X1.013889X-0.613889X0*%
%ADD25RoundRect,0.250000X-0.350000X-0.450000X0.350000X-0.450000X0.350000X0.450000X-0.350000X0.450000X0*%
%ADD26RoundRect,0.250001X0.624999X-0.462499X0.624999X0.462499X-0.624999X0.462499X-0.624999X-0.462499X0*%
%ADD27RoundRect,0.250000X0.337500X0.475000X-0.337500X0.475000X-0.337500X-0.475000X0.337500X-0.475000X0*%
%ADD28RoundRect,0.250001X0.462499X0.624999X-0.462499X0.624999X-0.462499X-0.624999X0.462499X-0.624999X0*%
%ADD29RoundRect,0.250000X-0.475000X0.337500X-0.475000X-0.337500X0.475000X-0.337500X0.475000X0.337500X0*%
%ADD30RoundRect,0.200000X0.200000X-0.750000X0.200000X0.750000X-0.200000X0.750000X-0.200000X-0.750000X0*%
%ADD31RoundRect,0.250000X-0.337500X-0.475000X0.337500X-0.475000X0.337500X0.475000X-0.337500X0.475000X0*%
%ADD32RoundRect,0.237500X0.237500X-0.287500X0.237500X0.287500X-0.237500X0.287500X-0.237500X-0.287500X0*%
G04 APERTURE END LIST*
D10*
%TO.C,J12*%
X184355000Y-132725000D03*
D11*
X186895000Y-132725000D03*
X189435000Y-132725000D03*
X191975000Y-132725000D03*
X194515000Y-132725000D03*
%TD*%
D10*
%TO.C,J3*%
X97700000Y-85840000D03*
D11*
X95160000Y-85840000D03*
%TD*%
D10*
%TO.C,J4*%
X103625000Y-132635000D03*
D11*
X106165000Y-132635000D03*
%TD*%
D12*
%TO.C,H4*%
X97325000Y-130225000D03*
%TD*%
%TO.C,H3*%
X207325000Y-130225000D03*
%TD*%
D10*
%TO.C,J10*%
X160275000Y-108375000D03*
D11*
X160275000Y-105835000D03*
%TD*%
D10*
%TO.C,J6*%
X206850000Y-124485000D03*
D11*
X209390000Y-124485000D03*
%TD*%
D10*
%TO.C,J11*%
X209925000Y-91460000D03*
D11*
X209925000Y-94000000D03*
X209925000Y-96540000D03*
%TD*%
D10*
%TO.C,J13*%
X116540000Y-131875000D03*
D11*
X114000000Y-131875000D03*
X111460000Y-131875000D03*
%TD*%
D10*
%TO.C,J5*%
X198925000Y-132760000D03*
D11*
X201465000Y-132760000D03*
%TD*%
D10*
%TO.C,J8*%
X135690000Y-83050000D03*
D11*
X133150000Y-83050000D03*
%TD*%
D10*
%TO.C,J1*%
X106120000Y-83040000D03*
D11*
X103580000Y-83040000D03*
%TD*%
D12*
%TO.C,H1*%
X97325000Y-80225000D03*
%TD*%
D13*
%TO.C,BT1*%
X174022500Y-131000000D03*
X129522500Y-120800000D03*
D14*
X179522500Y-125925000D03*
D15*
X124022500Y-125925000D03*
%TD*%
D10*
%TO.C,J9*%
X160325000Y-114900000D03*
D11*
X160325000Y-112360000D03*
%TD*%
D10*
%TO.C,J2*%
X95300000Y-124410000D03*
D11*
X97840000Y-124410000D03*
%TD*%
D12*
%TO.C,H2*%
X207325000Y-85725000D03*
%TD*%
D16*
%TO.C,J14*%
X155215000Y-81505000D03*
X149435000Y-81505000D03*
D17*
X156645000Y-82005000D03*
D18*
X156645000Y-77825000D03*
D17*
X148005000Y-82005000D03*
D18*
X148005000Y-77825000D03*
%TD*%
D10*
%TO.C,J7*%
X143850000Y-77490000D03*
D11*
X141310000Y-77490000D03*
%TD*%
D19*
%TO.C,C4*%
X140050000Y-82862500D03*
X140050000Y-80787500D03*
%TD*%
D20*
%TO.C,R7*%
X138125000Y-111475000D03*
X138125000Y-109475000D03*
%TD*%
D21*
%TO.C,R21*%
X116525000Y-126754998D03*
X116525000Y-128754998D03*
%TD*%
D20*
%TO.C,R31*%
X137180000Y-95290000D03*
X137180000Y-93290000D03*
%TD*%
D22*
%TO.C,R15*%
X145725000Y-85375000D03*
X143725000Y-85375000D03*
%TD*%
D23*
%TO.C,D8*%
X206900000Y-90200000D03*
X206900000Y-91950000D03*
%TD*%
D20*
%TO.C,R10*%
X165450000Y-112375000D03*
X165450000Y-110375000D03*
%TD*%
%TO.C,R19*%
X172375000Y-107375000D03*
X172375000Y-105375000D03*
%TD*%
D22*
%TO.C,R23*%
X164200000Y-86500000D03*
X162200000Y-86500000D03*
%TD*%
D19*
%TO.C,C6*%
X170075000Y-109512500D03*
X170075000Y-107437500D03*
%TD*%
D24*
%TO.C,D3*%
X154700000Y-87725000D03*
X150050000Y-87725000D03*
%TD*%
D20*
%TO.C,R9*%
X140700000Y-111475000D03*
X140700000Y-109475000D03*
%TD*%
%TO.C,R8*%
X143300000Y-111475000D03*
X143300000Y-109475000D03*
%TD*%
D25*
%TO.C,R28*%
X144350000Y-101275000D03*
X146350000Y-101275000D03*
%TD*%
%TO.C,R24*%
X128100000Y-104140000D03*
X130100000Y-104140000D03*
%TD*%
D21*
%TO.C,R16*%
X141275000Y-85375000D03*
X141275000Y-87375000D03*
%TD*%
D20*
%TO.C,R12*%
X113975000Y-128779998D03*
X113975000Y-126779998D03*
%TD*%
D26*
%TO.C,F2*%
X159325000Y-83587500D03*
X159325000Y-80612500D03*
%TD*%
D25*
%TO.C,R30*%
X132590000Y-93290000D03*
X134590000Y-93290000D03*
%TD*%
D27*
%TO.C,C3*%
X145762500Y-82900000D03*
X143687500Y-82900000D03*
%TD*%
D28*
%TO.C,F1*%
X142662500Y-90450000D03*
X139687500Y-90450000D03*
%TD*%
D21*
%TO.C,R29*%
X145810000Y-104410000D03*
X145810000Y-106410000D03*
%TD*%
D20*
%TO.C,R27*%
X156350000Y-98550000D03*
X156350000Y-96550000D03*
%TD*%
D25*
%TO.C,R5*%
X143750000Y-80675000D03*
X145750000Y-80675000D03*
%TD*%
D29*
%TO.C,C7*%
X183550000Y-108437500D03*
X183550000Y-110512500D03*
%TD*%
D30*
%TO.C,Q1*%
X164482500Y-77075000D03*
X165432500Y-80075000D03*
X163532500Y-80075000D03*
%TD*%
D22*
%TO.C,R20*%
X186075000Y-106250000D03*
X184075000Y-106250000D03*
%TD*%
D31*
%TO.C,C9*%
X140662500Y-97150000D03*
X142737500Y-97150000D03*
%TD*%
D27*
%TO.C,C8*%
X164212500Y-84050000D03*
X162137500Y-84050000D03*
%TD*%
D20*
%TO.C,R17*%
X138750000Y-87350000D03*
X138750000Y-85350000D03*
%TD*%
D29*
%TO.C,C11*%
X186075000Y-108437500D03*
X186075000Y-110512500D03*
%TD*%
%TO.C,C12*%
X170100000Y-111512500D03*
X170100000Y-113587500D03*
%TD*%
D32*
%TO.C,D9*%
X206925000Y-95550000D03*
X206925000Y-93800000D03*
%TD*%
D31*
%TO.C,C17*%
X159337500Y-78300000D03*
X161412500Y-78300000D03*
%TD*%
D20*
%TO.C,R22*%
X111450000Y-128779998D03*
X111450000Y-126779998D03*
%TD*%
M02*
