%TF.GenerationSoftware,KiCad,Pcbnew,9.0.6*%
%TF.CreationDate,2026-03-07T16:09:32-05:00*%
%TF.ProjectId,Controller,436f6e74-726f-46c6-9c65-722e6b696361,rev?*%
%TF.SameCoordinates,Original*%
%TF.FileFunction,Paste,Bot*%
%TF.FilePolarity,Positive*%
%FSLAX46Y46*%
G04 Gerber Fmt 4.6, Leading zero omitted, Abs format (unit mm)*
G04 Created by KiCad (PCBNEW 9.0.6) date 2026-03-07 16:09:32*
%MOMM*%
%LPD*%
G01*
G04 APERTURE LIST*
G04 Aperture macros list*
%AMRoundRect*
0 Rectangle with rounded corners*
0 $1 Rounding radius*
0 $2 $3 $4 $5 $6 $7 $8 $9 X,Y pos of 4 corners*
0 Add a 4 corners polygon primitive as box body*
4,1,4,$2,$3,$4,$5,$6,$7,$8,$9,$2,$3,0*
0 Add four circle primitives for the rounded corners*
1,1,$1+$1,$2,$3*
1,1,$1+$1,$4,$5*
1,1,$1+$1,$6,$7*
1,1,$1+$1,$8,$9*
0 Add four rect primitives between the rounded corners*
20,1,$1+$1,$2,$3,$4,$5,0*
20,1,$1+$1,$4,$5,$6,$7,0*
20,1,$1+$1,$6,$7,$8,$9,0*
20,1,$1+$1,$8,$9,$2,$3,0*%
G04 Aperture macros list end*
%ADD10RoundRect,0.250000X0.475000X-0.337500X0.475000X0.337500X-0.475000X0.337500X-0.475000X-0.337500X0*%
%ADD11RoundRect,0.250000X0.450000X-0.350000X0.450000X0.350000X-0.450000X0.350000X-0.450000X-0.350000X0*%
%ADD12RoundRect,0.250000X-0.450000X0.350000X-0.450000X-0.350000X0.450000X-0.350000X0.450000X0.350000X0*%
%ADD13RoundRect,0.250000X0.350000X0.450000X-0.350000X0.450000X-0.350000X-0.450000X0.350000X-0.450000X0*%
%ADD14RoundRect,0.237500X-0.237500X0.287500X-0.237500X-0.287500X0.237500X-0.287500X0.237500X0.287500X0*%
%ADD15RoundRect,0.236111X1.013889X0.613889X-1.013889X0.613889X-1.013889X-0.613889X1.013889X-0.613889X0*%
%ADD16RoundRect,0.250000X-0.350000X-0.450000X0.350000X-0.450000X0.350000X0.450000X-0.350000X0.450000X0*%
%ADD17RoundRect,0.250001X0.624999X-0.462499X0.624999X0.462499X-0.624999X0.462499X-0.624999X-0.462499X0*%
%ADD18RoundRect,0.250000X0.337500X0.475000X-0.337500X0.475000X-0.337500X-0.475000X0.337500X-0.475000X0*%
%ADD19RoundRect,0.250001X0.462499X0.624999X-0.462499X0.624999X-0.462499X-0.624999X0.462499X-0.624999X0*%
%ADD20RoundRect,0.250000X-0.475000X0.337500X-0.475000X-0.337500X0.475000X-0.337500X0.475000X0.337500X0*%
%ADD21RoundRect,0.200000X0.200000X-0.750000X0.200000X0.750000X-0.200000X0.750000X-0.200000X-0.750000X0*%
%ADD22RoundRect,0.250000X-0.337500X-0.475000X0.337500X-0.475000X0.337500X0.475000X-0.337500X0.475000X0*%
%ADD23RoundRect,0.237500X0.237500X-0.287500X0.237500X0.287500X-0.237500X0.287500X-0.237500X-0.287500X0*%
G04 APERTURE END LIST*
D10*
%TO.C,C4*%
X140050000Y-82862500D03*
X140050000Y-80787500D03*
%TD*%
D11*
%TO.C,R7*%
X138125000Y-111475000D03*
X138125000Y-109475000D03*
%TD*%
D12*
%TO.C,R21*%
X116525000Y-126754998D03*
X116525000Y-128754998D03*
%TD*%
D11*
%TO.C,R31*%
X137180000Y-95290000D03*
X137180000Y-93290000D03*
%TD*%
D13*
%TO.C,R15*%
X145725000Y-85375000D03*
X143725000Y-85375000D03*
%TD*%
D14*
%TO.C,D8*%
X206900000Y-90200000D03*
X206900000Y-91950000D03*
%TD*%
D11*
%TO.C,R10*%
X165450000Y-112375000D03*
X165450000Y-110375000D03*
%TD*%
%TO.C,R19*%
X172375000Y-107375000D03*
X172375000Y-105375000D03*
%TD*%
D13*
%TO.C,R23*%
X164200000Y-86500000D03*
X162200000Y-86500000D03*
%TD*%
D10*
%TO.C,C6*%
X170075000Y-109512500D03*
X170075000Y-107437500D03*
%TD*%
D15*
%TO.C,D3*%
X154700000Y-87725000D03*
X150050000Y-87725000D03*
%TD*%
D11*
%TO.C,R9*%
X140700000Y-111475000D03*
X140700000Y-109475000D03*
%TD*%
%TO.C,R8*%
X143300000Y-111475000D03*
X143300000Y-109475000D03*
%TD*%
D16*
%TO.C,R28*%
X144350000Y-101275000D03*
X146350000Y-101275000D03*
%TD*%
%TO.C,R24*%
X128100000Y-104140000D03*
X130100000Y-104140000D03*
%TD*%
D12*
%TO.C,R16*%
X141275000Y-85375000D03*
X141275000Y-87375000D03*
%TD*%
D11*
%TO.C,R12*%
X113975000Y-128779998D03*
X113975000Y-126779998D03*
%TD*%
D17*
%TO.C,F2*%
X159325000Y-83587500D03*
X159325000Y-80612500D03*
%TD*%
D16*
%TO.C,R30*%
X132590000Y-93290000D03*
X134590000Y-93290000D03*
%TD*%
D18*
%TO.C,C3*%
X145762500Y-82900000D03*
X143687500Y-82900000D03*
%TD*%
D19*
%TO.C,F1*%
X142662500Y-90450000D03*
X139687500Y-90450000D03*
%TD*%
D12*
%TO.C,R29*%
X145810000Y-104410000D03*
X145810000Y-106410000D03*
%TD*%
D11*
%TO.C,R27*%
X156350000Y-98550000D03*
X156350000Y-96550000D03*
%TD*%
D16*
%TO.C,R5*%
X143750000Y-80675000D03*
X145750000Y-80675000D03*
%TD*%
D20*
%TO.C,C7*%
X183550000Y-108437500D03*
X183550000Y-110512500D03*
%TD*%
D21*
%TO.C,Q1*%
X164482500Y-77075000D03*
X165432500Y-80075000D03*
X163532500Y-80075000D03*
%TD*%
D13*
%TO.C,R20*%
X186075000Y-106250000D03*
X184075000Y-106250000D03*
%TD*%
D22*
%TO.C,C9*%
X140662500Y-97150000D03*
X142737500Y-97150000D03*
%TD*%
D18*
%TO.C,C8*%
X164212500Y-84050000D03*
X162137500Y-84050000D03*
%TD*%
D11*
%TO.C,R17*%
X138750000Y-87350000D03*
X138750000Y-85350000D03*
%TD*%
D20*
%TO.C,C11*%
X186075000Y-108437500D03*
X186075000Y-110512500D03*
%TD*%
%TO.C,C12*%
X170100000Y-111512500D03*
X170100000Y-113587500D03*
%TD*%
D23*
%TO.C,D9*%
X206925000Y-95550000D03*
X206925000Y-93800000D03*
%TD*%
D22*
%TO.C,C17*%
X159337500Y-78300000D03*
X161412500Y-78300000D03*
%TD*%
D11*
%TO.C,R22*%
X111450000Y-128779998D03*
X111450000Y-126779998D03*
%TD*%
M02*
