%TF.GenerationSoftware,KiCad,Pcbnew,9.0.6*%
%TF.CreationDate,2026-03-07T16:09:32-05:00*%
%TF.ProjectId,Controller,436f6e74-726f-46c6-9c65-722e6b696361,rev?*%
%TF.SameCoordinates,Original*%
%TF.FileFunction,Copper,L3,Inr*%
%TF.FilePolarity,Positive*%
%FSLAX46Y46*%
G04 Gerber Fmt 4.6, Leading zero omitted, Abs format (unit mm)*
G04 Created by KiCad (PCBNEW 9.0.6) date 2026-03-07 16:09:32*
%MOMM*%
%LPD*%
G01*
G04 APERTURE LIST*
%TA.AperFunction,ComponentPad*%
%ADD10R,1.700000X1.700000*%
%TD*%
%TA.AperFunction,ComponentPad*%
%ADD11C,1.700000*%
%TD*%
%TA.AperFunction,HeatsinkPad*%
%ADD12C,0.500000*%
%TD*%
%TA.AperFunction,HeatsinkPad*%
%ADD13C,0.600000*%
%TD*%
%TA.AperFunction,ComponentPad*%
%ADD14R,2.000000X2.000000*%
%TD*%
%TA.AperFunction,ComponentPad*%
%ADD15C,2.000000*%
%TD*%
%TA.AperFunction,HeatsinkPad*%
%ADD16O,1.000000X2.100000*%
%TD*%
%TA.AperFunction,HeatsinkPad*%
%ADD17O,1.000000X1.800000*%
%TD*%
%TA.AperFunction,ViaPad*%
%ADD18C,0.600000*%
%TD*%
G04 APERTURE END LIST*
D10*
%TO.N,/Microcontroller/TCK*%
%TO.C,J12*%
X184355000Y-132725000D03*
D11*
%TO.N,/Microcontroller/TDO*%
X186895000Y-132725000D03*
%TO.N,/Microcontroller/TDI*%
X189435000Y-132725000D03*
%TO.N,/Microcontroller/TMS*%
X191975000Y-132725000D03*
%TO.N,GND*%
X194515000Y-132725000D03*
%TD*%
D12*
%TO.N,GND*%
%TO.C,U2*%
X140475000Y-99450000D03*
X140475000Y-101450000D03*
X142475000Y-99450000D03*
X142475000Y-101450000D03*
%TD*%
D10*
%TO.N,GND*%
%TO.C,J3*%
X97700000Y-85840000D03*
D11*
%TO.N,/Boutons/LEFT*%
X95160000Y-85840000D03*
%TD*%
D10*
%TO.N,GND*%
%TO.C,J4*%
X103625000Y-132635000D03*
D11*
%TO.N,/Boutons/RIGHT*%
X106165000Y-132635000D03*
%TD*%
D13*
%TO.N,GND*%
%TO.C,U3*%
X189900000Y-90460000D03*
X189900000Y-91860000D03*
X190600000Y-89760000D03*
X190600000Y-91160000D03*
X190600000Y-92560000D03*
X191300000Y-90460000D03*
X191300000Y-91860000D03*
X192000000Y-89760000D03*
X192000000Y-91160000D03*
X192000000Y-92560000D03*
X192700000Y-90460000D03*
X192700000Y-91860000D03*
%TD*%
D10*
%TO.N,GND*%
%TO.C,J10*%
X160275000Y-108375000D03*
D11*
%TO.N,Net-(J10-Pin_2)*%
X160275000Y-105835000D03*
%TD*%
D10*
%TO.N,GND*%
%TO.C,J6*%
X206850000Y-124485000D03*
D11*
%TO.N,/Boutons/BACK*%
X209390000Y-124485000D03*
%TD*%
D10*
%TO.N,/Microcontroller/TX*%
%TO.C,J11*%
X209925000Y-91460000D03*
D11*
%TO.N,/Microcontroller/RX*%
X209925000Y-94000000D03*
%TO.N,GND*%
X209925000Y-96540000D03*
%TD*%
D10*
%TO.N,Net-(J13-Pin_1)*%
%TO.C,J13*%
X116540000Y-131875000D03*
D11*
%TO.N,Net-(J13-Pin_2)*%
X114000000Y-131875000D03*
%TO.N,Net-(J13-Pin_3)*%
X111460000Y-131875000D03*
%TD*%
D10*
%TO.N,GND*%
%TO.C,J5*%
X198925000Y-132760000D03*
D11*
%TO.N,/Boutons/SELECT*%
X201465000Y-132760000D03*
%TD*%
D10*
%TO.N,Net-(J8-Pin_1)*%
%TO.C,J8*%
X135690000Y-83050000D03*
D11*
%TO.N,/3.3V_LDO/VIN*%
X133150000Y-83050000D03*
%TD*%
D10*
%TO.N,GND*%
%TO.C,J1*%
X106120000Y-83040000D03*
D11*
%TO.N,/Boutons/UP*%
X103580000Y-83040000D03*
%TD*%
D12*
%TO.N,GND*%
%TO.C,U1*%
X123930000Y-93960000D03*
X123930000Y-92860000D03*
%TD*%
D14*
%TO.N,Net-(BT1-+)*%
%TO.C,BT1*%
X179522500Y-125925000D03*
D15*
%TO.N,Net-(BT1--)*%
X124022500Y-125925000D03*
%TD*%
D10*
%TO.N,GND*%
%TO.C,J9*%
X160325000Y-114900000D03*
D11*
%TO.N,Net-(J9-Pin_2)*%
X160325000Y-112360000D03*
%TD*%
D10*
%TO.N,GND*%
%TO.C,J2*%
X95300000Y-124410000D03*
D11*
%TO.N,/Boutons/DOWN*%
X97840000Y-124410000D03*
%TD*%
D16*
%TO.N,Net-(J14-SHIELD)*%
%TO.C,J14*%
X156645000Y-82005000D03*
D17*
X156645000Y-77825000D03*
D16*
X148005000Y-82005000D03*
D17*
X148005000Y-77825000D03*
%TD*%
D10*
%TO.N,GND*%
%TO.C,J7*%
X143850000Y-77490000D03*
D11*
%TO.N,/Boutons/START*%
X141310000Y-77490000D03*
%TD*%
D18*
%TO.N,Net-(BT1--)*%
X149470000Y-102525000D03*
%TO.N,Net-(BT1-+)*%
X154975000Y-95100000D03*
X145450000Y-96625000D03*
%TO.N,GND*%
X136830000Y-99990000D03*
X156350000Y-95100000D03*
X146975000Y-89400000D03*
X183560000Y-112250000D03*
X123930000Y-95510000D03*
X163550000Y-82400000D03*
X152050000Y-93975000D03*
X170100000Y-115220000D03*
X164375000Y-98600000D03*
X155550000Y-85225000D03*
X160150000Y-76375000D03*
X181900000Y-83450000D03*
X185675000Y-122750000D03*
X167850000Y-110300000D03*
X109470000Y-126775000D03*
X139460000Y-106110000D03*
X145810000Y-108360000D03*
X139270000Y-95330000D03*
X142050000Y-81800000D03*
X210625000Y-88875000D03*
X159025000Y-87050000D03*
X203750000Y-83450000D03*
X131750000Y-105390000D03*
X190750000Y-122750000D03*
X186100000Y-112260000D03*
X146250000Y-86925000D03*
X162890000Y-105430000D03*
X126050000Y-92760000D03*
X121900000Y-93410000D03*
X149125000Y-85225000D03*
X170080000Y-105360000D03*
X144100000Y-103050000D03*
X142725000Y-95275000D03*
X137450000Y-105100000D03*
X146625000Y-98525000D03*
X143125000Y-87375000D03*
X167540000Y-93180000D03*
X167770000Y-96360000D03*
X123920000Y-91300000D03*
%TO.N,Net-(U2-CE)*%
X158550000Y-93180000D03*
X160850000Y-89775000D03*
X144900000Y-95150000D03*
X134980000Y-101630000D03*
X138170000Y-101630000D03*
%TO.N,+3.3V*%
X126100000Y-94070000D03*
X119004998Y-126754998D03*
X181900000Y-84725000D03*
X182475000Y-106250000D03*
X174350000Y-105975000D03*
%TO.N,Net-(Q1-S)*%
X161950000Y-76425000D03*
X161550000Y-80575000D03*
%TO.N,Net-(U3-EN)*%
X172350000Y-109525000D03*
%TO.N,Net-(U3-IO0)*%
X200562500Y-103612500D03*
X180675000Y-108400000D03*
%TO.N,/Circuit de charge/VIN*%
X168025000Y-80550000D03*
X167225000Y-76575000D03*
%TO.N,Net-(C9-Pad1)*%
X138715000Y-97585000D03*
%TO.N,/3.3V_LDO/VIN*%
X122110000Y-95510000D03*
X122090000Y-91560000D03*
%TO.N,/Microcontroller/USB_D+*%
X152400000Y-90050000D03*
X177450000Y-99750000D03*
%TO.N,/Microcontroller/USB_D-*%
X177450000Y-98900000D03*
X153250000Y-90050000D03*
%TO.N,Net-(D3-A1)*%
X149925000Y-84375000D03*
X154725000Y-84350000D03*
%TO.N,/Microcontroller/TCK*%
X184350000Y-128125000D03*
X203500000Y-93600000D03*
%TO.N,/Microcontroller/TDO*%
X203475000Y-92325000D03*
X186925000Y-128150000D03*
%TO.N,/Microcontroller/TDI*%
X203475000Y-91050000D03*
X189450000Y-128125000D03*
%TO.N,/Microcontroller/TMS*%
X192000000Y-128150000D03*
X203475000Y-89800000D03*
%TO.N,/Boutons/START*%
X177600000Y-87250000D03*
X182225000Y-87250000D03*
%TO.N,/Circuit de charge/~{PG}*%
X173950000Y-93975000D03*
X138100000Y-107450000D03*
X182225000Y-93975000D03*
%TO.N,/Circuit de charge/STAT1*%
X182225000Y-89775000D03*
X175455000Y-89775000D03*
X143300000Y-104475000D03*
%TO.N,/Circuit de charge/STAT2*%
X175300000Y-91075000D03*
X182225000Y-91075000D03*
X140975000Y-105600000D03*
%TO.N,Net-(NTC1-Pad2)*%
X126300000Y-105440000D03*
%TO.N,Net-(Q1-G)*%
X167225000Y-77775000D03*
%TO.N,/Boutons/LED_Status*%
X177025000Y-96325000D03*
X173550000Y-96325000D03*
%TO.N,/Boutons/LED_Power*%
X188350000Y-104070000D03*
%TO.N,Net-(U3-IO3)*%
X177700000Y-103090000D03*
%TO.N,/Circuit de charge/VBAT_SENSE*%
X177590000Y-88512500D03*
X182225000Y-88520000D03*
%TO.N,/Microcontroller/VBUS_SENSE*%
X164050000Y-96400000D03*
X177025000Y-95150000D03*
X166600000Y-95150000D03*
%TO.N,Net-(U2-THERM)*%
X133260000Y-104145000D03*
%TO.N,Net-(U5-VM)*%
X156825000Y-101575000D03*
%TO.N,Net-(U2-PROG3)*%
X145810000Y-102930000D03*
%TO.N,Net-(U2-V_{BAT_SENSE})*%
X144425000Y-97525000D03*
%TO.N,Net-(U2-VPCC)*%
X138200000Y-98710000D03*
%TD*%
%TA.AperFunction,Conductor*%
%TO.N,GND*%
G36*
X108592539Y-75745185D02*
G01*
X108638294Y-75797989D01*
X108649500Y-75849500D01*
X108649500Y-88340891D01*
X108683608Y-88468187D01*
X108716554Y-88525250D01*
X108749500Y-88582314D01*
X108842686Y-88675500D01*
X108956814Y-88741392D01*
X109084108Y-88775500D01*
X109084110Y-88775500D01*
X130315890Y-88775500D01*
X130315892Y-88775500D01*
X130443186Y-88741392D01*
X130557314Y-88675500D01*
X130650500Y-88582314D01*
X130716392Y-88468186D01*
X130725645Y-88433653D01*
X176789500Y-88433653D01*
X176789500Y-88591346D01*
X176820261Y-88745989D01*
X176820264Y-88746001D01*
X176880602Y-88891672D01*
X176880609Y-88891685D01*
X176968210Y-89022788D01*
X176968213Y-89022792D01*
X177079707Y-89134286D01*
X177079711Y-89134289D01*
X177210814Y-89221890D01*
X177210827Y-89221897D01*
X177314191Y-89264711D01*
X177356503Y-89282237D01*
X177511153Y-89312999D01*
X177511156Y-89313000D01*
X177511158Y-89313000D01*
X177668844Y-89313000D01*
X177668845Y-89312999D01*
X177823497Y-89282237D01*
X177969179Y-89221894D01*
X178100289Y-89134289D01*
X178211789Y-89022789D01*
X178299394Y-88891679D01*
X178359737Y-88745997D01*
X178390500Y-88591342D01*
X178390500Y-88433658D01*
X178390500Y-88433655D01*
X178390499Y-88433653D01*
X178382904Y-88395473D01*
X178359737Y-88279003D01*
X178330786Y-88209108D01*
X178299397Y-88133327D01*
X178299390Y-88133314D01*
X178211789Y-88002211D01*
X178211786Y-88002207D01*
X178183510Y-87973931D01*
X178150025Y-87912608D01*
X178155009Y-87842916D01*
X178183510Y-87798569D01*
X178221786Y-87760292D01*
X178221789Y-87760289D01*
X178309394Y-87629179D01*
X178369737Y-87483497D01*
X178400500Y-87328842D01*
X178400500Y-87171158D01*
X178400500Y-87171155D01*
X178400499Y-87171153D01*
X181424500Y-87171153D01*
X181424500Y-87328846D01*
X181455261Y-87483489D01*
X181455264Y-87483501D01*
X181515602Y-87629172D01*
X181515609Y-87629185D01*
X181603210Y-87760288D01*
X181603213Y-87760292D01*
X181640240Y-87797319D01*
X181673725Y-87858642D01*
X181668741Y-87928334D01*
X181640240Y-87972681D01*
X181603213Y-88009707D01*
X181603210Y-88009711D01*
X181515609Y-88140814D01*
X181515602Y-88140827D01*
X181455264Y-88286498D01*
X181455261Y-88286510D01*
X181424500Y-88441153D01*
X181424500Y-88598846D01*
X181455261Y-88753489D01*
X181455264Y-88753501D01*
X181515602Y-88899172D01*
X181515609Y-88899185D01*
X181603210Y-89030288D01*
X181603213Y-89030292D01*
X181632740Y-89059819D01*
X181666225Y-89121142D01*
X181661241Y-89190834D01*
X181632740Y-89235181D01*
X181603213Y-89264707D01*
X181603210Y-89264711D01*
X181515609Y-89395814D01*
X181515602Y-89395827D01*
X181455264Y-89541498D01*
X181455261Y-89541510D01*
X181424500Y-89696153D01*
X181424500Y-89853846D01*
X181455261Y-90008489D01*
X181455264Y-90008501D01*
X181515602Y-90154172D01*
X181515609Y-90154185D01*
X181603210Y-90285288D01*
X181603213Y-90285292D01*
X181655240Y-90337319D01*
X181688725Y-90398642D01*
X181683741Y-90468334D01*
X181655240Y-90512681D01*
X181603213Y-90564707D01*
X181603210Y-90564711D01*
X181515609Y-90695814D01*
X181515602Y-90695827D01*
X181455264Y-90841498D01*
X181455261Y-90841510D01*
X181424500Y-90996153D01*
X181424500Y-91153846D01*
X181455261Y-91308489D01*
X181455264Y-91308501D01*
X181515602Y-91454172D01*
X181515609Y-91454185D01*
X181603210Y-91585288D01*
X181603213Y-91585292D01*
X181714707Y-91696786D01*
X181714711Y-91696789D01*
X181845814Y-91784390D01*
X181845827Y-91784397D01*
X181919013Y-91814711D01*
X181991503Y-91844737D01*
X182146153Y-91875499D01*
X182146156Y-91875500D01*
X182146158Y-91875500D01*
X182303844Y-91875500D01*
X182303845Y-91875499D01*
X182458497Y-91844737D01*
X182604179Y-91784394D01*
X182735289Y-91696789D01*
X182846789Y-91585289D01*
X182934394Y-91454179D01*
X182994737Y-91308497D01*
X183025500Y-91153842D01*
X183025500Y-90996158D01*
X183025500Y-90996155D01*
X183025499Y-90996153D01*
X183020527Y-90971158D01*
X182994737Y-90841503D01*
X182985721Y-90819737D01*
X182934397Y-90695827D01*
X182934390Y-90695814D01*
X182846789Y-90564711D01*
X182846786Y-90564707D01*
X182794760Y-90512681D01*
X182761275Y-90451358D01*
X182766259Y-90381666D01*
X182794760Y-90337319D01*
X182846786Y-90285292D01*
X182846789Y-90285289D01*
X182934394Y-90154179D01*
X182994737Y-90008497D01*
X183025500Y-89853842D01*
X183025500Y-89721153D01*
X202674500Y-89721153D01*
X202674500Y-89878846D01*
X202705261Y-90033489D01*
X202705264Y-90033501D01*
X202765602Y-90179172D01*
X202765609Y-90179185D01*
X202853210Y-90310288D01*
X202853213Y-90310292D01*
X202880240Y-90337319D01*
X202913725Y-90398642D01*
X202908741Y-90468334D01*
X202880240Y-90512681D01*
X202853213Y-90539707D01*
X202853210Y-90539711D01*
X202765609Y-90670814D01*
X202765602Y-90670827D01*
X202705264Y-90816498D01*
X202705261Y-90816510D01*
X202674500Y-90971153D01*
X202674500Y-91128846D01*
X202705261Y-91283489D01*
X202705264Y-91283501D01*
X202765602Y-91429172D01*
X202765609Y-91429185D01*
X202853210Y-91560288D01*
X202853213Y-91560292D01*
X202892740Y-91599819D01*
X202926225Y-91661142D01*
X202921241Y-91730834D01*
X202892740Y-91775181D01*
X202853213Y-91814707D01*
X202853210Y-91814711D01*
X202765609Y-91945814D01*
X202765602Y-91945827D01*
X202705264Y-92091498D01*
X202705261Y-92091510D01*
X202674500Y-92246153D01*
X202674500Y-92403846D01*
X202705261Y-92558489D01*
X202705264Y-92558501D01*
X202765602Y-92704172D01*
X202765609Y-92704185D01*
X202853210Y-92835288D01*
X202853213Y-92835292D01*
X202905240Y-92887319D01*
X202938725Y-92948642D01*
X202933741Y-93018334D01*
X202905240Y-93062681D01*
X202878213Y-93089707D01*
X202878210Y-93089711D01*
X202790609Y-93220814D01*
X202790602Y-93220827D01*
X202730264Y-93366498D01*
X202730261Y-93366510D01*
X202699500Y-93521153D01*
X202699500Y-93678846D01*
X202730261Y-93833489D01*
X202730264Y-93833501D01*
X202790602Y-93979172D01*
X202790609Y-93979185D01*
X202878210Y-94110288D01*
X202878213Y-94110292D01*
X202989707Y-94221786D01*
X202989711Y-94221789D01*
X203120814Y-94309390D01*
X203120827Y-94309397D01*
X203266498Y-94369735D01*
X203266503Y-94369737D01*
X203421153Y-94400499D01*
X203421156Y-94400500D01*
X203421158Y-94400500D01*
X203578844Y-94400500D01*
X203578845Y-94400499D01*
X203733497Y-94369737D01*
X203879179Y-94309394D01*
X204010289Y-94221789D01*
X204121789Y-94110289D01*
X204209394Y-93979179D01*
X204269737Y-93833497D01*
X204300500Y-93678842D01*
X204300500Y-93521158D01*
X204300500Y-93521155D01*
X204300499Y-93521153D01*
X204285990Y-93448211D01*
X204269737Y-93366503D01*
X204242299Y-93300261D01*
X204209397Y-93220827D01*
X204209390Y-93220814D01*
X204121789Y-93089711D01*
X204121786Y-93089707D01*
X204069760Y-93037681D01*
X204036275Y-92976358D01*
X204041259Y-92906666D01*
X204069760Y-92862319D01*
X204096786Y-92835292D01*
X204096789Y-92835289D01*
X204184394Y-92704179D01*
X204244737Y-92558497D01*
X204275500Y-92403842D01*
X204275500Y-92246158D01*
X204275500Y-92246155D01*
X204275499Y-92246153D01*
X204262822Y-92182421D01*
X204244737Y-92091503D01*
X204235950Y-92070288D01*
X204184397Y-91945827D01*
X204184390Y-91945814D01*
X204096789Y-91814711D01*
X204096786Y-91814707D01*
X204057260Y-91775182D01*
X204023774Y-91713859D01*
X204028758Y-91644168D01*
X204057260Y-91599818D01*
X204096786Y-91560292D01*
X204096789Y-91560289D01*
X204184394Y-91429179D01*
X204244737Y-91283497D01*
X204275500Y-91128842D01*
X204275500Y-90971158D01*
X204275500Y-90971155D01*
X204275499Y-90971153D01*
X204251521Y-90850609D01*
X204244737Y-90816503D01*
X204194752Y-90695827D01*
X204184397Y-90670827D01*
X204184390Y-90670814D01*
X204157606Y-90630730D01*
X204111772Y-90562135D01*
X208574500Y-90562135D01*
X208574500Y-92357870D01*
X208574501Y-92357876D01*
X208580908Y-92417483D01*
X208631202Y-92552328D01*
X208631206Y-92552335D01*
X208717452Y-92667544D01*
X208717455Y-92667547D01*
X208832664Y-92753793D01*
X208832671Y-92753797D01*
X208964082Y-92802810D01*
X209020016Y-92844681D01*
X209044433Y-92910145D01*
X209029582Y-92978418D01*
X209008431Y-93006673D01*
X208894889Y-93120215D01*
X208769951Y-93292179D01*
X208673444Y-93481585D01*
X208673443Y-93481587D01*
X208673443Y-93481588D01*
X208660587Y-93521155D01*
X208607753Y-93683760D01*
X208574500Y-93893713D01*
X208574500Y-94106286D01*
X208606669Y-94309397D01*
X208607754Y-94316243D01*
X208662680Y-94485288D01*
X208673444Y-94518414D01*
X208769951Y-94707820D01*
X208894890Y-94879786D01*
X209045213Y-95030109D01*
X209217179Y-95155048D01*
X209217181Y-95155049D01*
X209217184Y-95155051D01*
X209226493Y-95159794D01*
X209277290Y-95207766D01*
X209294087Y-95275587D01*
X209271552Y-95341722D01*
X209226505Y-95380760D01*
X209217446Y-95385376D01*
X209217440Y-95385380D01*
X209163282Y-95424727D01*
X209163282Y-95424728D01*
X209795591Y-96057037D01*
X209732007Y-96074075D01*
X209617993Y-96139901D01*
X209524901Y-96232993D01*
X209459075Y-96347007D01*
X209442037Y-96410591D01*
X208809728Y-95778282D01*
X208809727Y-95778282D01*
X208770380Y-95832439D01*
X208673904Y-96021782D01*
X208608242Y-96223869D01*
X208608242Y-96223872D01*
X208575000Y-96433753D01*
X208575000Y-96646246D01*
X208608242Y-96856127D01*
X208608242Y-96856130D01*
X208673904Y-97058217D01*
X208770375Y-97247550D01*
X208809728Y-97301716D01*
X209442037Y-96669408D01*
X209459075Y-96732993D01*
X209524901Y-96847007D01*
X209617993Y-96940099D01*
X209732007Y-97005925D01*
X209795590Y-97022962D01*
X209163282Y-97655269D01*
X209163282Y-97655270D01*
X209217449Y-97694624D01*
X209406782Y-97791095D01*
X209608870Y-97856757D01*
X209818754Y-97890000D01*
X210031246Y-97890000D01*
X210241127Y-97856757D01*
X210241130Y-97856757D01*
X210443217Y-97791095D01*
X210632554Y-97694622D01*
X210686716Y-97655270D01*
X210686717Y-97655270D01*
X210054408Y-97022962D01*
X210117993Y-97005925D01*
X210232007Y-96940099D01*
X210325099Y-96847007D01*
X210390925Y-96732993D01*
X210407962Y-96669408D01*
X211040270Y-97301717D01*
X211040270Y-97301716D01*
X211079622Y-97247554D01*
X211176095Y-97058217D01*
X211241757Y-96856130D01*
X211241757Y-96856127D01*
X211275000Y-96646246D01*
X211275000Y-96433753D01*
X211241757Y-96223872D01*
X211241757Y-96223869D01*
X211176095Y-96021782D01*
X211079624Y-95832449D01*
X211040270Y-95778282D01*
X211040269Y-95778282D01*
X210407962Y-96410590D01*
X210390925Y-96347007D01*
X210325099Y-96232993D01*
X210232007Y-96139901D01*
X210117993Y-96074075D01*
X210054409Y-96057037D01*
X210686716Y-95424728D01*
X210632547Y-95385373D01*
X210632547Y-95385372D01*
X210623500Y-95380763D01*
X210572706Y-95332788D01*
X210555912Y-95264966D01*
X210578451Y-95198832D01*
X210623508Y-95159793D01*
X210632816Y-95155051D01*
X210792193Y-95039258D01*
X210804786Y-95030109D01*
X210804788Y-95030106D01*
X210804792Y-95030104D01*
X210955104Y-94879792D01*
X210955106Y-94879788D01*
X210955109Y-94879786D01*
X211078465Y-94709999D01*
X211080051Y-94707816D01*
X211176557Y-94518412D01*
X211242246Y-94316243D01*
X211275500Y-94106287D01*
X211275500Y-93893713D01*
X211242246Y-93683757D01*
X211176557Y-93481588D01*
X211080051Y-93292184D01*
X211080049Y-93292181D01*
X211080048Y-93292179D01*
X210955109Y-93120213D01*
X210841569Y-93006673D01*
X210808084Y-92945350D01*
X210813068Y-92875658D01*
X210854940Y-92819725D01*
X210885915Y-92802810D01*
X211017331Y-92753796D01*
X211132546Y-92667546D01*
X211218796Y-92552331D01*
X211269091Y-92417483D01*
X211275500Y-92357873D01*
X211275499Y-90562128D01*
X211269091Y-90502517D01*
X211250700Y-90453209D01*
X211218797Y-90367671D01*
X211218793Y-90367664D01*
X211132547Y-90252455D01*
X211132544Y-90252452D01*
X211017335Y-90166206D01*
X211017328Y-90166202D01*
X210882482Y-90115908D01*
X210882483Y-90115908D01*
X210822883Y-90109501D01*
X210822881Y-90109500D01*
X210822873Y-90109500D01*
X210822864Y-90109500D01*
X209027129Y-90109500D01*
X209027123Y-90109501D01*
X208967516Y-90115908D01*
X208832671Y-90166202D01*
X208832664Y-90166206D01*
X208717455Y-90252452D01*
X208717452Y-90252455D01*
X208631206Y-90367664D01*
X208631202Y-90367671D01*
X208580908Y-90502517D01*
X208574697Y-90560292D01*
X208574501Y-90562123D01*
X208574500Y-90562135D01*
X204111772Y-90562135D01*
X204096789Y-90539711D01*
X204063713Y-90506635D01*
X204058556Y-90499819D01*
X204049084Y-90474817D01*
X204036275Y-90451358D01*
X204036897Y-90442647D01*
X204033804Y-90434480D01*
X204039352Y-90408329D01*
X204041259Y-90381666D01*
X204046857Y-90372954D01*
X204048305Y-90366132D01*
X204056680Y-90357669D01*
X204069760Y-90337319D01*
X204096786Y-90310292D01*
X204096789Y-90310289D01*
X204184394Y-90179179D01*
X204244737Y-90033497D01*
X204275500Y-89878842D01*
X204275500Y-89721158D01*
X204275500Y-89721155D01*
X204275499Y-89721153D01*
X204270527Y-89696158D01*
X204244737Y-89566503D01*
X204234380Y-89541498D01*
X204184397Y-89420827D01*
X204184390Y-89420814D01*
X204096789Y-89289711D01*
X204096786Y-89289707D01*
X203985292Y-89178213D01*
X203985288Y-89178210D01*
X203854185Y-89090609D01*
X203854172Y-89090602D01*
X203708501Y-89030264D01*
X203708489Y-89030261D01*
X203553845Y-88999500D01*
X203553842Y-88999500D01*
X203396158Y-88999500D01*
X203396155Y-88999500D01*
X203241510Y-89030261D01*
X203241498Y-89030264D01*
X203095827Y-89090602D01*
X203095814Y-89090609D01*
X202964711Y-89178210D01*
X202964707Y-89178213D01*
X202853213Y-89289707D01*
X202853210Y-89289711D01*
X202765609Y-89420814D01*
X202765602Y-89420827D01*
X202705264Y-89566498D01*
X202705261Y-89566510D01*
X202674500Y-89721153D01*
X183025500Y-89721153D01*
X183025500Y-89696158D01*
X183025500Y-89696155D01*
X183025499Y-89696153D01*
X182994738Y-89541510D01*
X182994737Y-89541503D01*
X182993993Y-89539707D01*
X182934397Y-89395827D01*
X182934390Y-89395814D01*
X182846789Y-89264711D01*
X182846786Y-89264707D01*
X182817260Y-89235181D01*
X182783775Y-89173858D01*
X182788759Y-89104166D01*
X182817260Y-89059819D01*
X182846786Y-89030292D01*
X182846789Y-89030289D01*
X182934394Y-88899179D01*
X182937504Y-88891672D01*
X182985623Y-88775500D01*
X182994737Y-88753497D01*
X183025500Y-88598842D01*
X183025500Y-88441158D01*
X183025500Y-88441155D01*
X183025499Y-88441153D01*
X183016413Y-88395473D01*
X182994737Y-88286503D01*
X182991633Y-88279010D01*
X182934397Y-88140827D01*
X182934390Y-88140814D01*
X182846789Y-88009711D01*
X182846786Y-88009707D01*
X182809760Y-87972681D01*
X182776275Y-87911358D01*
X182781259Y-87841666D01*
X182809760Y-87797319D01*
X182846786Y-87760292D01*
X182846789Y-87760289D01*
X182934394Y-87629179D01*
X182994737Y-87483497D01*
X183025500Y-87328842D01*
X183025500Y-87171158D01*
X183025500Y-87171155D01*
X183025499Y-87171153D01*
X182994738Y-87016510D01*
X182994737Y-87016503D01*
X182985850Y-86995048D01*
X182934397Y-86870827D01*
X182934390Y-86870814D01*
X182846789Y-86739711D01*
X182846786Y-86739707D01*
X182735292Y-86628213D01*
X182735288Y-86628210D01*
X182604185Y-86540609D01*
X182604172Y-86540602D01*
X182458501Y-86480264D01*
X182458489Y-86480261D01*
X182303845Y-86449500D01*
X182303842Y-86449500D01*
X182146158Y-86449500D01*
X182146155Y-86449500D01*
X181991510Y-86480261D01*
X181991498Y-86480264D01*
X181845827Y-86540602D01*
X181845814Y-86540609D01*
X181714711Y-86628210D01*
X181714707Y-86628213D01*
X181603213Y-86739707D01*
X181603210Y-86739711D01*
X181515609Y-86870814D01*
X181515602Y-86870827D01*
X181455264Y-87016498D01*
X181455261Y-87016510D01*
X181424500Y-87171153D01*
X178400499Y-87171153D01*
X178369738Y-87016510D01*
X178369737Y-87016503D01*
X178360850Y-86995048D01*
X178309397Y-86870827D01*
X178309390Y-86870814D01*
X178221789Y-86739711D01*
X178221786Y-86739707D01*
X178110292Y-86628213D01*
X178110288Y-86628210D01*
X177979185Y-86540609D01*
X177979172Y-86540602D01*
X177833501Y-86480264D01*
X177833489Y-86480261D01*
X177678845Y-86449500D01*
X177678842Y-86449500D01*
X177521158Y-86449500D01*
X177521155Y-86449500D01*
X177366510Y-86480261D01*
X177366498Y-86480264D01*
X177220827Y-86540602D01*
X177220814Y-86540609D01*
X177089711Y-86628210D01*
X177089707Y-86628213D01*
X176978213Y-86739707D01*
X176978210Y-86739711D01*
X176890609Y-86870814D01*
X176890602Y-86870827D01*
X176830264Y-87016498D01*
X176830261Y-87016510D01*
X176799500Y-87171153D01*
X176799500Y-87328846D01*
X176830261Y-87483489D01*
X176830264Y-87483501D01*
X176890602Y-87629172D01*
X176890609Y-87629185D01*
X176978210Y-87760288D01*
X176978213Y-87760292D01*
X177006490Y-87788569D01*
X177039975Y-87849892D01*
X177034991Y-87919584D01*
X177006490Y-87963931D01*
X176968213Y-88002207D01*
X176968210Y-88002211D01*
X176880609Y-88133314D01*
X176880602Y-88133327D01*
X176820264Y-88278998D01*
X176820261Y-88279010D01*
X176789500Y-88433653D01*
X130725645Y-88433653D01*
X130750500Y-88340892D01*
X130750500Y-85610258D01*
X205574500Y-85610258D01*
X205574500Y-85839741D01*
X205583201Y-85905826D01*
X205604452Y-86067238D01*
X205663842Y-86288887D01*
X205751650Y-86500876D01*
X205751657Y-86500890D01*
X205866392Y-86699617D01*
X206006081Y-86881661D01*
X206006089Y-86881670D01*
X206168330Y-87043911D01*
X206168338Y-87043918D01*
X206350382Y-87183607D01*
X206350385Y-87183608D01*
X206350388Y-87183611D01*
X206549112Y-87298344D01*
X206549117Y-87298346D01*
X206549123Y-87298349D01*
X206622740Y-87328842D01*
X206761113Y-87386158D01*
X206982762Y-87445548D01*
X207210266Y-87475500D01*
X207210273Y-87475500D01*
X207439727Y-87475500D01*
X207439734Y-87475500D01*
X207667238Y-87445548D01*
X207888887Y-87386158D01*
X208100888Y-87298344D01*
X208299612Y-87183611D01*
X208481661Y-87043919D01*
X208481665Y-87043914D01*
X208481670Y-87043911D01*
X208643911Y-86881670D01*
X208643914Y-86881665D01*
X208643919Y-86881661D01*
X208783611Y-86699612D01*
X208898344Y-86500888D01*
X208986158Y-86288887D01*
X209045548Y-86067238D01*
X209075500Y-85839734D01*
X209075500Y-85610266D01*
X209045548Y-85382762D01*
X208986158Y-85161113D01*
X208907736Y-84971786D01*
X208898349Y-84949123D01*
X208898346Y-84949117D01*
X208898344Y-84949112D01*
X208783611Y-84750388D01*
X208783608Y-84750385D01*
X208783607Y-84750382D01*
X208674737Y-84608501D01*
X208643919Y-84568339D01*
X208643918Y-84568338D01*
X208643911Y-84568330D01*
X208481670Y-84406089D01*
X208481661Y-84406081D01*
X208299617Y-84266392D01*
X208100890Y-84151657D01*
X208100876Y-84151650D01*
X207888887Y-84063842D01*
X207667238Y-84004452D01*
X207629215Y-83999446D01*
X207439741Y-83974500D01*
X207439734Y-83974500D01*
X207210266Y-83974500D01*
X207210258Y-83974500D01*
X207012567Y-84000528D01*
X206982762Y-84004452D01*
X206941123Y-84015609D01*
X206761112Y-84063842D01*
X206549123Y-84151650D01*
X206549109Y-84151657D01*
X206350382Y-84266392D01*
X206168338Y-84406081D01*
X206006081Y-84568338D01*
X205866392Y-84750382D01*
X205751657Y-84949109D01*
X205751650Y-84949123D01*
X205663842Y-85161112D01*
X205604453Y-85382759D01*
X205604451Y-85382770D01*
X205574500Y-85610258D01*
X130750500Y-85610258D01*
X130750500Y-82943713D01*
X131799500Y-82943713D01*
X131799500Y-83156286D01*
X131831169Y-83356239D01*
X131832754Y-83366243D01*
X131895194Y-83558414D01*
X131898444Y-83568414D01*
X131994951Y-83757820D01*
X132119890Y-83929786D01*
X132270213Y-84080109D01*
X132442179Y-84205048D01*
X132442181Y-84205049D01*
X132442184Y-84205051D01*
X132631588Y-84301557D01*
X132833757Y-84367246D01*
X133043713Y-84400500D01*
X133043714Y-84400500D01*
X133256286Y-84400500D01*
X133256287Y-84400500D01*
X133466243Y-84367246D01*
X133668412Y-84301557D01*
X133857816Y-84205051D01*
X133958242Y-84132088D01*
X134029784Y-84080110D01*
X134029784Y-84080109D01*
X134029792Y-84080104D01*
X134143329Y-83966566D01*
X134204648Y-83933084D01*
X134274340Y-83938068D01*
X134330274Y-83979939D01*
X134347189Y-84010917D01*
X134396202Y-84142328D01*
X134396206Y-84142335D01*
X134482452Y-84257544D01*
X134482455Y-84257547D01*
X134597664Y-84343793D01*
X134597671Y-84343797D01*
X134732517Y-84394091D01*
X134732516Y-84394091D01*
X134739444Y-84394835D01*
X134792127Y-84400500D01*
X136587872Y-84400499D01*
X136647483Y-84394091D01*
X136782331Y-84343796D01*
X136845974Y-84296153D01*
X149124500Y-84296153D01*
X149124500Y-84453846D01*
X149155261Y-84608489D01*
X149155264Y-84608501D01*
X149215602Y-84754172D01*
X149215609Y-84754185D01*
X149303210Y-84885288D01*
X149303213Y-84885292D01*
X149414707Y-84996786D01*
X149414711Y-84996789D01*
X149545814Y-85084390D01*
X149545827Y-85084397D01*
X149661185Y-85132179D01*
X149691503Y-85144737D01*
X149846153Y-85175499D01*
X149846156Y-85175500D01*
X149846158Y-85175500D01*
X150003844Y-85175500D01*
X150003845Y-85175499D01*
X150158497Y-85144737D01*
X150304179Y-85084394D01*
X150435289Y-84996789D01*
X150546789Y-84885289D01*
X150634394Y-84754179D01*
X150636990Y-84747913D01*
X150679137Y-84646158D01*
X150694737Y-84608497D01*
X150725500Y-84453842D01*
X150725500Y-84296158D01*
X150725500Y-84296155D01*
X150725499Y-84296153D01*
X150724128Y-84289257D01*
X150720527Y-84271153D01*
X153924500Y-84271153D01*
X153924500Y-84428846D01*
X153955261Y-84583489D01*
X153955264Y-84583501D01*
X154015602Y-84729172D01*
X154015609Y-84729185D01*
X154103210Y-84860288D01*
X154103213Y-84860292D01*
X154214707Y-84971786D01*
X154214711Y-84971789D01*
X154345814Y-85059390D01*
X154345827Y-85059397D01*
X154491498Y-85119735D01*
X154491503Y-85119737D01*
X154617176Y-85144735D01*
X154646153Y-85150499D01*
X154646156Y-85150500D01*
X154646158Y-85150500D01*
X154803844Y-85150500D01*
X154803845Y-85150499D01*
X154958497Y-85119737D01*
X155104179Y-85059394D01*
X155235289Y-84971789D01*
X155346789Y-84860289D01*
X155434394Y-84729179D01*
X155468782Y-84646158D01*
X155468784Y-84646153D01*
X181099500Y-84646153D01*
X181099500Y-84803846D01*
X181130261Y-84958489D01*
X181130264Y-84958501D01*
X181190602Y-85104172D01*
X181190609Y-85104185D01*
X181278210Y-85235288D01*
X181278213Y-85235292D01*
X181389707Y-85346786D01*
X181389711Y-85346789D01*
X181520814Y-85434390D01*
X181520827Y-85434397D01*
X181666498Y-85494735D01*
X181666503Y-85494737D01*
X181821153Y-85525499D01*
X181821156Y-85525500D01*
X181821158Y-85525500D01*
X181978844Y-85525500D01*
X181978845Y-85525499D01*
X182133497Y-85494737D01*
X182137799Y-85492954D01*
X182140960Y-85491646D01*
X182279172Y-85434397D01*
X182279172Y-85434396D01*
X182279179Y-85434394D01*
X182410289Y-85346789D01*
X182521789Y-85235289D01*
X182609394Y-85104179D01*
X182669737Y-84958497D01*
X182700500Y-84803842D01*
X182700500Y-84646158D01*
X182700500Y-84646155D01*
X182700499Y-84646153D01*
X182697845Y-84632809D01*
X182669737Y-84491503D01*
X182669735Y-84491498D01*
X182609397Y-84345827D01*
X182609390Y-84345814D01*
X182521789Y-84214711D01*
X182521786Y-84214707D01*
X182410292Y-84103213D01*
X182410288Y-84103210D01*
X182279185Y-84015609D01*
X182279172Y-84015602D01*
X182133501Y-83955264D01*
X182133489Y-83955261D01*
X181978845Y-83924500D01*
X181978842Y-83924500D01*
X181821158Y-83924500D01*
X181821155Y-83924500D01*
X181666510Y-83955261D01*
X181666498Y-83955264D01*
X181520827Y-84015602D01*
X181520814Y-84015609D01*
X181389711Y-84103210D01*
X181389707Y-84103213D01*
X181278213Y-84214707D01*
X181278210Y-84214711D01*
X181190609Y-84345814D01*
X181190602Y-84345827D01*
X181130264Y-84491498D01*
X181130261Y-84491510D01*
X181099500Y-84646153D01*
X155468784Y-84646153D01*
X155490958Y-84592621D01*
X155490958Y-84592619D01*
X155494737Y-84583497D01*
X155525500Y-84428842D01*
X155525500Y-84271158D01*
X155525500Y-84271155D01*
X155525499Y-84271153D01*
X155520732Y-84247187D01*
X155494737Y-84116503D01*
X155452946Y-84015609D01*
X155434397Y-83970827D01*
X155434390Y-83970814D01*
X155346789Y-83839711D01*
X155346786Y-83839707D01*
X155235292Y-83728213D01*
X155235288Y-83728210D01*
X155104185Y-83640609D01*
X155104172Y-83640602D01*
X154958501Y-83580264D01*
X154958489Y-83580261D01*
X154803845Y-83549500D01*
X154803842Y-83549500D01*
X154646158Y-83549500D01*
X154646155Y-83549500D01*
X154491510Y-83580261D01*
X154491498Y-83580264D01*
X154345827Y-83640602D01*
X154345814Y-83640609D01*
X154214711Y-83728210D01*
X154214707Y-83728213D01*
X154103213Y-83839707D01*
X154103210Y-83839711D01*
X154015609Y-83970814D01*
X154015602Y-83970827D01*
X153955264Y-84116498D01*
X153955261Y-84116510D01*
X153924500Y-84271153D01*
X150720527Y-84271153D01*
X150694738Y-84141508D01*
X150694737Y-84141507D01*
X150694737Y-84141503D01*
X150678876Y-84103210D01*
X150634397Y-83995827D01*
X150634390Y-83995814D01*
X150546789Y-83864711D01*
X150546786Y-83864707D01*
X150435292Y-83753213D01*
X150435288Y-83753210D01*
X150304185Y-83665609D01*
X150304172Y-83665602D01*
X150158501Y-83605264D01*
X150158489Y-83605261D01*
X150003845Y-83574500D01*
X150003842Y-83574500D01*
X149846158Y-83574500D01*
X149846155Y-83574500D01*
X149691510Y-83605261D01*
X149691498Y-83605264D01*
X149545827Y-83665602D01*
X149545814Y-83665609D01*
X149414711Y-83753210D01*
X149414707Y-83753213D01*
X149303213Y-83864707D01*
X149303210Y-83864711D01*
X149215609Y-83995814D01*
X149215602Y-83995827D01*
X149155264Y-84141498D01*
X149155261Y-84141510D01*
X149124500Y-84296153D01*
X136845974Y-84296153D01*
X136897546Y-84257546D01*
X136983796Y-84142331D01*
X137034091Y-84007483D01*
X137040500Y-83947873D01*
X137040499Y-82653543D01*
X147004499Y-82653543D01*
X147042947Y-82846829D01*
X147042950Y-82846839D01*
X147118364Y-83028907D01*
X147118371Y-83028920D01*
X147227860Y-83192781D01*
X147227863Y-83192785D01*
X147367214Y-83332136D01*
X147367218Y-83332139D01*
X147531079Y-83441628D01*
X147531092Y-83441635D01*
X147686304Y-83505925D01*
X147713165Y-83517051D01*
X147713169Y-83517051D01*
X147713170Y-83517052D01*
X147906456Y-83555500D01*
X147906459Y-83555500D01*
X148103543Y-83555500D01*
X148233582Y-83529632D01*
X148296835Y-83517051D01*
X148478914Y-83441632D01*
X148642782Y-83332139D01*
X148782139Y-83192782D01*
X148891632Y-83028914D01*
X148967051Y-82846835D01*
X148989696Y-82732993D01*
X149005500Y-82653543D01*
X149005500Y-82136333D01*
X149025185Y-82069294D01*
X149077989Y-82023539D01*
X149147147Y-82013595D01*
X149191501Y-82028947D01*
X149212859Y-82041278D01*
X149212860Y-82041278D01*
X149212865Y-82041281D01*
X149359234Y-82080500D01*
X149359236Y-82080500D01*
X149510764Y-82080500D01*
X149510766Y-82080500D01*
X149657135Y-82041281D01*
X149788365Y-81965515D01*
X149895515Y-81858365D01*
X149971281Y-81727135D01*
X150010500Y-81580766D01*
X150010500Y-81429234D01*
X154639500Y-81429234D01*
X154639500Y-81580765D01*
X154678719Y-81727136D01*
X154681963Y-81732754D01*
X154754485Y-81858365D01*
X154861635Y-81965515D01*
X154962135Y-82023539D01*
X154992861Y-82041279D01*
X154992865Y-82041281D01*
X155139234Y-82080500D01*
X155139236Y-82080500D01*
X155290764Y-82080500D01*
X155290766Y-82080500D01*
X155437135Y-82041281D01*
X155447451Y-82035325D01*
X155458499Y-82028947D01*
X155526398Y-82012473D01*
X155592426Y-82035325D01*
X155635617Y-82090245D01*
X155644500Y-82136333D01*
X155644500Y-82653541D01*
X155644500Y-82653543D01*
X155644499Y-82653543D01*
X155682947Y-82846829D01*
X155682950Y-82846839D01*
X155758364Y-83028907D01*
X155758371Y-83028920D01*
X155867860Y-83192781D01*
X155867863Y-83192785D01*
X156007214Y-83332136D01*
X156007218Y-83332139D01*
X156171079Y-83441628D01*
X156171092Y-83441635D01*
X156326304Y-83505925D01*
X156353165Y-83517051D01*
X156353169Y-83517051D01*
X156353170Y-83517052D01*
X156546456Y-83555500D01*
X156546459Y-83555500D01*
X156743543Y-83555500D01*
X156873582Y-83529632D01*
X156936835Y-83517051D01*
X157118914Y-83441632D01*
X157282782Y-83332139D01*
X157422139Y-83192782D01*
X157531632Y-83028914D01*
X157607051Y-82846835D01*
X157629696Y-82732993D01*
X157645500Y-82653543D01*
X157645500Y-81356456D01*
X157607052Y-81163170D01*
X157607051Y-81163169D01*
X157607051Y-81163165D01*
X157602274Y-81151632D01*
X157531635Y-80981092D01*
X157531628Y-80981079D01*
X157422139Y-80817218D01*
X157422136Y-80817214D01*
X157282785Y-80677863D01*
X157282781Y-80677860D01*
X157156031Y-80593168D01*
X157118920Y-80568371D01*
X157118907Y-80568364D01*
X156944572Y-80496153D01*
X160749500Y-80496153D01*
X160749500Y-80653846D01*
X160780261Y-80808489D01*
X160780264Y-80808501D01*
X160840602Y-80954172D01*
X160840609Y-80954185D01*
X160928210Y-81085288D01*
X160928213Y-81085292D01*
X161039707Y-81196786D01*
X161039711Y-81196789D01*
X161170814Y-81284390D01*
X161170827Y-81284397D01*
X161316498Y-81344735D01*
X161316503Y-81344737D01*
X161471153Y-81375499D01*
X161471156Y-81375500D01*
X161471158Y-81375500D01*
X161628844Y-81375500D01*
X161628845Y-81375499D01*
X161783497Y-81344737D01*
X161929179Y-81284394D01*
X162060289Y-81196789D01*
X162171789Y-81085289D01*
X162259394Y-80954179D01*
X162319737Y-80808497D01*
X162350500Y-80653842D01*
X162350500Y-80496158D01*
X162350500Y-80496155D01*
X162350499Y-80496153D01*
X162319738Y-80341510D01*
X162319737Y-80341503D01*
X162309380Y-80316498D01*
X162259397Y-80195827D01*
X162259390Y-80195814D01*
X162171789Y-80064711D01*
X162171786Y-80064707D01*
X162060292Y-79953213D01*
X162060288Y-79953210D01*
X161929185Y-79865609D01*
X161929172Y-79865602D01*
X161783501Y-79805264D01*
X161783489Y-79805261D01*
X161628845Y-79774500D01*
X161628842Y-79774500D01*
X161471158Y-79774500D01*
X161471155Y-79774500D01*
X161316510Y-79805261D01*
X161316498Y-79805264D01*
X161170827Y-79865602D01*
X161170814Y-79865609D01*
X161039711Y-79953210D01*
X161039707Y-79953213D01*
X160928213Y-80064707D01*
X160928210Y-80064711D01*
X160840609Y-80195814D01*
X160840602Y-80195827D01*
X160780264Y-80341498D01*
X160780261Y-80341510D01*
X160749500Y-80496153D01*
X156944572Y-80496153D01*
X156936839Y-80492950D01*
X156936829Y-80492947D01*
X156743543Y-80454500D01*
X156743541Y-80454500D01*
X156546459Y-80454500D01*
X156546457Y-80454500D01*
X156353170Y-80492947D01*
X156353160Y-80492950D01*
X156171092Y-80568364D01*
X156171079Y-80568371D01*
X156007218Y-80677860D01*
X156007214Y-80677863D01*
X155867863Y-80817214D01*
X155867860Y-80817218D01*
X155758371Y-80981079D01*
X155758363Y-80981094D01*
X155754456Y-80990528D01*
X155710615Y-81044931D01*
X155644320Y-81066995D01*
X155576621Y-81049715D01*
X155571968Y-81046566D01*
X155568366Y-81044486D01*
X155568365Y-81044485D01*
X155474899Y-80990522D01*
X155437136Y-80968719D01*
X155363950Y-80949109D01*
X155290766Y-80929500D01*
X155139234Y-80929500D01*
X154992863Y-80968719D01*
X154861635Y-81044485D01*
X154861632Y-81044487D01*
X154754487Y-81151632D01*
X154754485Y-81151635D01*
X154678719Y-81282863D01*
X154639500Y-81429234D01*
X150010500Y-81429234D01*
X149971281Y-81282865D01*
X149895515Y-81151635D01*
X149788365Y-81044485D01*
X149712832Y-81000876D01*
X149657136Y-80968719D01*
X149583950Y-80949109D01*
X149510766Y-80929500D01*
X149359234Y-80929500D01*
X149212863Y-80968719D01*
X149121428Y-81021510D01*
X149081635Y-81044485D01*
X149081633Y-81044486D01*
X149074597Y-81048549D01*
X149073254Y-81046224D01*
X149020391Y-81066647D01*
X148951949Y-81052592D01*
X148901971Y-81003766D01*
X148895540Y-80990522D01*
X148891632Y-80981087D01*
X148891628Y-80981079D01*
X148782139Y-80817218D01*
X148782136Y-80817214D01*
X148642785Y-80677863D01*
X148642781Y-80677860D01*
X148478920Y-80568371D01*
X148478907Y-80568364D01*
X148296839Y-80492950D01*
X148296829Y-80492947D01*
X148103543Y-80454500D01*
X148103541Y-80454500D01*
X147906459Y-80454500D01*
X147906457Y-80454500D01*
X147713170Y-80492947D01*
X147713160Y-80492950D01*
X147531092Y-80568364D01*
X147531079Y-80568371D01*
X147367218Y-80677860D01*
X147367214Y-80677863D01*
X147227863Y-80817214D01*
X147227860Y-80817218D01*
X147118371Y-80981079D01*
X147118364Y-80981092D01*
X147042950Y-81163160D01*
X147042947Y-81163170D01*
X147004500Y-81356456D01*
X147004500Y-81356459D01*
X147004500Y-82653541D01*
X147004500Y-82653543D01*
X147004499Y-82653543D01*
X137040499Y-82653543D01*
X137040499Y-82152128D01*
X137034091Y-82092517D01*
X137032810Y-82089083D01*
X136983797Y-81957671D01*
X136983793Y-81957664D01*
X136897547Y-81842455D01*
X136897544Y-81842452D01*
X136782335Y-81756206D01*
X136782328Y-81756202D01*
X136647482Y-81705908D01*
X136647483Y-81705908D01*
X136587883Y-81699501D01*
X136587881Y-81699500D01*
X136587873Y-81699500D01*
X136587864Y-81699500D01*
X134792129Y-81699500D01*
X134792123Y-81699501D01*
X134732516Y-81705908D01*
X134597671Y-81756202D01*
X134597664Y-81756206D01*
X134482455Y-81842452D01*
X134482452Y-81842455D01*
X134396206Y-81957664D01*
X134396203Y-81957669D01*
X134347189Y-82089083D01*
X134305317Y-82145016D01*
X134239853Y-82169433D01*
X134171580Y-82154581D01*
X134143326Y-82133430D01*
X134029786Y-82019890D01*
X133857820Y-81894951D01*
X133668414Y-81798444D01*
X133668413Y-81798443D01*
X133668412Y-81798443D01*
X133466243Y-81732754D01*
X133466241Y-81732753D01*
X133466240Y-81732753D01*
X133304957Y-81707208D01*
X133256287Y-81699500D01*
X133043713Y-81699500D01*
X132995042Y-81707208D01*
X132833760Y-81732753D01*
X132631585Y-81798444D01*
X132442179Y-81894951D01*
X132270213Y-82019890D01*
X132119890Y-82170213D01*
X131994951Y-82342179D01*
X131898444Y-82531585D01*
X131832753Y-82733760D01*
X131799500Y-82943713D01*
X130750500Y-82943713D01*
X130750500Y-77383713D01*
X139959500Y-77383713D01*
X139959500Y-77596287D01*
X139992754Y-77806243D01*
X140008221Y-77853846D01*
X140058444Y-78008414D01*
X140154951Y-78197820D01*
X140279890Y-78369786D01*
X140430213Y-78520109D01*
X140602179Y-78645048D01*
X140602181Y-78645049D01*
X140602184Y-78645051D01*
X140791588Y-78741557D01*
X140993757Y-78807246D01*
X141203713Y-78840500D01*
X141203714Y-78840500D01*
X141416286Y-78840500D01*
X141416287Y-78840500D01*
X141626243Y-78807246D01*
X141828412Y-78741557D01*
X142017816Y-78645051D01*
X142104478Y-78582088D01*
X142189784Y-78520110D01*
X142189784Y-78520109D01*
X142189792Y-78520104D01*
X142303717Y-78406178D01*
X142365036Y-78372696D01*
X142434728Y-78377680D01*
X142490662Y-78419551D01*
X142507577Y-78450528D01*
X142556646Y-78582088D01*
X142556649Y-78582093D01*
X142642809Y-78697187D01*
X142642812Y-78697190D01*
X142757906Y-78783350D01*
X142757913Y-78783354D01*
X142892620Y-78833596D01*
X142892627Y-78833598D01*
X142952155Y-78839999D01*
X142952172Y-78840000D01*
X143600000Y-78840000D01*
X143600000Y-77923012D01*
X143657007Y-77955925D01*
X143784174Y-77990000D01*
X143915826Y-77990000D01*
X144042993Y-77955925D01*
X144100000Y-77923012D01*
X144100000Y-78840000D01*
X144747828Y-78840000D01*
X144747844Y-78839999D01*
X144807372Y-78833598D01*
X144807379Y-78833596D01*
X144942086Y-78783354D01*
X144942093Y-78783350D01*
X145057187Y-78697190D01*
X145057190Y-78697187D01*
X145143350Y-78582093D01*
X145143354Y-78582086D01*
X145193596Y-78447379D01*
X145193598Y-78447372D01*
X145199999Y-78387844D01*
X145200000Y-78387827D01*
X145200000Y-78323543D01*
X147004499Y-78323543D01*
X147042947Y-78516829D01*
X147042950Y-78516839D01*
X147118364Y-78698907D01*
X147118371Y-78698920D01*
X147227860Y-78862781D01*
X147227863Y-78862785D01*
X147367214Y-79002136D01*
X147367218Y-79002139D01*
X147531079Y-79111628D01*
X147531092Y-79111635D01*
X147713160Y-79187049D01*
X147713165Y-79187051D01*
X147713169Y-79187051D01*
X147713170Y-79187052D01*
X147906456Y-79225500D01*
X147906459Y-79225500D01*
X148103543Y-79225500D01*
X148233582Y-79199632D01*
X148296835Y-79187051D01*
X148478914Y-79111632D01*
X148642782Y-79002139D01*
X148782139Y-78862782D01*
X148891632Y-78698914D01*
X148967051Y-78516835D01*
X148990930Y-78396789D01*
X149005500Y-78323543D01*
X155644499Y-78323543D01*
X155682947Y-78516829D01*
X155682950Y-78516839D01*
X155758364Y-78698907D01*
X155758371Y-78698920D01*
X155867860Y-78862781D01*
X155867863Y-78862785D01*
X156007214Y-79002136D01*
X156007218Y-79002139D01*
X156171079Y-79111628D01*
X156171092Y-79111635D01*
X156353160Y-79187049D01*
X156353165Y-79187051D01*
X156353169Y-79187051D01*
X156353170Y-79187052D01*
X156546456Y-79225500D01*
X156546459Y-79225500D01*
X156743543Y-79225500D01*
X156873582Y-79199632D01*
X156936835Y-79187051D01*
X157118914Y-79111632D01*
X157282782Y-79002139D01*
X157422139Y-78862782D01*
X157531632Y-78698914D01*
X157607051Y-78516835D01*
X157630930Y-78396789D01*
X157645500Y-78323543D01*
X157645500Y-77326456D01*
X157607052Y-77133170D01*
X157607051Y-77133169D01*
X157607051Y-77133165D01*
X157589259Y-77090210D01*
X157531635Y-76951092D01*
X157531628Y-76951079D01*
X157422139Y-76787218D01*
X157422136Y-76787214D01*
X157282785Y-76647863D01*
X157282781Y-76647860D01*
X157118920Y-76538371D01*
X157118907Y-76538364D01*
X156936839Y-76462950D01*
X156936829Y-76462947D01*
X156743543Y-76424500D01*
X156743541Y-76424500D01*
X156546459Y-76424500D01*
X156546457Y-76424500D01*
X156353170Y-76462947D01*
X156353160Y-76462950D01*
X156171092Y-76538364D01*
X156171079Y-76538371D01*
X156007218Y-76647860D01*
X156007214Y-76647863D01*
X155867863Y-76787214D01*
X155867860Y-76787218D01*
X155758371Y-76951079D01*
X155758364Y-76951092D01*
X155682950Y-77133160D01*
X155682947Y-77133170D01*
X155644500Y-77326456D01*
X155644500Y-77326459D01*
X155644500Y-78323541D01*
X155644500Y-78323543D01*
X155644499Y-78323543D01*
X149005500Y-78323543D01*
X149005500Y-77326456D01*
X148967052Y-77133170D01*
X148967051Y-77133169D01*
X148967051Y-77133165D01*
X148949259Y-77090210D01*
X148891635Y-76951092D01*
X148891628Y-76951079D01*
X148782139Y-76787218D01*
X148782136Y-76787214D01*
X148642785Y-76647863D01*
X148642781Y-76647860D01*
X148478920Y-76538371D01*
X148478907Y-76538364D01*
X148296839Y-76462950D01*
X148296829Y-76462947D01*
X148103543Y-76424500D01*
X148103541Y-76424500D01*
X147906459Y-76424500D01*
X147906457Y-76424500D01*
X147713170Y-76462947D01*
X147713160Y-76462950D01*
X147531092Y-76538364D01*
X147531079Y-76538371D01*
X147367218Y-76647860D01*
X147367214Y-76647863D01*
X147227863Y-76787214D01*
X147227860Y-76787218D01*
X147118371Y-76951079D01*
X147118364Y-76951092D01*
X147042950Y-77133160D01*
X147042947Y-77133170D01*
X147004500Y-77326456D01*
X147004500Y-77326459D01*
X147004500Y-78323541D01*
X147004500Y-78323543D01*
X147004499Y-78323543D01*
X145200000Y-78323543D01*
X145200000Y-77740000D01*
X144283012Y-77740000D01*
X144315925Y-77682993D01*
X144350000Y-77555826D01*
X144350000Y-77424174D01*
X144315925Y-77297007D01*
X144283012Y-77240000D01*
X145200000Y-77240000D01*
X145200000Y-76592172D01*
X145199999Y-76592155D01*
X145193598Y-76532627D01*
X145193596Y-76532620D01*
X145143354Y-76397913D01*
X145143350Y-76397906D01*
X145057190Y-76282812D01*
X145057187Y-76282809D01*
X144942093Y-76196649D01*
X144942086Y-76196645D01*
X144807379Y-76146403D01*
X144807372Y-76146401D01*
X144747844Y-76140000D01*
X144100000Y-76140000D01*
X144100000Y-77056988D01*
X144042993Y-77024075D01*
X143915826Y-76990000D01*
X143784174Y-76990000D01*
X143657007Y-77024075D01*
X143600000Y-77056988D01*
X143600000Y-76140000D01*
X142952155Y-76140000D01*
X142892627Y-76146401D01*
X142892620Y-76146403D01*
X142757913Y-76196645D01*
X142757906Y-76196649D01*
X142642812Y-76282809D01*
X142642809Y-76282812D01*
X142556649Y-76397906D01*
X142556646Y-76397912D01*
X142507577Y-76529471D01*
X142465705Y-76585404D01*
X142400241Y-76609821D01*
X142331968Y-76594969D01*
X142303714Y-76573818D01*
X142189786Y-76459890D01*
X142017820Y-76334951D01*
X141828414Y-76238444D01*
X141828413Y-76238443D01*
X141828412Y-76238443D01*
X141626243Y-76172754D01*
X141626241Y-76172753D01*
X141626240Y-76172753D01*
X141464957Y-76147208D01*
X141416287Y-76139500D01*
X141203713Y-76139500D01*
X141155042Y-76147208D01*
X140993760Y-76172753D01*
X140791585Y-76238444D01*
X140602179Y-76334951D01*
X140430213Y-76459890D01*
X140279890Y-76610213D01*
X140154951Y-76782179D01*
X140058444Y-76971585D01*
X139992753Y-77173760D01*
X139978349Y-77264707D01*
X139959500Y-77383713D01*
X130750500Y-77383713D01*
X130750500Y-75849500D01*
X130770185Y-75782461D01*
X130822989Y-75736706D01*
X130874500Y-75725500D01*
X161222650Y-75725500D01*
X161289689Y-75745185D01*
X161335444Y-75797989D01*
X161345388Y-75867147D01*
X161325752Y-75918391D01*
X161240609Y-76045814D01*
X161240602Y-76045827D01*
X161180264Y-76191498D01*
X161180261Y-76191510D01*
X161149500Y-76346153D01*
X161149500Y-76503846D01*
X161180261Y-76658489D01*
X161180264Y-76658501D01*
X161240602Y-76804172D01*
X161240609Y-76804185D01*
X161328210Y-76935288D01*
X161328213Y-76935292D01*
X161439707Y-77046786D01*
X161439711Y-77046789D01*
X161570814Y-77134390D01*
X161570827Y-77134397D01*
X161668853Y-77175000D01*
X161716503Y-77194737D01*
X161871153Y-77225499D01*
X161871156Y-77225500D01*
X161871158Y-77225500D01*
X162028844Y-77225500D01*
X162028845Y-77225499D01*
X162183497Y-77194737D01*
X162329179Y-77134394D01*
X162460289Y-77046789D01*
X162571789Y-76935289D01*
X162659394Y-76804179D01*
X162719737Y-76658497D01*
X162750500Y-76503842D01*
X162750500Y-76346158D01*
X162750500Y-76346155D01*
X162750499Y-76346153D01*
X162748270Y-76334949D01*
X162719737Y-76191503D01*
X162698197Y-76139500D01*
X162659397Y-76045827D01*
X162659390Y-76045814D01*
X162574248Y-75918391D01*
X162553370Y-75851714D01*
X162571854Y-75784334D01*
X162623833Y-75737643D01*
X162677350Y-75725500D01*
X166646731Y-75725500D01*
X166713770Y-75745185D01*
X166759525Y-75797989D01*
X166769469Y-75867147D01*
X166740444Y-75930703D01*
X166719373Y-75949292D01*
X166719419Y-75949347D01*
X166717880Y-75950609D01*
X166715621Y-75952603D01*
X166714708Y-75953212D01*
X166603213Y-76064707D01*
X166603210Y-76064711D01*
X166515609Y-76195814D01*
X166515602Y-76195827D01*
X166455264Y-76341498D01*
X166455261Y-76341510D01*
X166424500Y-76496153D01*
X166424500Y-76653846D01*
X166455261Y-76808489D01*
X166455264Y-76808501D01*
X166515602Y-76954172D01*
X166515609Y-76954185D01*
X166603210Y-77085288D01*
X166603213Y-77085292D01*
X166605240Y-77087319D01*
X166605962Y-77088642D01*
X166607076Y-77089999D01*
X166606818Y-77090210D01*
X166638725Y-77148642D01*
X166633741Y-77218334D01*
X166607001Y-77259939D01*
X166607076Y-77260001D01*
X166606552Y-77260639D01*
X166605240Y-77262681D01*
X166603213Y-77264707D01*
X166603210Y-77264711D01*
X166515609Y-77395814D01*
X166515602Y-77395827D01*
X166455264Y-77541498D01*
X166455261Y-77541510D01*
X166424500Y-77696153D01*
X166424500Y-77853846D01*
X166455261Y-78008489D01*
X166455264Y-78008501D01*
X166515602Y-78154172D01*
X166515609Y-78154185D01*
X166603210Y-78285288D01*
X166603213Y-78285292D01*
X166714707Y-78396786D01*
X166714711Y-78396789D01*
X166845814Y-78484390D01*
X166845827Y-78484397D01*
X166991498Y-78544735D01*
X166991503Y-78544737D01*
X167087550Y-78563842D01*
X167146153Y-78575499D01*
X167146156Y-78575500D01*
X167146158Y-78575500D01*
X167303844Y-78575500D01*
X167303845Y-78575499D01*
X167458497Y-78544737D01*
X167604179Y-78484394D01*
X167735289Y-78396789D01*
X167846789Y-78285289D01*
X167934394Y-78154179D01*
X167994737Y-78008497D01*
X168025500Y-77853842D01*
X168025500Y-77696158D01*
X168025500Y-77696155D01*
X168025499Y-77696153D01*
X167994738Y-77541510D01*
X167994737Y-77541503D01*
X167994735Y-77541498D01*
X167934397Y-77395827D01*
X167934390Y-77395814D01*
X167846789Y-77264711D01*
X167844766Y-77262688D01*
X167844043Y-77261365D01*
X167842924Y-77260001D01*
X167843182Y-77259788D01*
X167811276Y-77201368D01*
X167816255Y-77131676D01*
X167842999Y-77090060D01*
X167842924Y-77089999D01*
X167843454Y-77089351D01*
X167844766Y-77087312D01*
X167846789Y-77085289D01*
X167934394Y-76954179D01*
X167994737Y-76808497D01*
X168025500Y-76653842D01*
X168025500Y-76496158D01*
X168025500Y-76496155D01*
X168025499Y-76496153D01*
X168011246Y-76424500D01*
X167994737Y-76341503D01*
X167970427Y-76282812D01*
X167934397Y-76195827D01*
X167934390Y-76195814D01*
X167846789Y-76064711D01*
X167846786Y-76064707D01*
X167735291Y-75953212D01*
X167734379Y-75952603D01*
X167734008Y-75952160D01*
X167730581Y-75949347D01*
X167731114Y-75948696D01*
X167689573Y-75898990D01*
X167680866Y-75829666D01*
X167711020Y-75766638D01*
X167770463Y-75729918D01*
X167803269Y-75725500D01*
X168676000Y-75725500D01*
X168743039Y-75745185D01*
X168788794Y-75797989D01*
X168800000Y-75849500D01*
X168800000Y-79893559D01*
X168780315Y-79960598D01*
X168727511Y-80006353D01*
X168658353Y-80016297D01*
X168594797Y-79987272D01*
X168588319Y-79981240D01*
X168535292Y-79928213D01*
X168535288Y-79928210D01*
X168404185Y-79840609D01*
X168404172Y-79840602D01*
X168258501Y-79780264D01*
X168258489Y-79780261D01*
X168103845Y-79749500D01*
X168103842Y-79749500D01*
X167946158Y-79749500D01*
X167946155Y-79749500D01*
X167791510Y-79780261D01*
X167791498Y-79780264D01*
X167645827Y-79840602D01*
X167645814Y-79840609D01*
X167514711Y-79928210D01*
X167514707Y-79928213D01*
X167403213Y-80039707D01*
X167403210Y-80039711D01*
X167315609Y-80170814D01*
X167315602Y-80170827D01*
X167255264Y-80316498D01*
X167255261Y-80316510D01*
X167224500Y-80471153D01*
X167224500Y-80628846D01*
X167255261Y-80783489D01*
X167255264Y-80783501D01*
X167315602Y-80929172D01*
X167315609Y-80929185D01*
X167403210Y-81060288D01*
X167403213Y-81060292D01*
X167514707Y-81171786D01*
X167514711Y-81171789D01*
X167645814Y-81259390D01*
X167645827Y-81259397D01*
X167791498Y-81319735D01*
X167791503Y-81319737D01*
X167917176Y-81344735D01*
X167946153Y-81350499D01*
X167946156Y-81350500D01*
X167946158Y-81350500D01*
X168103844Y-81350500D01*
X168103845Y-81350499D01*
X168258497Y-81319737D01*
X168404179Y-81259394D01*
X168535289Y-81171789D01*
X168555446Y-81151632D01*
X168588319Y-81118760D01*
X168649642Y-81085275D01*
X168719334Y-81090259D01*
X168775267Y-81132131D01*
X168799684Y-81197595D01*
X168800000Y-81206441D01*
X168800000Y-81950000D01*
X211700500Y-81950000D01*
X211767539Y-81969685D01*
X211813294Y-82022489D01*
X211824500Y-82074000D01*
X211824500Y-134600500D01*
X211804815Y-134667539D01*
X211752011Y-134713294D01*
X211700500Y-134724500D01*
X92949500Y-134724500D01*
X92882461Y-134704815D01*
X92836706Y-134652011D01*
X92825500Y-134600500D01*
X92825500Y-130110258D01*
X95574500Y-130110258D01*
X95574500Y-130339741D01*
X95582057Y-130397137D01*
X95604452Y-130567238D01*
X95631305Y-130667455D01*
X95663842Y-130788887D01*
X95751650Y-131000876D01*
X95751656Y-131000888D01*
X95852725Y-131175946D01*
X95866392Y-131199617D01*
X96006081Y-131381661D01*
X96006089Y-131381670D01*
X96168330Y-131543911D01*
X96168338Y-131543918D01*
X96168339Y-131543919D01*
X96218962Y-131582764D01*
X96350382Y-131683607D01*
X96350385Y-131683608D01*
X96350388Y-131683611D01*
X96549112Y-131798344D01*
X96549117Y-131798346D01*
X96549123Y-131798349D01*
X96618600Y-131827127D01*
X96761113Y-131886158D01*
X96982762Y-131945548D01*
X97210266Y-131975500D01*
X97210273Y-131975500D01*
X97439727Y-131975500D01*
X97439734Y-131975500D01*
X97667238Y-131945548D01*
X97888887Y-131886158D01*
X98100888Y-131798344D01*
X98206871Y-131737155D01*
X102275000Y-131737155D01*
X102275000Y-132385000D01*
X103191988Y-132385000D01*
X103159075Y-132442007D01*
X103125000Y-132569174D01*
X103125000Y-132700826D01*
X103159075Y-132827993D01*
X103191988Y-132885000D01*
X102275000Y-132885000D01*
X102275000Y-133532844D01*
X102281401Y-133592372D01*
X102281403Y-133592379D01*
X102331645Y-133727086D01*
X102331649Y-133727093D01*
X102417809Y-133842187D01*
X102417812Y-133842190D01*
X102532906Y-133928350D01*
X102532913Y-133928354D01*
X102667620Y-133978596D01*
X102667627Y-133978598D01*
X102727155Y-133984999D01*
X102727172Y-133985000D01*
X103375000Y-133985000D01*
X103375000Y-133068012D01*
X103432007Y-133100925D01*
X103559174Y-133135000D01*
X103690826Y-133135000D01*
X103817993Y-133100925D01*
X103875000Y-133068012D01*
X103875000Y-133985000D01*
X104522828Y-133985000D01*
X104522844Y-133984999D01*
X104582372Y-133978598D01*
X104582379Y-133978596D01*
X104717086Y-133928354D01*
X104717093Y-133928350D01*
X104832187Y-133842190D01*
X104832190Y-133842187D01*
X104918350Y-133727093D01*
X104918354Y-133727086D01*
X104967422Y-133595529D01*
X105009293Y-133539595D01*
X105074757Y-133515178D01*
X105143030Y-133530030D01*
X105171285Y-133551181D01*
X105285213Y-133665109D01*
X105457179Y-133790048D01*
X105457181Y-133790049D01*
X105457184Y-133790051D01*
X105646588Y-133886557D01*
X105848757Y-133952246D01*
X106058713Y-133985500D01*
X106058714Y-133985500D01*
X106271286Y-133985500D01*
X106271287Y-133985500D01*
X106481243Y-133952246D01*
X106683412Y-133886557D01*
X106872816Y-133790051D01*
X106920910Y-133755109D01*
X107044786Y-133665109D01*
X107044788Y-133665106D01*
X107044792Y-133665104D01*
X107195104Y-133514792D01*
X107195106Y-133514788D01*
X107195109Y-133514786D01*
X107320048Y-133342820D01*
X107320047Y-133342820D01*
X107320051Y-133342816D01*
X107416557Y-133153412D01*
X107482246Y-132951243D01*
X107515500Y-132741287D01*
X107515500Y-132528713D01*
X107482246Y-132318757D01*
X107416557Y-132116588D01*
X107320051Y-131927184D01*
X107254330Y-131836726D01*
X107254329Y-131836723D01*
X107204917Y-131768713D01*
X110109500Y-131768713D01*
X110109500Y-131981287D01*
X110116125Y-132023114D01*
X110127278Y-132093536D01*
X110142754Y-132191243D01*
X110186182Y-132324901D01*
X110208444Y-132393414D01*
X110304951Y-132582820D01*
X110429890Y-132754786D01*
X110580213Y-132905109D01*
X110752179Y-133030048D01*
X110752181Y-133030049D01*
X110752184Y-133030051D01*
X110941588Y-133126557D01*
X111143757Y-133192246D01*
X111353713Y-133225500D01*
X111353714Y-133225500D01*
X111566286Y-133225500D01*
X111566287Y-133225500D01*
X111776243Y-133192246D01*
X111978412Y-133126557D01*
X112167816Y-133030051D01*
X112254138Y-132967335D01*
X112339786Y-132905109D01*
X112339788Y-132905106D01*
X112339792Y-132905104D01*
X112490104Y-132754792D01*
X112490106Y-132754788D01*
X112490109Y-132754786D01*
X112615048Y-132582820D01*
X112615047Y-132582820D01*
X112615051Y-132582816D01*
X112619514Y-132574054D01*
X112667488Y-132523259D01*
X112735308Y-132506463D01*
X112801444Y-132528999D01*
X112840486Y-132574056D01*
X112844951Y-132582820D01*
X112969890Y-132754786D01*
X113120213Y-132905109D01*
X113292179Y-133030048D01*
X113292181Y-133030049D01*
X113292184Y-133030051D01*
X113481588Y-133126557D01*
X113683757Y-133192246D01*
X113893713Y-133225500D01*
X113893714Y-133225500D01*
X114106286Y-133225500D01*
X114106287Y-133225500D01*
X114316243Y-133192246D01*
X114518412Y-133126557D01*
X114707816Y-133030051D01*
X114828999Y-132942007D01*
X114879784Y-132905110D01*
X114879784Y-132905109D01*
X114879792Y-132905104D01*
X114993329Y-132791566D01*
X115054648Y-132758084D01*
X115124340Y-132763068D01*
X115180274Y-132804939D01*
X115197189Y-132835917D01*
X115246202Y-132967328D01*
X115246206Y-132967335D01*
X115332452Y-133082544D01*
X115332455Y-133082547D01*
X115447664Y-133168793D01*
X115447671Y-133168797D01*
X115582517Y-133219091D01*
X115582516Y-133219091D01*
X115589444Y-133219835D01*
X115642127Y-133225500D01*
X117437872Y-133225499D01*
X117497483Y-133219091D01*
X117632331Y-133168796D01*
X117747546Y-133082546D01*
X117833796Y-132967331D01*
X117884091Y-132832483D01*
X117890500Y-132772873D01*
X117890499Y-130977128D01*
X117884091Y-130917517D01*
X117868755Y-130876399D01*
X172452000Y-130876399D01*
X172452000Y-131123600D01*
X172488901Y-131356588D01*
X172490671Y-131367760D01*
X172556367Y-131569951D01*
X172567062Y-131602865D01*
X172631784Y-131729889D01*
X172679288Y-131823121D01*
X172824590Y-132023112D01*
X172999388Y-132197910D01*
X173199379Y-132343212D01*
X173419637Y-132455439D01*
X173654740Y-132531829D01*
X173898899Y-132570500D01*
X173898900Y-132570500D01*
X174146100Y-132570500D01*
X174146101Y-132570500D01*
X174390260Y-132531829D01*
X174625363Y-132455439D01*
X174845621Y-132343212D01*
X175045612Y-132197910D01*
X175220410Y-132023112D01*
X175362796Y-131827135D01*
X183004500Y-131827135D01*
X183004500Y-133622870D01*
X183004501Y-133622876D01*
X183010908Y-133682483D01*
X183061202Y-133817328D01*
X183061206Y-133817335D01*
X183147452Y-133932544D01*
X183147455Y-133932547D01*
X183262664Y-134018793D01*
X183262671Y-134018797D01*
X183397517Y-134069091D01*
X183397516Y-134069091D01*
X183404444Y-134069835D01*
X183457127Y-134075500D01*
X185252872Y-134075499D01*
X185312483Y-134069091D01*
X185447331Y-134018796D01*
X185562546Y-133932546D01*
X185648796Y-133817331D01*
X185697810Y-133685916D01*
X185739681Y-133629984D01*
X185805145Y-133605566D01*
X185873418Y-133620417D01*
X185901673Y-133641569D01*
X186015213Y-133755109D01*
X186187179Y-133880048D01*
X186187181Y-133880049D01*
X186187184Y-133880051D01*
X186376588Y-133976557D01*
X186578757Y-134042246D01*
X186788713Y-134075500D01*
X186788714Y-134075500D01*
X187001286Y-134075500D01*
X187001287Y-134075500D01*
X187211243Y-134042246D01*
X187413412Y-133976557D01*
X187602816Y-133880051D01*
X187689138Y-133817335D01*
X187774786Y-133755109D01*
X187774788Y-133755106D01*
X187774792Y-133755104D01*
X187925104Y-133604792D01*
X187925106Y-133604788D01*
X187925109Y-133604786D01*
X188050048Y-133432820D01*
X188050047Y-133432820D01*
X188050051Y-133432816D01*
X188054514Y-133424054D01*
X188102488Y-133373259D01*
X188170308Y-133356463D01*
X188236444Y-133378999D01*
X188275486Y-133424056D01*
X188279951Y-133432820D01*
X188404890Y-133604786D01*
X188555213Y-133755109D01*
X188727179Y-133880048D01*
X188727181Y-133880049D01*
X188727184Y-133880051D01*
X188916588Y-133976557D01*
X189118757Y-134042246D01*
X189328713Y-134075500D01*
X189328714Y-134075500D01*
X189541286Y-134075500D01*
X189541287Y-134075500D01*
X189751243Y-134042246D01*
X189953412Y-133976557D01*
X190142816Y-133880051D01*
X190229138Y-133817335D01*
X190314786Y-133755109D01*
X190314788Y-133755106D01*
X190314792Y-133755104D01*
X190465104Y-133604792D01*
X190465106Y-133604788D01*
X190465109Y-133604786D01*
X190590048Y-133432820D01*
X190590047Y-133432820D01*
X190590051Y-133432816D01*
X190594514Y-133424054D01*
X190642488Y-133373259D01*
X190710308Y-133356463D01*
X190776444Y-133378999D01*
X190815486Y-133424056D01*
X190819951Y-133432820D01*
X190944890Y-133604786D01*
X191095213Y-133755109D01*
X191267179Y-133880048D01*
X191267181Y-133880049D01*
X191267184Y-133880051D01*
X191456588Y-133976557D01*
X191658757Y-134042246D01*
X191868713Y-134075500D01*
X191868714Y-134075500D01*
X192081286Y-134075500D01*
X192081287Y-134075500D01*
X192291243Y-134042246D01*
X192493412Y-133976557D01*
X192682816Y-133880051D01*
X192769138Y-133817335D01*
X192854786Y-133755109D01*
X192854788Y-133755106D01*
X192854792Y-133755104D01*
X193005104Y-133604792D01*
X193005106Y-133604788D01*
X193005109Y-133604786D01*
X193090890Y-133486717D01*
X193130051Y-133432816D01*
X193134793Y-133423508D01*
X193182763Y-133372711D01*
X193250583Y-133355911D01*
X193316719Y-133378445D01*
X193355763Y-133423500D01*
X193360373Y-133432547D01*
X193399728Y-133486716D01*
X194032037Y-132854408D01*
X194049075Y-132917993D01*
X194114901Y-133032007D01*
X194207993Y-133125099D01*
X194322007Y-133190925D01*
X194385590Y-133207962D01*
X193753282Y-133840269D01*
X193753282Y-133840270D01*
X193807449Y-133879624D01*
X193996782Y-133976095D01*
X194198870Y-134041757D01*
X194408754Y-134075000D01*
X194621246Y-134075000D01*
X194831127Y-134041757D01*
X194831130Y-134041757D01*
X195033217Y-133976095D01*
X195222554Y-133879622D01*
X195276716Y-133840270D01*
X195276717Y-133840270D01*
X194644408Y-133207962D01*
X194707993Y-133190925D01*
X194822007Y-133125099D01*
X194915099Y-133032007D01*
X194980925Y-132917993D01*
X194997962Y-132854408D01*
X195630270Y-133486717D01*
X195630270Y-133486716D01*
X195669622Y-133432554D01*
X195766095Y-133243217D01*
X195831757Y-133041130D01*
X195831757Y-133041127D01*
X195847895Y-132939240D01*
X195865000Y-132831245D01*
X195865000Y-132618753D01*
X195831757Y-132408872D01*
X195831757Y-132408869D01*
X195766095Y-132206782D01*
X195669624Y-132017449D01*
X195630270Y-131963282D01*
X195630269Y-131963282D01*
X194997962Y-132595590D01*
X194980925Y-132532007D01*
X194915099Y-132417993D01*
X194822007Y-132324901D01*
X194707993Y-132259075D01*
X194644409Y-132242037D01*
X195024290Y-131862155D01*
X197575000Y-131862155D01*
X197575000Y-132510000D01*
X198491988Y-132510000D01*
X198459075Y-132567007D01*
X198425000Y-132694174D01*
X198425000Y-132825826D01*
X198459075Y-132952993D01*
X198491988Y-133010000D01*
X197575000Y-133010000D01*
X197575000Y-133657844D01*
X197581401Y-133717372D01*
X197581403Y-133717379D01*
X197631645Y-133852086D01*
X197631649Y-133852093D01*
X197717809Y-133967187D01*
X197717812Y-133967190D01*
X197832906Y-134053350D01*
X197832913Y-134053354D01*
X197967620Y-134103596D01*
X197967627Y-134103598D01*
X198027155Y-134109999D01*
X198027172Y-134110000D01*
X198675000Y-134110000D01*
X198675000Y-133193012D01*
X198732007Y-133225925D01*
X198859174Y-133260000D01*
X198990826Y-133260000D01*
X199117993Y-133225925D01*
X199175000Y-133193012D01*
X199175000Y-134110000D01*
X199822828Y-134110000D01*
X199822844Y-134109999D01*
X199882372Y-134103598D01*
X199882379Y-134103596D01*
X200017086Y-134053354D01*
X200017093Y-134053350D01*
X200132187Y-133967190D01*
X200132190Y-133967187D01*
X200218350Y-133852093D01*
X200218354Y-133852086D01*
X200267422Y-133720529D01*
X200309293Y-133664595D01*
X200374757Y-133640178D01*
X200443030Y-133655030D01*
X200471285Y-133676181D01*
X200585213Y-133790109D01*
X200757179Y-133915048D01*
X200757181Y-133915049D01*
X200757184Y-133915051D01*
X200946588Y-134011557D01*
X201148757Y-134077246D01*
X201358713Y-134110500D01*
X201358714Y-134110500D01*
X201571286Y-134110500D01*
X201571287Y-134110500D01*
X201781243Y-134077246D01*
X201983412Y-134011557D01*
X202172816Y-133915051D01*
X202220994Y-133880048D01*
X202344786Y-133790109D01*
X202344788Y-133790106D01*
X202344792Y-133790104D01*
X202495104Y-133639792D01*
X202495106Y-133639788D01*
X202495109Y-133639786D01*
X202620048Y-133467820D01*
X202620047Y-133467820D01*
X202620051Y-133467816D01*
X202716557Y-133278412D01*
X202782246Y-133076243D01*
X202815500Y-132866287D01*
X202815500Y-132653713D01*
X202782246Y-132443757D01*
X202716557Y-132241588D01*
X202620051Y-132052184D01*
X202620049Y-132052181D01*
X202620048Y-132052179D01*
X202495109Y-131880213D01*
X202344786Y-131729890D01*
X202172820Y-131604951D01*
X201983414Y-131508444D01*
X201983413Y-131508443D01*
X201983412Y-131508443D01*
X201781243Y-131442754D01*
X201781241Y-131442753D01*
X201781240Y-131442753D01*
X201619957Y-131417208D01*
X201571287Y-131409500D01*
X201358713Y-131409500D01*
X201310042Y-131417208D01*
X201148760Y-131442753D01*
X200946585Y-131508444D01*
X200757179Y-131604951D01*
X200585215Y-131729889D01*
X200471285Y-131843819D01*
X200409962Y-131877303D01*
X200340270Y-131872319D01*
X200284337Y-131830447D01*
X200267422Y-131799470D01*
X200218354Y-131667913D01*
X200218350Y-131667906D01*
X200132190Y-131552812D01*
X200132187Y-131552809D01*
X200017093Y-131466649D01*
X200017086Y-131466645D01*
X199882379Y-131416403D01*
X199882372Y-131416401D01*
X199822844Y-131410000D01*
X199175000Y-131410000D01*
X199175000Y-132326988D01*
X199117993Y-132294075D01*
X198990826Y-132260000D01*
X198859174Y-132260000D01*
X198732007Y-132294075D01*
X198675000Y-132326988D01*
X198675000Y-131410000D01*
X198027155Y-131410000D01*
X197967627Y-131416401D01*
X197967620Y-131416403D01*
X197832913Y-131466645D01*
X197832906Y-131466649D01*
X197717812Y-131552809D01*
X197717809Y-131552812D01*
X197631649Y-131667906D01*
X197631645Y-131667913D01*
X197581403Y-131802620D01*
X197581401Y-131802627D01*
X197575000Y-131862155D01*
X195024290Y-131862155D01*
X195276716Y-131609728D01*
X195222550Y-131570375D01*
X195033217Y-131473904D01*
X194831129Y-131408242D01*
X194621246Y-131375000D01*
X194408754Y-131375000D01*
X194198872Y-131408242D01*
X194198869Y-131408242D01*
X193996782Y-131473904D01*
X193807439Y-131570380D01*
X193753282Y-131609727D01*
X193753282Y-131609728D01*
X194385591Y-132242037D01*
X194322007Y-132259075D01*
X194207993Y-132324901D01*
X194114901Y-132417993D01*
X194049075Y-132532007D01*
X194032037Y-132595591D01*
X193399728Y-131963282D01*
X193399727Y-131963282D01*
X193360380Y-132017440D01*
X193360376Y-132017446D01*
X193355760Y-132026505D01*
X193307781Y-132077297D01*
X193239959Y-132094087D01*
X193173826Y-132071543D01*
X193134794Y-132026493D01*
X193130051Y-132017184D01*
X193130049Y-132017181D01*
X193130048Y-132017179D01*
X193005109Y-131845213D01*
X192854786Y-131694890D01*
X192682820Y-131569951D01*
X192493414Y-131473444D01*
X192493413Y-131473443D01*
X192493412Y-131473443D01*
X192291243Y-131407754D01*
X192291241Y-131407753D01*
X192291240Y-131407753D01*
X192126499Y-131381661D01*
X192081287Y-131374500D01*
X191868713Y-131374500D01*
X191823501Y-131381661D01*
X191658760Y-131407753D01*
X191456585Y-131473444D01*
X191267179Y-131569951D01*
X191095213Y-131694890D01*
X190944890Y-131845213D01*
X190819949Y-132017182D01*
X190815484Y-132025946D01*
X190767509Y-132076742D01*
X190699688Y-132093536D01*
X190633553Y-132070998D01*
X190594516Y-132025946D01*
X190590050Y-132017182D01*
X190465109Y-131845213D01*
X190314786Y-131694890D01*
X190142820Y-131569951D01*
X189953414Y-131473444D01*
X189953413Y-131473443D01*
X189953412Y-131473443D01*
X189751243Y-131407754D01*
X189751241Y-131407753D01*
X189751240Y-131407753D01*
X189586499Y-131381661D01*
X189541287Y-131374500D01*
X189328713Y-131374500D01*
X189283501Y-131381661D01*
X189118760Y-131407753D01*
X188916585Y-131473444D01*
X188727179Y-131569951D01*
X188555213Y-131694890D01*
X188404890Y-131845213D01*
X188279949Y-132017182D01*
X188275484Y-132025946D01*
X188227509Y-132076742D01*
X188159688Y-132093536D01*
X188093553Y-132070998D01*
X188054516Y-132025946D01*
X188050050Y-132017182D01*
X187925109Y-131845213D01*
X187774786Y-131694890D01*
X187602820Y-131569951D01*
X187413414Y-131473444D01*
X187413413Y-131473443D01*
X187413412Y-131473443D01*
X187211243Y-131407754D01*
X187211241Y-131407753D01*
X187211240Y-131407753D01*
X187046499Y-131381661D01*
X187001287Y-131374500D01*
X186788713Y-131374500D01*
X186743501Y-131381661D01*
X186578760Y-131407753D01*
X186376585Y-131473444D01*
X186187179Y-131569951D01*
X186015215Y-131694889D01*
X185901673Y-131808431D01*
X185840350Y-131841915D01*
X185770658Y-131836931D01*
X185714725Y-131795059D01*
X185697810Y-131764082D01*
X185648797Y-131632671D01*
X185648793Y-131632664D01*
X185562547Y-131517455D01*
X185562544Y-131517452D01*
X185447335Y-131431206D01*
X185447328Y-131431202D01*
X185312482Y-131380908D01*
X185312483Y-131380908D01*
X185252883Y-131374501D01*
X185252881Y-131374500D01*
X185252873Y-131374500D01*
X185252864Y-131374500D01*
X183457129Y-131374500D01*
X183457123Y-131374501D01*
X183397516Y-131380908D01*
X183262671Y-131431202D01*
X183262664Y-131431206D01*
X183147455Y-131517452D01*
X183147452Y-131517455D01*
X183061206Y-131632664D01*
X183061202Y-131632671D01*
X183010908Y-131767517D01*
X183004501Y-131827116D01*
X183004500Y-131827135D01*
X175362796Y-131827135D01*
X175365712Y-131823121D01*
X175373197Y-131808431D01*
X175394045Y-131767516D01*
X175394047Y-131767511D01*
X175436798Y-131683607D01*
X175477939Y-131602863D01*
X175554329Y-131367760D01*
X175593000Y-131123601D01*
X175593000Y-130876399D01*
X175554329Y-130632240D01*
X175477939Y-130397137D01*
X175365712Y-130176879D01*
X175317309Y-130110258D01*
X205574500Y-130110258D01*
X205574500Y-130339741D01*
X205582057Y-130397137D01*
X205604452Y-130567238D01*
X205631305Y-130667455D01*
X205663842Y-130788887D01*
X205751650Y-131000876D01*
X205751656Y-131000888D01*
X205852725Y-131175946D01*
X205866392Y-131199617D01*
X206006081Y-131381661D01*
X206006089Y-131381670D01*
X206168330Y-131543911D01*
X206168338Y-131543918D01*
X206168339Y-131543919D01*
X206218962Y-131582764D01*
X206350382Y-131683607D01*
X206350385Y-131683608D01*
X206350388Y-131683611D01*
X206549112Y-131798344D01*
X206549117Y-131798346D01*
X206549123Y-131798349D01*
X206618600Y-131827127D01*
X206761113Y-131886158D01*
X206982762Y-131945548D01*
X207210266Y-131975500D01*
X207210273Y-131975500D01*
X207439727Y-131975500D01*
X207439734Y-131975500D01*
X207667238Y-131945548D01*
X207888887Y-131886158D01*
X208100888Y-131798344D01*
X208299612Y-131683611D01*
X208481661Y-131543919D01*
X208481665Y-131543914D01*
X208481670Y-131543911D01*
X208643911Y-131381670D01*
X208643914Y-131381665D01*
X208643919Y-131381661D01*
X208783611Y-131199612D01*
X208898344Y-131000888D01*
X208986158Y-130788887D01*
X209045548Y-130567238D01*
X209075500Y-130339734D01*
X209075500Y-130110266D01*
X209045548Y-129882762D01*
X208986158Y-129661113D01*
X208898344Y-129449112D01*
X208783611Y-129250388D01*
X208783608Y-129250385D01*
X208783607Y-129250382D01*
X208643918Y-129068338D01*
X208643911Y-129068330D01*
X208481670Y-128906089D01*
X208481661Y-128906081D01*
X208299617Y-128766392D01*
X208265658Y-128746786D01*
X208100888Y-128651656D01*
X208100876Y-128651650D01*
X207888887Y-128563842D01*
X207667238Y-128504452D01*
X207629215Y-128499446D01*
X207439741Y-128474500D01*
X207439734Y-128474500D01*
X207210266Y-128474500D01*
X207210258Y-128474500D01*
X206993715Y-128503009D01*
X206982762Y-128504452D01*
X206890505Y-128529172D01*
X206761112Y-128563842D01*
X206549123Y-128651650D01*
X206549109Y-128651657D01*
X206350382Y-128766392D01*
X206168338Y-128906081D01*
X206006081Y-129068338D01*
X205866392Y-129250382D01*
X205751657Y-129449109D01*
X205751650Y-129449123D01*
X205663842Y-129661112D01*
X205604453Y-129882759D01*
X205604451Y-129882770D01*
X205574500Y-130110258D01*
X175317309Y-130110258D01*
X175220410Y-129976888D01*
X175045612Y-129802090D01*
X174845621Y-129656788D01*
X174625363Y-129544561D01*
X174390260Y-129468171D01*
X174390258Y-129468170D01*
X174390257Y-129468170D01*
X174202699Y-129438464D01*
X174146101Y-129429500D01*
X173898899Y-129429500D01*
X173842300Y-129438464D01*
X173654743Y-129468170D01*
X173419634Y-129544562D01*
X173199378Y-129656788D01*
X172999385Y-129802092D01*
X172824592Y-129976885D01*
X172679288Y-130176878D01*
X172567062Y-130397134D01*
X172490670Y-130632243D01*
X172452000Y-130876399D01*
X117868755Y-130876399D01*
X117833796Y-130782669D01*
X117833795Y-130782668D01*
X117833793Y-130782664D01*
X117747547Y-130667455D01*
X117747544Y-130667452D01*
X117632335Y-130581206D01*
X117632328Y-130581202D01*
X117497482Y-130530908D01*
X117497483Y-130530908D01*
X117437883Y-130524501D01*
X117437881Y-130524500D01*
X117437873Y-130524500D01*
X117437864Y-130524500D01*
X115642129Y-130524500D01*
X115642123Y-130524501D01*
X115582516Y-130530908D01*
X115447671Y-130581202D01*
X115447664Y-130581206D01*
X115332455Y-130667452D01*
X115332452Y-130667455D01*
X115246206Y-130782664D01*
X115246203Y-130782669D01*
X115197189Y-130914083D01*
X115155317Y-130970016D01*
X115089853Y-130994433D01*
X115021580Y-130979581D01*
X114993326Y-130958430D01*
X114879786Y-130844890D01*
X114707820Y-130719951D01*
X114518414Y-130623444D01*
X114518413Y-130623443D01*
X114518412Y-130623443D01*
X114316243Y-130557754D01*
X114316241Y-130557753D01*
X114316240Y-130557753D01*
X114154957Y-130532208D01*
X114106287Y-130524500D01*
X113893713Y-130524500D01*
X113845042Y-130532208D01*
X113683760Y-130557753D01*
X113481585Y-130623444D01*
X113292179Y-130719951D01*
X113120213Y-130844890D01*
X112969890Y-130995213D01*
X112844949Y-131167182D01*
X112840484Y-131175946D01*
X112792509Y-131226742D01*
X112724688Y-131243536D01*
X112658553Y-131220998D01*
X112619516Y-131175946D01*
X112615050Y-131167182D01*
X112490109Y-130995213D01*
X112339786Y-130844890D01*
X112167820Y-130719951D01*
X111978414Y-130623444D01*
X111978413Y-130623443D01*
X111978412Y-130623443D01*
X111776243Y-130557754D01*
X111776241Y-130557753D01*
X111776240Y-130557753D01*
X111614957Y-130532208D01*
X111566287Y-130524500D01*
X111353713Y-130524500D01*
X111305042Y-130532208D01*
X111143760Y-130557753D01*
X110941585Y-130623444D01*
X110752179Y-130719951D01*
X110580213Y-130844890D01*
X110429890Y-130995213D01*
X110304951Y-131167179D01*
X110208444Y-131356585D01*
X110142753Y-131558760D01*
X110112099Y-131752303D01*
X110109500Y-131768713D01*
X107204917Y-131768713D01*
X107195109Y-131755214D01*
X107195105Y-131755209D01*
X107044786Y-131604890D01*
X106872820Y-131479951D01*
X106683414Y-131383444D01*
X106683413Y-131383443D01*
X106683412Y-131383443D01*
X106481243Y-131317754D01*
X106481241Y-131317753D01*
X106481240Y-131317753D01*
X106319957Y-131292208D01*
X106271287Y-131284500D01*
X106058713Y-131284500D01*
X106010042Y-131292208D01*
X105848760Y-131317753D01*
X105646585Y-131383444D01*
X105457179Y-131479951D01*
X105285215Y-131604889D01*
X105171285Y-131718819D01*
X105109962Y-131752303D01*
X105040270Y-131747319D01*
X104984337Y-131705447D01*
X104967422Y-131674470D01*
X104918354Y-131542913D01*
X104918350Y-131542906D01*
X104832190Y-131427812D01*
X104832187Y-131427809D01*
X104717093Y-131341649D01*
X104717086Y-131341645D01*
X104582379Y-131291403D01*
X104582372Y-131291401D01*
X104522844Y-131285000D01*
X103875000Y-131285000D01*
X103875000Y-132201988D01*
X103817993Y-132169075D01*
X103690826Y-132135000D01*
X103559174Y-132135000D01*
X103432007Y-132169075D01*
X103375000Y-132201988D01*
X103375000Y-131285000D01*
X102727155Y-131285000D01*
X102667627Y-131291401D01*
X102667620Y-131291403D01*
X102532913Y-131341645D01*
X102532906Y-131341649D01*
X102417812Y-131427809D01*
X102417809Y-131427812D01*
X102331649Y-131542906D01*
X102331645Y-131542913D01*
X102281403Y-131677620D01*
X102281401Y-131677627D01*
X102275000Y-131737155D01*
X98206871Y-131737155D01*
X98299612Y-131683611D01*
X98481661Y-131543919D01*
X98481665Y-131543914D01*
X98481670Y-131543911D01*
X98643911Y-131381670D01*
X98643914Y-131381665D01*
X98643919Y-131381661D01*
X98783611Y-131199612D01*
X98898344Y-131000888D01*
X98986158Y-130788887D01*
X99045548Y-130567238D01*
X99075500Y-130339734D01*
X99075500Y-130110266D01*
X99045548Y-129882762D01*
X98986158Y-129661113D01*
X98898344Y-129449112D01*
X98783611Y-129250388D01*
X98783608Y-129250385D01*
X98783607Y-129250382D01*
X98643918Y-129068338D01*
X98643911Y-129068330D01*
X98481670Y-128906089D01*
X98481661Y-128906081D01*
X98299617Y-128766392D01*
X98265658Y-128746786D01*
X98100888Y-128651656D01*
X98100876Y-128651650D01*
X97888887Y-128563842D01*
X97667238Y-128504452D01*
X97629215Y-128499446D01*
X97439741Y-128474500D01*
X97439734Y-128474500D01*
X97210266Y-128474500D01*
X97210258Y-128474500D01*
X96993715Y-128503009D01*
X96982762Y-128504452D01*
X96890505Y-128529172D01*
X96761112Y-128563842D01*
X96549123Y-128651650D01*
X96549109Y-128651657D01*
X96350382Y-128766392D01*
X96168338Y-128906081D01*
X96006081Y-129068338D01*
X95866392Y-129250382D01*
X95751657Y-129449109D01*
X95751650Y-129449123D01*
X95663842Y-129661112D01*
X95604453Y-129882759D01*
X95604451Y-129882770D01*
X95574500Y-130110258D01*
X92825500Y-130110258D01*
X92825500Y-128046153D01*
X183549500Y-128046153D01*
X183549500Y-128203846D01*
X183580261Y-128358489D01*
X183580264Y-128358501D01*
X183640602Y-128504172D01*
X183640609Y-128504185D01*
X183728210Y-128635288D01*
X183728213Y-128635292D01*
X183839707Y-128746786D01*
X183839711Y-128746789D01*
X183970814Y-128834390D01*
X183970827Y-128834397D01*
X184116498Y-128894735D01*
X184116503Y-128894737D01*
X184242176Y-128919735D01*
X184271153Y-128925499D01*
X184271156Y-128925500D01*
X184271158Y-128925500D01*
X184428844Y-128925500D01*
X184428845Y-128925499D01*
X184583497Y-128894737D01*
X184729179Y-128834394D01*
X184860289Y-128746789D01*
X184971789Y-128635289D01*
X185059394Y-128504179D01*
X185119737Y-128358497D01*
X185150500Y-128203842D01*
X185150500Y-128071153D01*
X186124500Y-128071153D01*
X186124500Y-128228846D01*
X186155261Y-128383489D01*
X186155264Y-128383501D01*
X186215602Y-128529172D01*
X186215609Y-128529185D01*
X186303210Y-128660288D01*
X186303213Y-128660292D01*
X186414707Y-128771786D01*
X186414711Y-128771789D01*
X186545814Y-128859390D01*
X186545827Y-128859397D01*
X186691498Y-128919735D01*
X186691503Y-128919737D01*
X186846153Y-128950499D01*
X186846156Y-128950500D01*
X186846158Y-128950500D01*
X187003844Y-128950500D01*
X187003845Y-128950499D01*
X187158497Y-128919737D01*
X187304179Y-128859394D01*
X187435289Y-128771789D01*
X187546789Y-128660289D01*
X187634394Y-128529179D01*
X187694737Y-128383497D01*
X187725500Y-128228842D01*
X187725500Y-128071158D01*
X187725500Y-128071155D01*
X187725499Y-128071153D01*
X187724128Y-128064257D01*
X187720527Y-128046153D01*
X188649500Y-128046153D01*
X188649500Y-128203846D01*
X188680261Y-128358489D01*
X188680264Y-128358501D01*
X188740602Y-128504172D01*
X188740609Y-128504185D01*
X188828210Y-128635288D01*
X188828213Y-128635292D01*
X188939707Y-128746786D01*
X188939711Y-128746789D01*
X189070814Y-128834390D01*
X189070827Y-128834397D01*
X189216498Y-128894735D01*
X189216503Y-128894737D01*
X189342176Y-128919735D01*
X189371153Y-128925499D01*
X189371156Y-128925500D01*
X189371158Y-128925500D01*
X189528844Y-128925500D01*
X189528845Y-128925499D01*
X189683497Y-128894737D01*
X189829179Y-128834394D01*
X189960289Y-128746789D01*
X190071789Y-128635289D01*
X190159394Y-128504179D01*
X190219737Y-128358497D01*
X190250500Y-128203842D01*
X190250500Y-128071153D01*
X191199500Y-128071153D01*
X191199500Y-128228846D01*
X191230261Y-128383489D01*
X191230264Y-128383501D01*
X191290602Y-128529172D01*
X191290609Y-128529185D01*
X191378210Y-128660288D01*
X191378213Y-128660292D01*
X191489707Y-128771786D01*
X191489711Y-128771789D01*
X191620814Y-128859390D01*
X191620827Y-128859397D01*
X191766498Y-128919735D01*
X191766503Y-128919737D01*
X191921153Y-128950499D01*
X191921156Y-128950500D01*
X191921158Y-128950500D01*
X192078844Y-128950500D01*
X192078845Y-128950499D01*
X192233497Y-128919737D01*
X192379179Y-128859394D01*
X192510289Y-128771789D01*
X192621789Y-128660289D01*
X192709394Y-128529179D01*
X192769737Y-128383497D01*
X192800500Y-128228842D01*
X192800500Y-128071158D01*
X192800500Y-128071155D01*
X192800499Y-128071153D01*
X192795527Y-128046158D01*
X192769737Y-127916503D01*
X192759380Y-127891498D01*
X192709397Y-127770827D01*
X192709390Y-127770814D01*
X192621789Y-127639711D01*
X192621786Y-127639707D01*
X192510292Y-127528213D01*
X192510288Y-127528210D01*
X192379185Y-127440609D01*
X192379172Y-127440602D01*
X192233501Y-127380264D01*
X192233489Y-127380261D01*
X192078845Y-127349500D01*
X192078842Y-127349500D01*
X191921158Y-127349500D01*
X191921155Y-127349500D01*
X191766510Y-127380261D01*
X191766498Y-127380264D01*
X191620827Y-127440602D01*
X191620814Y-127440609D01*
X191489711Y-127528210D01*
X191489707Y-127528213D01*
X191378213Y-127639707D01*
X191378210Y-127639711D01*
X191290609Y-127770814D01*
X191290602Y-127770827D01*
X191230264Y-127916498D01*
X191230261Y-127916510D01*
X191199500Y-128071153D01*
X190250500Y-128071153D01*
X190250500Y-128046158D01*
X190250500Y-128046155D01*
X190250499Y-128046153D01*
X190219738Y-127891510D01*
X190219737Y-127891503D01*
X190169752Y-127770827D01*
X190159397Y-127745827D01*
X190159390Y-127745814D01*
X190071789Y-127614711D01*
X190071786Y-127614707D01*
X189960292Y-127503213D01*
X189960288Y-127503210D01*
X189829185Y-127415609D01*
X189829172Y-127415602D01*
X189683501Y-127355264D01*
X189683489Y-127355261D01*
X189528845Y-127324500D01*
X189528842Y-127324500D01*
X189371158Y-127324500D01*
X189371155Y-127324500D01*
X189216510Y-127355261D01*
X189216498Y-127355264D01*
X189070827Y-127415602D01*
X189070814Y-127415609D01*
X188939711Y-127503210D01*
X188939707Y-127503213D01*
X188828213Y-127614707D01*
X188828210Y-127614711D01*
X188740609Y-127745814D01*
X188740602Y-127745827D01*
X188680264Y-127891498D01*
X188680261Y-127891510D01*
X188649500Y-128046153D01*
X187720527Y-128046153D01*
X187694738Y-127916508D01*
X187694737Y-127916507D01*
X187694737Y-127916503D01*
X187684380Y-127891498D01*
X187634397Y-127770827D01*
X187634390Y-127770814D01*
X187546789Y-127639711D01*
X187546786Y-127639707D01*
X187435292Y-127528213D01*
X187435288Y-127528210D01*
X187304185Y-127440609D01*
X187304172Y-127440602D01*
X187158501Y-127380264D01*
X187158489Y-127380261D01*
X187003845Y-127349500D01*
X187003842Y-127349500D01*
X186846158Y-127349500D01*
X186846155Y-127349500D01*
X186691510Y-127380261D01*
X186691498Y-127380264D01*
X186545827Y-127440602D01*
X186545814Y-127440609D01*
X186414711Y-127528210D01*
X186414707Y-127528213D01*
X186303213Y-127639707D01*
X186303210Y-127639711D01*
X186215609Y-127770814D01*
X186215602Y-127770827D01*
X186155264Y-127916498D01*
X186155261Y-127916510D01*
X186124500Y-128071153D01*
X185150500Y-128071153D01*
X185150500Y-128046158D01*
X185150500Y-128046155D01*
X185150499Y-128046153D01*
X185119738Y-127891510D01*
X185119737Y-127891503D01*
X185069752Y-127770827D01*
X185059397Y-127745827D01*
X185059390Y-127745814D01*
X184971789Y-127614711D01*
X184971786Y-127614707D01*
X184860292Y-127503213D01*
X184860288Y-127503210D01*
X184729185Y-127415609D01*
X184729172Y-127415602D01*
X184583501Y-127355264D01*
X184583489Y-127355261D01*
X184428845Y-127324500D01*
X184428842Y-127324500D01*
X184271158Y-127324500D01*
X184271155Y-127324500D01*
X184116510Y-127355261D01*
X184116498Y-127355264D01*
X183970827Y-127415602D01*
X183970814Y-127415609D01*
X183839711Y-127503210D01*
X183839707Y-127503213D01*
X183728213Y-127614707D01*
X183728210Y-127614711D01*
X183640609Y-127745814D01*
X183640602Y-127745827D01*
X183580264Y-127891498D01*
X183580261Y-127891510D01*
X183549500Y-128046153D01*
X92825500Y-128046153D01*
X92825500Y-126676151D01*
X118204498Y-126676151D01*
X118204498Y-126833844D01*
X118235259Y-126988487D01*
X118235262Y-126988499D01*
X118295600Y-127134170D01*
X118295607Y-127134183D01*
X118383208Y-127265286D01*
X118383211Y-127265290D01*
X118494705Y-127376784D01*
X118494709Y-127376787D01*
X118625812Y-127464388D01*
X118625825Y-127464395D01*
X118771496Y-127524733D01*
X118771501Y-127524735D01*
X118926151Y-127555497D01*
X118926154Y-127555498D01*
X118926156Y-127555498D01*
X119083842Y-127555498D01*
X119083843Y-127555497D01*
X119238495Y-127524735D01*
X119384177Y-127464392D01*
X119515287Y-127376787D01*
X119626787Y-127265287D01*
X119714392Y-127134177D01*
X119774735Y-126988495D01*
X119805498Y-126833840D01*
X119805498Y-126676156D01*
X119805498Y-126676153D01*
X119805497Y-126676151D01*
X119774736Y-126521508D01*
X119774735Y-126521501D01*
X119766240Y-126500992D01*
X119714395Y-126375825D01*
X119714388Y-126375812D01*
X119626787Y-126244709D01*
X119626784Y-126244705D01*
X119515290Y-126133211D01*
X119515286Y-126133208D01*
X119384183Y-126045607D01*
X119384170Y-126045600D01*
X119238499Y-125985262D01*
X119238487Y-125985259D01*
X119083843Y-125954498D01*
X119083840Y-125954498D01*
X118926156Y-125954498D01*
X118926153Y-125954498D01*
X118771508Y-125985259D01*
X118771496Y-125985262D01*
X118625825Y-126045600D01*
X118625812Y-126045607D01*
X118494709Y-126133208D01*
X118494705Y-126133211D01*
X118383211Y-126244705D01*
X118383208Y-126244709D01*
X118295607Y-126375812D01*
X118295600Y-126375825D01*
X118235262Y-126521496D01*
X118235259Y-126521508D01*
X118204498Y-126676151D01*
X92825500Y-126676151D01*
X92825500Y-125806902D01*
X122522000Y-125806902D01*
X122522000Y-126043097D01*
X122558946Y-126276368D01*
X122631933Y-126500996D01*
X122721180Y-126676151D01*
X122739157Y-126711433D01*
X122877983Y-126902510D01*
X123044990Y-127069517D01*
X123236067Y-127208343D01*
X123335491Y-127259002D01*
X123446503Y-127315566D01*
X123446505Y-127315566D01*
X123446508Y-127315568D01*
X123550940Y-127349500D01*
X123671131Y-127388553D01*
X123904403Y-127425500D01*
X123904408Y-127425500D01*
X124140597Y-127425500D01*
X124373868Y-127388553D01*
X124410089Y-127376784D01*
X124598492Y-127315568D01*
X124808933Y-127208343D01*
X125000010Y-127069517D01*
X125167017Y-126902510D01*
X125305843Y-126711433D01*
X125413068Y-126500992D01*
X125486053Y-126276368D01*
X125508727Y-126133209D01*
X125523000Y-126043097D01*
X125523000Y-125806902D01*
X125486053Y-125573631D01*
X125430020Y-125401181D01*
X125413068Y-125349008D01*
X125413066Y-125349005D01*
X125413066Y-125349003D01*
X125305842Y-125138566D01*
X125207648Y-125003414D01*
X125167017Y-124947490D01*
X125096662Y-124877135D01*
X178022000Y-124877135D01*
X178022000Y-126972870D01*
X178022001Y-126972876D01*
X178028408Y-127032483D01*
X178078702Y-127167328D01*
X178078706Y-127167335D01*
X178164952Y-127282544D01*
X178164955Y-127282547D01*
X178280164Y-127368793D01*
X178280171Y-127368797D01*
X178415017Y-127419091D01*
X178415016Y-127419091D01*
X178421944Y-127419835D01*
X178474627Y-127425500D01*
X180570372Y-127425499D01*
X180629983Y-127419091D01*
X180764831Y-127368796D01*
X180880046Y-127282546D01*
X180966296Y-127167331D01*
X181016591Y-127032483D01*
X181023000Y-126972873D01*
X181022999Y-124877128D01*
X181016591Y-124817517D01*
X181016591Y-124817516D01*
X180982820Y-124726971D01*
X180966297Y-124682671D01*
X180966293Y-124682664D01*
X180880047Y-124567455D01*
X180880044Y-124567452D01*
X180764835Y-124481206D01*
X180764828Y-124481202D01*
X180629982Y-124430908D01*
X180629983Y-124430908D01*
X180570383Y-124424501D01*
X180570381Y-124424500D01*
X180570373Y-124424500D01*
X180570364Y-124424500D01*
X178474629Y-124424500D01*
X178474623Y-124424501D01*
X178415016Y-124430908D01*
X178280171Y-124481202D01*
X178280164Y-124481206D01*
X178164955Y-124567452D01*
X178164952Y-124567455D01*
X178078706Y-124682664D01*
X178078702Y-124682671D01*
X178028408Y-124817517D01*
X178022129Y-124875925D01*
X178022001Y-124877123D01*
X178022000Y-124877135D01*
X125096662Y-124877135D01*
X125000010Y-124780483D01*
X124808933Y-124641657D01*
X124733051Y-124602993D01*
X124598496Y-124534433D01*
X124373868Y-124461446D01*
X124140597Y-124424500D01*
X124140592Y-124424500D01*
X123904408Y-124424500D01*
X123904403Y-124424500D01*
X123671131Y-124461446D01*
X123446503Y-124534433D01*
X123236066Y-124641657D01*
X123179619Y-124682669D01*
X123044990Y-124780483D01*
X123044988Y-124780485D01*
X123044987Y-124780485D01*
X122877985Y-124947487D01*
X122877985Y-124947488D01*
X122877983Y-124947490D01*
X122837353Y-125003412D01*
X122739157Y-125138566D01*
X122631933Y-125349003D01*
X122558946Y-125573631D01*
X122522000Y-125806902D01*
X92825500Y-125806902D01*
X92825500Y-123512155D01*
X93950000Y-123512155D01*
X93950000Y-124160000D01*
X94866988Y-124160000D01*
X94834075Y-124217007D01*
X94800000Y-124344174D01*
X94800000Y-124475826D01*
X94834075Y-124602993D01*
X94866988Y-124660000D01*
X93950000Y-124660000D01*
X93950000Y-125307844D01*
X93956401Y-125367372D01*
X93956403Y-125367379D01*
X94006645Y-125502086D01*
X94006649Y-125502093D01*
X94092809Y-125617187D01*
X94092812Y-125617190D01*
X94207906Y-125703350D01*
X94207913Y-125703354D01*
X94342620Y-125753596D01*
X94342627Y-125753598D01*
X94402155Y-125759999D01*
X94402172Y-125760000D01*
X95050000Y-125760000D01*
X95050000Y-124843012D01*
X95107007Y-124875925D01*
X95234174Y-124910000D01*
X95365826Y-124910000D01*
X95492993Y-124875925D01*
X95550000Y-124843012D01*
X95550000Y-125760000D01*
X96197828Y-125760000D01*
X96197844Y-125759999D01*
X96257372Y-125753598D01*
X96257379Y-125753596D01*
X96392086Y-125703354D01*
X96392093Y-125703350D01*
X96507187Y-125617190D01*
X96507190Y-125617187D01*
X96593350Y-125502093D01*
X96593354Y-125502086D01*
X96642422Y-125370529D01*
X96684293Y-125314595D01*
X96749757Y-125290178D01*
X96818030Y-125305030D01*
X96846285Y-125326181D01*
X96960213Y-125440109D01*
X97132179Y-125565048D01*
X97132181Y-125565049D01*
X97132184Y-125565051D01*
X97321588Y-125661557D01*
X97523757Y-125727246D01*
X97733713Y-125760500D01*
X97733714Y-125760500D01*
X97946286Y-125760500D01*
X97946287Y-125760500D01*
X98156243Y-125727246D01*
X98358412Y-125661557D01*
X98547816Y-125565051D01*
X98634471Y-125502093D01*
X98719786Y-125440109D01*
X98719788Y-125440106D01*
X98719792Y-125440104D01*
X98870104Y-125289792D01*
X98870106Y-125289788D01*
X98870109Y-125289786D01*
X98995048Y-125117820D01*
X98995047Y-125117820D01*
X98995051Y-125117816D01*
X99091557Y-124928412D01*
X99157246Y-124726243D01*
X99190500Y-124516287D01*
X99190500Y-124303713D01*
X99157246Y-124093757D01*
X99091557Y-123891588D01*
X98995051Y-123702184D01*
X98991006Y-123696617D01*
X98962032Y-123656736D01*
X98911479Y-123587155D01*
X205500000Y-123587155D01*
X205500000Y-124235000D01*
X206416988Y-124235000D01*
X206384075Y-124292007D01*
X206350000Y-124419174D01*
X206350000Y-124550826D01*
X206384075Y-124677993D01*
X206416988Y-124735000D01*
X205500000Y-124735000D01*
X205500000Y-125382844D01*
X205506401Y-125442372D01*
X205506403Y-125442379D01*
X205556645Y-125577086D01*
X205556649Y-125577093D01*
X205642809Y-125692187D01*
X205642812Y-125692190D01*
X205757906Y-125778350D01*
X205757913Y-125778354D01*
X205892620Y-125828596D01*
X205892627Y-125828598D01*
X205952155Y-125834999D01*
X205952172Y-125835000D01*
X206600000Y-125835000D01*
X206600000Y-124918012D01*
X206657007Y-124950925D01*
X206784174Y-124985000D01*
X206915826Y-124985000D01*
X207042993Y-124950925D01*
X207100000Y-124918012D01*
X207100000Y-125835000D01*
X207747828Y-125835000D01*
X207747844Y-125834999D01*
X207807372Y-125828598D01*
X207807379Y-125828596D01*
X207942086Y-125778354D01*
X207942093Y-125778350D01*
X208057187Y-125692190D01*
X208057190Y-125692187D01*
X208143350Y-125577093D01*
X208143354Y-125577086D01*
X208192422Y-125445529D01*
X208234293Y-125389595D01*
X208299757Y-125365178D01*
X208368030Y-125380030D01*
X208396285Y-125401181D01*
X208510213Y-125515109D01*
X208682179Y-125640048D01*
X208682181Y-125640049D01*
X208682184Y-125640051D01*
X208871588Y-125736557D01*
X209073757Y-125802246D01*
X209283713Y-125835500D01*
X209283714Y-125835500D01*
X209496286Y-125835500D01*
X209496287Y-125835500D01*
X209706243Y-125802246D01*
X209908412Y-125736557D01*
X210097816Y-125640051D01*
X210184471Y-125577093D01*
X210269786Y-125515109D01*
X210269788Y-125515106D01*
X210269792Y-125515104D01*
X210420104Y-125364792D01*
X210420106Y-125364788D01*
X210420109Y-125364786D01*
X210545048Y-125192820D01*
X210545047Y-125192820D01*
X210545051Y-125192816D01*
X210641557Y-125003412D01*
X210707246Y-124801243D01*
X210740500Y-124591287D01*
X210740500Y-124378713D01*
X210707246Y-124168757D01*
X210641557Y-123966588D01*
X210545051Y-123777184D01*
X210545049Y-123777181D01*
X210545048Y-123777179D01*
X210420109Y-123605213D01*
X210269786Y-123454890D01*
X210097820Y-123329951D01*
X209908414Y-123233444D01*
X209908413Y-123233443D01*
X209908412Y-123233443D01*
X209706243Y-123167754D01*
X209706241Y-123167753D01*
X209706240Y-123167753D01*
X209544957Y-123142208D01*
X209496287Y-123134500D01*
X209283713Y-123134500D01*
X209235042Y-123142208D01*
X209073760Y-123167753D01*
X208871585Y-123233444D01*
X208682179Y-123329951D01*
X208510215Y-123454889D01*
X208396285Y-123568819D01*
X208334962Y-123602303D01*
X208265270Y-123597319D01*
X208209337Y-123555447D01*
X208192422Y-123524470D01*
X208143354Y-123392913D01*
X208143350Y-123392906D01*
X208057190Y-123277812D01*
X208057187Y-123277809D01*
X207942093Y-123191649D01*
X207942086Y-123191645D01*
X207807379Y-123141403D01*
X207807372Y-123141401D01*
X207747844Y-123135000D01*
X207100000Y-123135000D01*
X207100000Y-124051988D01*
X207042993Y-124019075D01*
X206915826Y-123985000D01*
X206784174Y-123985000D01*
X206657007Y-124019075D01*
X206600000Y-124051988D01*
X206600000Y-123135000D01*
X205952155Y-123135000D01*
X205892627Y-123141401D01*
X205892620Y-123141403D01*
X205757913Y-123191645D01*
X205757906Y-123191649D01*
X205642812Y-123277809D01*
X205642809Y-123277812D01*
X205556649Y-123392906D01*
X205556645Y-123392913D01*
X205506403Y-123527620D01*
X205506401Y-123527627D01*
X205500000Y-123587155D01*
X98911479Y-123587155D01*
X98870109Y-123530213D01*
X98719786Y-123379890D01*
X98547820Y-123254951D01*
X98358414Y-123158444D01*
X98358413Y-123158443D01*
X98358412Y-123158443D01*
X98156243Y-123092754D01*
X98156241Y-123092753D01*
X98156240Y-123092753D01*
X97994957Y-123067208D01*
X97946287Y-123059500D01*
X97733713Y-123059500D01*
X97685042Y-123067208D01*
X97523760Y-123092753D01*
X97523757Y-123092754D01*
X97374032Y-123141403D01*
X97321585Y-123158444D01*
X97132179Y-123254951D01*
X96960215Y-123379889D01*
X96846285Y-123493819D01*
X96784962Y-123527303D01*
X96715270Y-123522319D01*
X96659337Y-123480447D01*
X96642422Y-123449470D01*
X96593354Y-123317913D01*
X96593350Y-123317906D01*
X96507190Y-123202812D01*
X96507187Y-123202809D01*
X96392093Y-123116649D01*
X96392086Y-123116645D01*
X96257379Y-123066403D01*
X96257372Y-123066401D01*
X96197844Y-123060000D01*
X95550000Y-123060000D01*
X95550000Y-123976988D01*
X95492993Y-123944075D01*
X95365826Y-123910000D01*
X95234174Y-123910000D01*
X95107007Y-123944075D01*
X95050000Y-123976988D01*
X95050000Y-123060000D01*
X94402155Y-123060000D01*
X94342627Y-123066401D01*
X94342620Y-123066403D01*
X94207913Y-123116645D01*
X94207906Y-123116649D01*
X94092812Y-123202809D01*
X94092809Y-123202812D01*
X94006649Y-123317906D01*
X94006645Y-123317913D01*
X93956403Y-123452620D01*
X93956401Y-123452627D01*
X93950000Y-123512155D01*
X92825500Y-123512155D01*
X92825500Y-120676399D01*
X127952000Y-120676399D01*
X127952000Y-120923601D01*
X127990671Y-121167760D01*
X128067061Y-121402863D01*
X128179288Y-121623121D01*
X128324590Y-121823112D01*
X128499388Y-121997910D01*
X128699379Y-122143212D01*
X128919637Y-122255439D01*
X129154740Y-122331829D01*
X129398899Y-122370500D01*
X129398900Y-122370500D01*
X129646100Y-122370500D01*
X129646101Y-122370500D01*
X129890260Y-122331829D01*
X130125363Y-122255439D01*
X130345621Y-122143212D01*
X130545612Y-121997910D01*
X130720410Y-121823112D01*
X130865712Y-121623121D01*
X130977939Y-121402863D01*
X131054329Y-121167760D01*
X131093000Y-120923601D01*
X131093000Y-120676399D01*
X131054329Y-120432240D01*
X130977939Y-120197137D01*
X130865712Y-119976879D01*
X130720410Y-119776888D01*
X130545612Y-119602090D01*
X130345621Y-119456788D01*
X130125363Y-119344561D01*
X129890260Y-119268171D01*
X129890258Y-119268170D01*
X129890257Y-119268170D01*
X129702699Y-119238464D01*
X129646101Y-119229500D01*
X129398899Y-119229500D01*
X129342300Y-119238464D01*
X129154743Y-119268170D01*
X128919634Y-119344562D01*
X128699378Y-119456788D01*
X128499385Y-119602092D01*
X128324592Y-119776885D01*
X128179288Y-119976878D01*
X128067062Y-120197134D01*
X127990670Y-120432243D01*
X127952000Y-120676399D01*
X92825500Y-120676399D01*
X92825500Y-112253713D01*
X158974500Y-112253713D01*
X158974500Y-112466286D01*
X159007753Y-112676239D01*
X159073444Y-112878414D01*
X159169951Y-113067820D01*
X159294890Y-113239786D01*
X159408818Y-113353714D01*
X159442303Y-113415037D01*
X159437319Y-113484729D01*
X159395447Y-113540662D01*
X159364471Y-113557577D01*
X159232912Y-113606646D01*
X159232906Y-113606649D01*
X159117812Y-113692809D01*
X159117809Y-113692812D01*
X159031649Y-113807906D01*
X159031645Y-113807913D01*
X158981403Y-113942620D01*
X158981401Y-113942627D01*
X158975000Y-114002155D01*
X158975000Y-114650000D01*
X159891988Y-114650000D01*
X159859075Y-114707007D01*
X159825000Y-114834174D01*
X159825000Y-114965826D01*
X159859075Y-115092993D01*
X159891988Y-115150000D01*
X158975000Y-115150000D01*
X158975000Y-115797844D01*
X158981401Y-115857372D01*
X158981403Y-115857379D01*
X159031645Y-115992086D01*
X159031649Y-115992093D01*
X159117809Y-116107187D01*
X159117812Y-116107190D01*
X159232906Y-116193350D01*
X159232913Y-116193354D01*
X159367620Y-116243596D01*
X159367627Y-116243598D01*
X159427155Y-116249999D01*
X159427172Y-116250000D01*
X160075000Y-116250000D01*
X160075000Y-115333012D01*
X160132007Y-115365925D01*
X160259174Y-115400000D01*
X160390826Y-115400000D01*
X160517993Y-115365925D01*
X160575000Y-115333012D01*
X160575000Y-116250000D01*
X161222828Y-116250000D01*
X161222844Y-116249999D01*
X161282372Y-116243598D01*
X161282379Y-116243596D01*
X161417086Y-116193354D01*
X161417093Y-116193350D01*
X161532187Y-116107190D01*
X161532190Y-116107187D01*
X161618350Y-115992093D01*
X161618354Y-115992086D01*
X161668596Y-115857379D01*
X161668598Y-115857372D01*
X161674999Y-115797844D01*
X161675000Y-115797827D01*
X161675000Y-115150000D01*
X160758012Y-115150000D01*
X160790925Y-115092993D01*
X160825000Y-114965826D01*
X160825000Y-114834174D01*
X160790925Y-114707007D01*
X160758012Y-114650000D01*
X161675000Y-114650000D01*
X161675000Y-114002172D01*
X161674999Y-114002155D01*
X161668598Y-113942627D01*
X161668596Y-113942620D01*
X161618354Y-113807913D01*
X161618350Y-113807906D01*
X161532190Y-113692812D01*
X161532187Y-113692809D01*
X161417093Y-113606649D01*
X161417088Y-113606646D01*
X161285528Y-113557577D01*
X161229595Y-113515705D01*
X161205178Y-113450241D01*
X161220030Y-113381968D01*
X161241175Y-113353720D01*
X161355104Y-113239792D01*
X161480051Y-113067816D01*
X161576557Y-112878412D01*
X161642246Y-112676243D01*
X161675500Y-112466287D01*
X161675500Y-112253713D01*
X161642246Y-112043757D01*
X161576557Y-111841588D01*
X161480051Y-111652184D01*
X161480049Y-111652181D01*
X161480048Y-111652179D01*
X161355109Y-111480213D01*
X161204786Y-111329890D01*
X161032820Y-111204951D01*
X160843414Y-111108444D01*
X160843413Y-111108443D01*
X160843412Y-111108443D01*
X160641243Y-111042754D01*
X160641241Y-111042753D01*
X160641240Y-111042753D01*
X160479957Y-111017208D01*
X160431287Y-111009500D01*
X160218713Y-111009500D01*
X160170042Y-111017208D01*
X160008760Y-111042753D01*
X159806585Y-111108444D01*
X159617179Y-111204951D01*
X159445213Y-111329890D01*
X159294890Y-111480213D01*
X159169951Y-111652179D01*
X159073444Y-111841585D01*
X159007753Y-112043760D01*
X158974500Y-112253713D01*
X92825500Y-112253713D01*
X92825500Y-107371153D01*
X137299500Y-107371153D01*
X137299500Y-107528846D01*
X137330261Y-107683489D01*
X137330264Y-107683501D01*
X137390602Y-107829172D01*
X137390609Y-107829185D01*
X137478210Y-107960288D01*
X137478213Y-107960292D01*
X137589707Y-108071786D01*
X137589711Y-108071789D01*
X137720814Y-108159390D01*
X137720827Y-108159397D01*
X137820070Y-108200504D01*
X137866503Y-108219737D01*
X138021153Y-108250499D01*
X138021156Y-108250500D01*
X138021158Y-108250500D01*
X138178844Y-108250500D01*
X138178845Y-108250499D01*
X138333497Y-108219737D01*
X138479179Y-108159394D01*
X138610289Y-108071789D01*
X138721789Y-107960289D01*
X138809394Y-107829179D01*
X138869737Y-107683497D01*
X138900500Y-107528842D01*
X138900500Y-107371158D01*
X138900500Y-107371155D01*
X138900499Y-107371153D01*
X138869738Y-107216510D01*
X138869737Y-107216503D01*
X138849569Y-107167812D01*
X138809397Y-107070827D01*
X138809390Y-107070814D01*
X138721789Y-106939711D01*
X138721786Y-106939707D01*
X138610292Y-106828213D01*
X138610288Y-106828210D01*
X138479185Y-106740609D01*
X138479172Y-106740602D01*
X138333501Y-106680264D01*
X138333489Y-106680261D01*
X138178845Y-106649500D01*
X138178842Y-106649500D01*
X138021158Y-106649500D01*
X138021155Y-106649500D01*
X137866510Y-106680261D01*
X137866498Y-106680264D01*
X137720827Y-106740602D01*
X137720814Y-106740609D01*
X137589711Y-106828210D01*
X137589707Y-106828213D01*
X137478213Y-106939707D01*
X137478210Y-106939711D01*
X137390609Y-107070814D01*
X137390602Y-107070827D01*
X137330264Y-107216498D01*
X137330261Y-107216510D01*
X137299500Y-107371153D01*
X92825500Y-107371153D01*
X92825500Y-105361153D01*
X125499500Y-105361153D01*
X125499500Y-105518846D01*
X125530261Y-105673489D01*
X125530264Y-105673501D01*
X125590602Y-105819172D01*
X125590609Y-105819185D01*
X125678210Y-105950288D01*
X125678213Y-105950292D01*
X125789707Y-106061786D01*
X125789711Y-106061789D01*
X125920814Y-106149390D01*
X125920827Y-106149397D01*
X126063490Y-106208489D01*
X126066503Y-106209737D01*
X126221153Y-106240499D01*
X126221156Y-106240500D01*
X126221158Y-106240500D01*
X126378844Y-106240500D01*
X126378845Y-106240499D01*
X126533497Y-106209737D01*
X126679179Y-106149394D01*
X126810289Y-106061789D01*
X126921789Y-105950289D01*
X127009394Y-105819179D01*
X127069737Y-105673497D01*
X127100040Y-105521153D01*
X140174500Y-105521153D01*
X140174500Y-105678846D01*
X140205261Y-105833489D01*
X140205264Y-105833501D01*
X140265602Y-105979172D01*
X140265609Y-105979185D01*
X140353210Y-106110288D01*
X140353213Y-106110292D01*
X140464707Y-106221786D01*
X140464711Y-106221789D01*
X140595814Y-106309390D01*
X140595827Y-106309397D01*
X140741498Y-106369735D01*
X140741503Y-106369737D01*
X140896153Y-106400499D01*
X140896156Y-106400500D01*
X140896158Y-106400500D01*
X141053844Y-106400500D01*
X141053845Y-106400499D01*
X141208497Y-106369737D01*
X141354179Y-106309394D01*
X141485289Y-106221789D01*
X141596789Y-106110289D01*
X141684394Y-105979179D01*
X141744737Y-105833497D01*
X141753836Y-105787753D01*
X141765580Y-105728713D01*
X158924500Y-105728713D01*
X158924500Y-105941287D01*
X158934534Y-106004644D01*
X158957461Y-106149397D01*
X158957754Y-106151243D01*
X159015460Y-106328844D01*
X159023444Y-106353414D01*
X159119951Y-106542820D01*
X159244890Y-106714786D01*
X159358818Y-106828714D01*
X159392303Y-106890037D01*
X159387319Y-106959729D01*
X159345447Y-107015662D01*
X159314471Y-107032577D01*
X159182912Y-107081646D01*
X159182906Y-107081649D01*
X159067812Y-107167809D01*
X159067809Y-107167812D01*
X158981649Y-107282906D01*
X158981645Y-107282913D01*
X158931403Y-107417620D01*
X158931401Y-107417627D01*
X158925000Y-107477155D01*
X158925000Y-108125000D01*
X159841988Y-108125000D01*
X159809075Y-108182007D01*
X159775000Y-108309174D01*
X159775000Y-108440826D01*
X159809075Y-108567993D01*
X159841988Y-108625000D01*
X158925000Y-108625000D01*
X158925000Y-109272844D01*
X158931401Y-109332372D01*
X158931403Y-109332379D01*
X158981645Y-109467086D01*
X158981649Y-109467093D01*
X159067809Y-109582187D01*
X159067812Y-109582190D01*
X159182906Y-109668350D01*
X159182913Y-109668354D01*
X159317620Y-109718596D01*
X159317627Y-109718598D01*
X159377155Y-109724999D01*
X159377172Y-109725000D01*
X160025000Y-109725000D01*
X160025000Y-108808012D01*
X160082007Y-108840925D01*
X160209174Y-108875000D01*
X160340826Y-108875000D01*
X160467993Y-108840925D01*
X160525000Y-108808012D01*
X160525000Y-109725000D01*
X161172828Y-109725000D01*
X161172844Y-109724999D01*
X161232372Y-109718598D01*
X161232379Y-109718596D01*
X161367086Y-109668354D01*
X161367093Y-109668350D01*
X161482187Y-109582190D01*
X161482190Y-109582187D01*
X161568350Y-109467093D01*
X161568353Y-109467088D01*
X161576162Y-109446153D01*
X171549500Y-109446153D01*
X171549500Y-109603846D01*
X171580261Y-109758489D01*
X171580264Y-109758501D01*
X171640602Y-109904172D01*
X171640609Y-109904185D01*
X171728210Y-110035288D01*
X171728213Y-110035292D01*
X171839707Y-110146786D01*
X171839711Y-110146789D01*
X171970814Y-110234390D01*
X171970827Y-110234397D01*
X172116498Y-110294735D01*
X172116503Y-110294737D01*
X172271153Y-110325499D01*
X172271156Y-110325500D01*
X172271158Y-110325500D01*
X172428844Y-110325500D01*
X172428845Y-110325499D01*
X172583497Y-110294737D01*
X172729179Y-110234394D01*
X172860289Y-110146789D01*
X172971789Y-110035289D01*
X173059394Y-109904179D01*
X173119737Y-109758497D01*
X173150500Y-109603842D01*
X173150500Y-109446158D01*
X173150500Y-109446155D01*
X173150499Y-109446153D01*
X173119738Y-109291510D01*
X173119737Y-109291503D01*
X173082043Y-109200500D01*
X173059397Y-109145827D01*
X173059390Y-109145814D01*
X172971789Y-109014711D01*
X172971786Y-109014707D01*
X172860292Y-108903213D01*
X172860288Y-108903210D01*
X172729185Y-108815609D01*
X172729172Y-108815602D01*
X172583501Y-108755264D01*
X172583489Y-108755261D01*
X172428845Y-108724500D01*
X172428842Y-108724500D01*
X172271158Y-108724500D01*
X172271155Y-108724500D01*
X172116510Y-108755261D01*
X172116498Y-108755264D01*
X171970827Y-108815602D01*
X171970814Y-108815609D01*
X171839711Y-108903210D01*
X171839707Y-108903213D01*
X171728213Y-109014707D01*
X171728210Y-109014711D01*
X171640609Y-109145814D01*
X171640602Y-109145827D01*
X171580264Y-109291498D01*
X171580261Y-109291510D01*
X171549500Y-109446153D01*
X161576162Y-109446153D01*
X161594595Y-109396732D01*
X161594596Y-109396730D01*
X161618596Y-109332382D01*
X161618598Y-109332372D01*
X161624999Y-109272844D01*
X161625000Y-109272827D01*
X161625000Y-108625000D01*
X160708012Y-108625000D01*
X160740925Y-108567993D01*
X160775000Y-108440826D01*
X160775000Y-108321153D01*
X179874500Y-108321153D01*
X179874500Y-108478846D01*
X179905261Y-108633489D01*
X179905264Y-108633501D01*
X179965602Y-108779172D01*
X179965609Y-108779185D01*
X180053210Y-108910288D01*
X180053213Y-108910292D01*
X180164707Y-109021786D01*
X180164711Y-109021789D01*
X180295814Y-109109390D01*
X180295827Y-109109397D01*
X180441498Y-109169735D01*
X180441503Y-109169737D01*
X180596153Y-109200499D01*
X180596156Y-109200500D01*
X180596158Y-109200500D01*
X180753844Y-109200500D01*
X180753845Y-109200499D01*
X180908497Y-109169737D01*
X181054179Y-109109394D01*
X181185289Y-109021789D01*
X181296789Y-108910289D01*
X181384394Y-108779179D01*
X181444737Y-108633497D01*
X181475500Y-108478842D01*
X181475500Y-108321158D01*
X181475500Y-108321155D01*
X181475499Y-108321153D01*
X181455326Y-108219736D01*
X181444737Y-108166503D01*
X181427546Y-108125000D01*
X181384397Y-108020827D01*
X181384390Y-108020814D01*
X181296789Y-107889711D01*
X181296786Y-107889707D01*
X181185292Y-107778213D01*
X181185288Y-107778210D01*
X181054185Y-107690609D01*
X181054172Y-107690602D01*
X180908501Y-107630264D01*
X180908489Y-107630261D01*
X180753845Y-107599500D01*
X180753842Y-107599500D01*
X180596158Y-107599500D01*
X180596155Y-107599500D01*
X180441510Y-107630261D01*
X180441498Y-107630264D01*
X180295827Y-107690602D01*
X180295814Y-107690609D01*
X180164711Y-107778210D01*
X180164707Y-107778213D01*
X180053213Y-107889707D01*
X180053210Y-107889711D01*
X179965609Y-108020814D01*
X179965602Y-108020827D01*
X179905264Y-108166498D01*
X179905261Y-108166510D01*
X179874500Y-108321153D01*
X160775000Y-108321153D01*
X160775000Y-108309174D01*
X160740925Y-108182007D01*
X160708012Y-108125000D01*
X161625000Y-108125000D01*
X161625000Y-107477172D01*
X161624999Y-107477155D01*
X161618598Y-107417627D01*
X161618596Y-107417620D01*
X161568354Y-107282913D01*
X161568350Y-107282906D01*
X161482190Y-107167812D01*
X161482187Y-107167809D01*
X161367093Y-107081649D01*
X161367088Y-107081646D01*
X161235528Y-107032577D01*
X161179595Y-106990705D01*
X161155178Y-106925241D01*
X161170030Y-106856968D01*
X161191175Y-106828720D01*
X161305104Y-106714792D01*
X161430051Y-106542816D01*
X161526557Y-106353412D01*
X161592246Y-106151243D01*
X161625500Y-105941287D01*
X161625500Y-105896153D01*
X173549500Y-105896153D01*
X173549500Y-106053846D01*
X173580261Y-106208489D01*
X173580264Y-106208501D01*
X173640602Y-106354172D01*
X173640609Y-106354185D01*
X173728210Y-106485288D01*
X173728213Y-106485292D01*
X173839707Y-106596786D01*
X173839711Y-106596789D01*
X173970814Y-106684390D01*
X173970827Y-106684397D01*
X174106520Y-106740602D01*
X174116503Y-106744737D01*
X174271153Y-106775499D01*
X174271156Y-106775500D01*
X174271158Y-106775500D01*
X174428844Y-106775500D01*
X174428845Y-106775499D01*
X174583497Y-106744737D01*
X174729179Y-106684394D01*
X174860289Y-106596789D01*
X174971789Y-106485289D01*
X175059394Y-106354179D01*
X175119737Y-106208497D01*
X175122212Y-106196050D01*
X175127165Y-106171153D01*
X181674500Y-106171153D01*
X181674500Y-106328846D01*
X181705261Y-106483489D01*
X181705264Y-106483501D01*
X181765602Y-106629172D01*
X181765609Y-106629185D01*
X181853210Y-106760288D01*
X181853213Y-106760292D01*
X181964707Y-106871786D01*
X181964711Y-106871789D01*
X182095814Y-106959390D01*
X182095827Y-106959397D01*
X182231665Y-107015662D01*
X182241503Y-107019737D01*
X182396153Y-107050499D01*
X182396156Y-107050500D01*
X182396158Y-107050500D01*
X182553844Y-107050500D01*
X182553845Y-107050499D01*
X182708497Y-107019737D01*
X182854179Y-106959394D01*
X182985289Y-106871789D01*
X183096789Y-106760289D01*
X183184394Y-106629179D01*
X183244737Y-106483497D01*
X183275500Y-106328842D01*
X183275500Y-106171158D01*
X183275500Y-106171155D01*
X183275499Y-106171153D01*
X183252165Y-106053846D01*
X183244737Y-106016503D01*
X183244735Y-106016498D01*
X183184397Y-105870827D01*
X183184390Y-105870814D01*
X183096789Y-105739711D01*
X183096786Y-105739707D01*
X182985292Y-105628213D01*
X182985288Y-105628210D01*
X182854185Y-105540609D01*
X182854172Y-105540602D01*
X182708501Y-105480264D01*
X182708489Y-105480261D01*
X182553845Y-105449500D01*
X182553842Y-105449500D01*
X182396158Y-105449500D01*
X182396155Y-105449500D01*
X182241510Y-105480261D01*
X182241498Y-105480264D01*
X182095827Y-105540602D01*
X182095814Y-105540609D01*
X181964711Y-105628210D01*
X181964707Y-105628213D01*
X181853213Y-105739707D01*
X181853210Y-105739711D01*
X181765609Y-105870814D01*
X181765602Y-105870827D01*
X181705264Y-106016498D01*
X181705261Y-106016510D01*
X181674500Y-106171153D01*
X175127165Y-106171153D01*
X175133189Y-106140874D01*
X175133189Y-106140873D01*
X175150499Y-106053846D01*
X175150500Y-106053844D01*
X175150500Y-105896155D01*
X175150499Y-105896153D01*
X175119738Y-105741510D01*
X175119737Y-105741503D01*
X175102410Y-105699672D01*
X175059397Y-105595827D01*
X175059390Y-105595814D01*
X174971789Y-105464711D01*
X174971786Y-105464707D01*
X174860292Y-105353213D01*
X174860288Y-105353210D01*
X174729185Y-105265609D01*
X174729172Y-105265602D01*
X174583501Y-105205264D01*
X174583489Y-105205261D01*
X174428845Y-105174500D01*
X174428842Y-105174500D01*
X174271158Y-105174500D01*
X174271155Y-105174500D01*
X174116510Y-105205261D01*
X174116498Y-105205264D01*
X173970827Y-105265602D01*
X173970814Y-105265609D01*
X173839711Y-105353210D01*
X173839707Y-105353213D01*
X173728213Y-105464707D01*
X173728210Y-105464711D01*
X173640609Y-105595814D01*
X173640602Y-105595827D01*
X173580264Y-105741498D01*
X173580261Y-105741510D01*
X173549500Y-105896153D01*
X161625500Y-105896153D01*
X161625500Y-105728713D01*
X161592246Y-105518757D01*
X161526557Y-105316588D01*
X161430051Y-105127184D01*
X161430049Y-105127181D01*
X161430048Y-105127179D01*
X161305109Y-104955213D01*
X161154786Y-104804890D01*
X160982820Y-104679951D01*
X160793414Y-104583444D01*
X160793413Y-104583443D01*
X160793412Y-104583443D01*
X160591243Y-104517754D01*
X160591241Y-104517753D01*
X160591240Y-104517753D01*
X160429957Y-104492208D01*
X160381287Y-104484500D01*
X160168713Y-104484500D01*
X160120042Y-104492208D01*
X159958760Y-104517753D01*
X159756585Y-104583444D01*
X159567179Y-104679951D01*
X159395213Y-104804890D01*
X159244890Y-104955213D01*
X159119951Y-105127179D01*
X159023444Y-105316585D01*
X158957753Y-105518760D01*
X158933247Y-105673489D01*
X158924500Y-105728713D01*
X141765580Y-105728713D01*
X141771357Y-105699672D01*
X141771361Y-105699651D01*
X141775500Y-105678841D01*
X141775500Y-105521155D01*
X141775499Y-105521153D01*
X141744738Y-105366510D01*
X141744737Y-105366503D01*
X141724062Y-105316588D01*
X141684397Y-105220827D01*
X141684390Y-105220814D01*
X141596789Y-105089711D01*
X141596786Y-105089707D01*
X141485292Y-104978213D01*
X141485288Y-104978210D01*
X141354185Y-104890609D01*
X141354172Y-104890602D01*
X141208501Y-104830264D01*
X141208489Y-104830261D01*
X141053845Y-104799500D01*
X141053842Y-104799500D01*
X140896158Y-104799500D01*
X140896155Y-104799500D01*
X140741510Y-104830261D01*
X140741498Y-104830264D01*
X140595827Y-104890602D01*
X140595814Y-104890609D01*
X140464711Y-104978210D01*
X140464707Y-104978213D01*
X140353213Y-105089707D01*
X140353210Y-105089711D01*
X140265609Y-105220814D01*
X140265602Y-105220827D01*
X140205264Y-105366498D01*
X140205261Y-105366510D01*
X140174500Y-105521153D01*
X127100040Y-105521153D01*
X127100500Y-105518842D01*
X127100500Y-105361158D01*
X127100500Y-105361155D01*
X127100499Y-105361153D01*
X127081493Y-105265606D01*
X127069737Y-105206503D01*
X127069223Y-105205261D01*
X127009397Y-105060827D01*
X127009390Y-105060814D01*
X126921789Y-104929711D01*
X126921786Y-104929707D01*
X126810292Y-104818213D01*
X126810288Y-104818210D01*
X126679185Y-104730609D01*
X126679172Y-104730602D01*
X126533501Y-104670264D01*
X126533489Y-104670261D01*
X126378845Y-104639500D01*
X126378842Y-104639500D01*
X126221158Y-104639500D01*
X126221155Y-104639500D01*
X126066510Y-104670261D01*
X126066498Y-104670264D01*
X125920827Y-104730602D01*
X125920814Y-104730609D01*
X125789711Y-104818210D01*
X125789707Y-104818213D01*
X125678213Y-104929707D01*
X125678210Y-104929711D01*
X125590609Y-105060814D01*
X125590602Y-105060827D01*
X125530264Y-105206498D01*
X125530261Y-105206510D01*
X125499500Y-105361153D01*
X92825500Y-105361153D01*
X92825500Y-104066153D01*
X132459500Y-104066153D01*
X132459500Y-104223846D01*
X132490261Y-104378489D01*
X132490264Y-104378501D01*
X132550602Y-104524172D01*
X132550609Y-104524185D01*
X132638210Y-104655288D01*
X132638213Y-104655292D01*
X132749707Y-104766786D01*
X132749711Y-104766789D01*
X132880814Y-104854390D01*
X132880827Y-104854397D01*
X132968245Y-104890606D01*
X133026503Y-104914737D01*
X133181153Y-104945499D01*
X133181156Y-104945500D01*
X133181158Y-104945500D01*
X133338844Y-104945500D01*
X133338845Y-104945499D01*
X133493497Y-104914737D01*
X133639179Y-104854394D01*
X133770289Y-104766789D01*
X133881789Y-104655289D01*
X133969394Y-104524179D01*
X134022424Y-104396153D01*
X142499500Y-104396153D01*
X142499500Y-104553846D01*
X142530261Y-104708489D01*
X142530264Y-104708501D01*
X142590602Y-104854172D01*
X142590609Y-104854185D01*
X142678210Y-104985288D01*
X142678213Y-104985292D01*
X142789707Y-105096786D01*
X142789711Y-105096789D01*
X142920814Y-105184390D01*
X142920827Y-105184397D01*
X143066498Y-105244735D01*
X143066503Y-105244737D01*
X143221153Y-105275499D01*
X143221156Y-105275500D01*
X143221158Y-105275500D01*
X143378844Y-105275500D01*
X143378845Y-105275499D01*
X143533497Y-105244737D01*
X143679179Y-105184394D01*
X143810289Y-105096789D01*
X143921789Y-104985289D01*
X144009394Y-104854179D01*
X144069737Y-104708497D01*
X144100500Y-104553842D01*
X144100500Y-104396158D01*
X144100500Y-104396155D01*
X144100499Y-104396153D01*
X144097731Y-104382237D01*
X144069737Y-104241503D01*
X144062423Y-104223846D01*
X144009397Y-104095827D01*
X144009390Y-104095814D01*
X143939457Y-103991153D01*
X187549500Y-103991153D01*
X187549500Y-104148846D01*
X187580261Y-104303489D01*
X187580264Y-104303501D01*
X187640602Y-104449172D01*
X187640609Y-104449185D01*
X187728210Y-104580288D01*
X187728213Y-104580292D01*
X187839707Y-104691786D01*
X187839711Y-104691789D01*
X187970814Y-104779390D01*
X187970827Y-104779397D01*
X188093633Y-104830264D01*
X188116503Y-104839737D01*
X188271153Y-104870499D01*
X188271156Y-104870500D01*
X188271158Y-104870500D01*
X188428844Y-104870500D01*
X188428845Y-104870499D01*
X188583497Y-104839737D01*
X188729179Y-104779394D01*
X188860289Y-104691789D01*
X188971789Y-104580289D01*
X189059394Y-104449179D01*
X189119737Y-104303497D01*
X189150500Y-104148842D01*
X189150500Y-103991158D01*
X189150500Y-103991155D01*
X189150499Y-103991153D01*
X189145239Y-103964711D01*
X189119737Y-103836503D01*
X189104366Y-103799394D01*
X189059397Y-103690827D01*
X189059390Y-103690814D01*
X188996342Y-103596457D01*
X188996341Y-103596455D01*
X188971792Y-103559715D01*
X188971786Y-103559707D01*
X188945732Y-103533653D01*
X199762000Y-103533653D01*
X199762000Y-103691346D01*
X199792761Y-103845989D01*
X199792764Y-103846001D01*
X199853102Y-103991672D01*
X199853109Y-103991685D01*
X199940710Y-104122788D01*
X199940713Y-104122792D01*
X200052207Y-104234286D01*
X200052211Y-104234289D01*
X200183314Y-104321890D01*
X200183327Y-104321897D01*
X200319954Y-104378489D01*
X200329003Y-104382237D01*
X200483653Y-104412999D01*
X200483656Y-104413000D01*
X200483658Y-104413000D01*
X200641344Y-104413000D01*
X200641345Y-104412999D01*
X200795997Y-104382237D01*
X200941679Y-104321894D01*
X201072789Y-104234289D01*
X201184289Y-104122789D01*
X201271894Y-103991679D01*
X201332237Y-103845997D01*
X201363000Y-103691342D01*
X201363000Y-103533658D01*
X201363000Y-103533655D01*
X201362999Y-103533653D01*
X201344428Y-103440292D01*
X201332237Y-103379003D01*
X201324615Y-103360602D01*
X201271897Y-103233327D01*
X201271890Y-103233314D01*
X201184289Y-103102211D01*
X201184286Y-103102207D01*
X201072792Y-102990713D01*
X201072788Y-102990710D01*
X200941685Y-102903109D01*
X200941672Y-102903102D01*
X200796001Y-102842764D01*
X200795989Y-102842761D01*
X200641345Y-102812000D01*
X200641342Y-102812000D01*
X200483658Y-102812000D01*
X200483655Y-102812000D01*
X200329010Y-102842761D01*
X200328998Y-102842764D01*
X200183327Y-102903102D01*
X200183314Y-102903109D01*
X200052211Y-102990710D01*
X200052207Y-102990713D01*
X199940713Y-103102207D01*
X199940710Y-103102211D01*
X199853109Y-103233314D01*
X199853102Y-103233327D01*
X199792764Y-103378998D01*
X199792761Y-103379010D01*
X199762000Y-103533653D01*
X188945732Y-103533653D01*
X188860292Y-103448213D01*
X188860288Y-103448210D01*
X188729185Y-103360609D01*
X188729172Y-103360602D01*
X188583501Y-103300264D01*
X188583489Y-103300261D01*
X188428845Y-103269500D01*
X188428842Y-103269500D01*
X188271158Y-103269500D01*
X188271155Y-103269500D01*
X188116510Y-103300261D01*
X188116498Y-103300264D01*
X187970827Y-103360602D01*
X187970814Y-103360609D01*
X187839711Y-103448210D01*
X187839707Y-103448213D01*
X187728213Y-103559707D01*
X187728210Y-103559711D01*
X187640609Y-103690814D01*
X187640602Y-103690827D01*
X187580264Y-103836498D01*
X187580261Y-103836510D01*
X187549500Y-103991153D01*
X143939457Y-103991153D01*
X143921789Y-103964711D01*
X143921786Y-103964707D01*
X143810292Y-103853213D01*
X143810288Y-103853210D01*
X143679185Y-103765609D01*
X143679172Y-103765602D01*
X143533501Y-103705264D01*
X143533489Y-103705261D01*
X143378845Y-103674500D01*
X143378842Y-103674500D01*
X143221158Y-103674500D01*
X143221155Y-103674500D01*
X143066510Y-103705261D01*
X143066498Y-103705264D01*
X142920827Y-103765602D01*
X142920814Y-103765609D01*
X142789711Y-103853210D01*
X142789707Y-103853213D01*
X142678213Y-103964707D01*
X142678210Y-103964711D01*
X142590609Y-104095814D01*
X142590602Y-104095827D01*
X142530264Y-104241498D01*
X142530261Y-104241510D01*
X142499500Y-104396153D01*
X134022424Y-104396153D01*
X134029737Y-104378497D01*
X134058423Y-104234286D01*
X134060500Y-104223844D01*
X134060500Y-104066155D01*
X134060499Y-104066153D01*
X134029738Y-103911510D01*
X134029737Y-103911503D01*
X134009832Y-103863448D01*
X133969397Y-103765827D01*
X133969390Y-103765814D01*
X133881789Y-103634711D01*
X133881786Y-103634707D01*
X133770292Y-103523213D01*
X133770288Y-103523210D01*
X133639185Y-103435609D01*
X133639172Y-103435602D01*
X133493501Y-103375264D01*
X133493489Y-103375261D01*
X133338845Y-103344500D01*
X133338842Y-103344500D01*
X133181158Y-103344500D01*
X133181155Y-103344500D01*
X133026510Y-103375261D01*
X133026498Y-103375264D01*
X132880827Y-103435602D01*
X132880814Y-103435609D01*
X132749711Y-103523210D01*
X132749707Y-103523213D01*
X132638213Y-103634707D01*
X132638210Y-103634711D01*
X132550609Y-103765814D01*
X132550602Y-103765827D01*
X132490264Y-103911498D01*
X132490261Y-103911510D01*
X132459500Y-104066153D01*
X92825500Y-104066153D01*
X92825500Y-102851153D01*
X145009500Y-102851153D01*
X145009500Y-103008846D01*
X145040261Y-103163489D01*
X145040264Y-103163501D01*
X145100602Y-103309172D01*
X145100609Y-103309185D01*
X145188210Y-103440288D01*
X145188213Y-103440292D01*
X145299707Y-103551786D01*
X145299711Y-103551789D01*
X145430814Y-103639390D01*
X145430827Y-103639397D01*
X145556240Y-103691344D01*
X145576503Y-103699737D01*
X145731153Y-103730499D01*
X145731156Y-103730500D01*
X145731158Y-103730500D01*
X145888844Y-103730500D01*
X145888845Y-103730499D01*
X146043497Y-103699737D01*
X146189179Y-103639394D01*
X146320289Y-103551789D01*
X146431789Y-103440289D01*
X146519394Y-103309179D01*
X146579737Y-103163497D01*
X146610500Y-103008842D01*
X146610500Y-102851158D01*
X146610500Y-102851155D01*
X146610499Y-102851153D01*
X146582585Y-102710821D01*
X146579737Y-102696503D01*
X146531359Y-102579707D01*
X146519397Y-102550827D01*
X146519390Y-102550814D01*
X146491422Y-102508957D01*
X146449457Y-102446153D01*
X148669500Y-102446153D01*
X148669500Y-102603846D01*
X148700261Y-102758489D01*
X148700264Y-102758501D01*
X148760602Y-102904172D01*
X148760609Y-102904185D01*
X148848210Y-103035288D01*
X148848213Y-103035292D01*
X148959707Y-103146786D01*
X148959711Y-103146789D01*
X149090814Y-103234390D01*
X149090827Y-103234397D01*
X149236498Y-103294735D01*
X149236503Y-103294737D01*
X149391153Y-103325499D01*
X149391156Y-103325500D01*
X149391158Y-103325500D01*
X149548844Y-103325500D01*
X149548845Y-103325499D01*
X149703497Y-103294737D01*
X149849179Y-103234394D01*
X149980289Y-103146789D01*
X150091789Y-103035289D01*
X150107916Y-103011153D01*
X176899500Y-103011153D01*
X176899500Y-103168846D01*
X176930261Y-103323489D01*
X176930264Y-103323501D01*
X176990602Y-103469172D01*
X176990609Y-103469185D01*
X177078210Y-103600288D01*
X177078213Y-103600292D01*
X177189707Y-103711786D01*
X177189711Y-103711789D01*
X177320814Y-103799390D01*
X177320827Y-103799397D01*
X177466498Y-103859735D01*
X177466503Y-103859737D01*
X177621153Y-103890499D01*
X177621156Y-103890500D01*
X177621158Y-103890500D01*
X177778844Y-103890500D01*
X177914837Y-103863449D01*
X177914837Y-103863448D01*
X177933497Y-103859737D01*
X178079179Y-103799394D01*
X178210289Y-103711789D01*
X178321789Y-103600289D01*
X178409394Y-103469179D01*
X178469737Y-103323497D01*
X178500500Y-103168842D01*
X178500500Y-103011158D01*
X178500500Y-103011155D01*
X178500499Y-103011153D01*
X178485585Y-102936175D01*
X178469737Y-102856503D01*
X178464045Y-102842761D01*
X178409397Y-102710827D01*
X178409390Y-102710814D01*
X178321789Y-102579711D01*
X178321786Y-102579707D01*
X178210292Y-102468213D01*
X178210288Y-102468210D01*
X178079185Y-102380609D01*
X178079172Y-102380602D01*
X177933501Y-102320264D01*
X177933489Y-102320261D01*
X177778845Y-102289500D01*
X177778842Y-102289500D01*
X177621158Y-102289500D01*
X177621155Y-102289500D01*
X177466510Y-102320261D01*
X177466498Y-102320264D01*
X177320827Y-102380602D01*
X177320814Y-102380609D01*
X177189711Y-102468210D01*
X177189707Y-102468213D01*
X177078213Y-102579707D01*
X177078210Y-102579711D01*
X176990609Y-102710814D01*
X176990602Y-102710827D01*
X176930264Y-102856498D01*
X176930261Y-102856510D01*
X176899500Y-103011153D01*
X150107916Y-103011153D01*
X150121576Y-102990710D01*
X150158016Y-102936175D01*
X150179391Y-102904183D01*
X150179394Y-102904179D01*
X150179839Y-102903106D01*
X150204834Y-102842761D01*
X150239737Y-102758497D01*
X150270500Y-102603842D01*
X150270500Y-102446158D01*
X150270500Y-102446155D01*
X150270499Y-102446153D01*
X150265239Y-102419711D01*
X150239737Y-102291503D01*
X150201835Y-102199999D01*
X150179397Y-102145827D01*
X150179390Y-102145814D01*
X150091789Y-102014711D01*
X150091786Y-102014707D01*
X149980292Y-101903213D01*
X149980288Y-101903210D01*
X149849185Y-101815609D01*
X149849172Y-101815602D01*
X149703501Y-101755264D01*
X149703489Y-101755261D01*
X149548845Y-101724500D01*
X149548842Y-101724500D01*
X149391158Y-101724500D01*
X149391155Y-101724500D01*
X149236510Y-101755261D01*
X149236498Y-101755264D01*
X149090827Y-101815602D01*
X149090814Y-101815609D01*
X148959711Y-101903210D01*
X148959707Y-101903213D01*
X148848213Y-102014707D01*
X148848210Y-102014711D01*
X148760609Y-102145814D01*
X148760602Y-102145827D01*
X148700264Y-102291498D01*
X148700261Y-102291510D01*
X148669500Y-102446153D01*
X146449457Y-102446153D01*
X146431789Y-102419711D01*
X146431786Y-102419707D01*
X146320292Y-102308213D01*
X146320288Y-102308210D01*
X146189185Y-102220609D01*
X146189172Y-102220602D01*
X146043501Y-102160264D01*
X146043489Y-102160261D01*
X145888845Y-102129500D01*
X145888842Y-102129500D01*
X145731158Y-102129500D01*
X145731155Y-102129500D01*
X145576510Y-102160261D01*
X145576498Y-102160264D01*
X145430827Y-102220602D01*
X145430814Y-102220609D01*
X145299711Y-102308210D01*
X145299707Y-102308213D01*
X145188213Y-102419707D01*
X145188210Y-102419711D01*
X145100609Y-102550814D01*
X145100602Y-102550827D01*
X145040264Y-102696498D01*
X145040261Y-102696510D01*
X145009500Y-102851153D01*
X92825500Y-102851153D01*
X92825500Y-101551153D01*
X134179500Y-101551153D01*
X134179500Y-101708846D01*
X134210261Y-101863489D01*
X134210264Y-101863501D01*
X134270602Y-102009172D01*
X134270609Y-102009185D01*
X134358210Y-102140288D01*
X134358213Y-102140292D01*
X134469707Y-102251786D01*
X134469711Y-102251789D01*
X134600814Y-102339390D01*
X134600827Y-102339397D01*
X134746498Y-102399735D01*
X134746503Y-102399737D01*
X134901153Y-102430499D01*
X134901156Y-102430500D01*
X134901158Y-102430500D01*
X135058844Y-102430500D01*
X135058845Y-102430499D01*
X135213497Y-102399737D01*
X135359179Y-102339394D01*
X135490289Y-102251789D01*
X135601789Y-102140289D01*
X135689394Y-102009179D01*
X135749737Y-101863497D01*
X135780500Y-101708842D01*
X135780500Y-101551158D01*
X135780500Y-101551155D01*
X135780499Y-101551153D01*
X137369500Y-101551153D01*
X137369500Y-101708846D01*
X137400261Y-101863489D01*
X137400264Y-101863501D01*
X137460602Y-102009172D01*
X137460609Y-102009185D01*
X137548210Y-102140288D01*
X137548213Y-102140292D01*
X137659707Y-102251786D01*
X137659711Y-102251789D01*
X137790814Y-102339390D01*
X137790827Y-102339397D01*
X137936498Y-102399735D01*
X137936503Y-102399737D01*
X138091153Y-102430499D01*
X138091156Y-102430500D01*
X138091158Y-102430500D01*
X138248844Y-102430500D01*
X138248845Y-102430499D01*
X138403497Y-102399737D01*
X138549179Y-102339394D01*
X138680289Y-102251789D01*
X138791789Y-102140289D01*
X138800283Y-102127577D01*
X140150975Y-102127577D01*
X140256236Y-102171178D01*
X140256240Y-102171179D01*
X140401126Y-102199999D01*
X140401129Y-102200000D01*
X140548871Y-102200000D01*
X140548873Y-102199999D01*
X140693760Y-102171179D01*
X140693775Y-102171175D01*
X140799024Y-102127578D01*
X140799024Y-102127577D01*
X142150975Y-102127577D01*
X142256236Y-102171178D01*
X142256240Y-102171179D01*
X142401126Y-102199999D01*
X142401129Y-102200000D01*
X142548871Y-102200000D01*
X142548873Y-102199999D01*
X142693760Y-102171179D01*
X142693775Y-102171175D01*
X142799024Y-102127578D01*
X142799024Y-102127577D01*
X142475001Y-101803554D01*
X142475000Y-101803554D01*
X142150975Y-102127577D01*
X140799024Y-102127577D01*
X140475001Y-101803554D01*
X140475000Y-101803554D01*
X140150975Y-102127577D01*
X138800283Y-102127577D01*
X138879394Y-102009179D01*
X138939737Y-101863497D01*
X138970500Y-101708842D01*
X138970500Y-101551158D01*
X138970500Y-101551155D01*
X138939737Y-101396504D01*
X138939735Y-101396498D01*
X138931297Y-101376126D01*
X139725000Y-101376126D01*
X139725000Y-101523873D01*
X139753820Y-101668759D01*
X139753822Y-101668767D01*
X139797421Y-101774024D01*
X140121446Y-101450000D01*
X140121446Y-101449999D01*
X140091610Y-101420163D01*
X140325000Y-101420163D01*
X140325000Y-101479837D01*
X140347836Y-101534968D01*
X140390032Y-101577164D01*
X140445163Y-101600000D01*
X140504837Y-101600000D01*
X140559968Y-101577164D01*
X140602164Y-101534968D01*
X140625000Y-101479837D01*
X140625000Y-101449999D01*
X140828554Y-101449999D01*
X140828554Y-101450001D01*
X141152577Y-101774024D01*
X141152578Y-101774024D01*
X141196175Y-101668775D01*
X141196179Y-101668760D01*
X141224999Y-101523873D01*
X141225000Y-101523871D01*
X141225000Y-101376128D01*
X141224999Y-101376126D01*
X141725000Y-101376126D01*
X141725000Y-101523873D01*
X141753820Y-101668759D01*
X141753822Y-101668767D01*
X141797421Y-101774024D01*
X142121446Y-101450000D01*
X142121446Y-101449999D01*
X142091610Y-101420163D01*
X142325000Y-101420163D01*
X142325000Y-101479837D01*
X142347836Y-101534968D01*
X142390032Y-101577164D01*
X142445163Y-101600000D01*
X142504837Y-101600000D01*
X142559968Y-101577164D01*
X142602164Y-101534968D01*
X142625000Y-101479837D01*
X142625000Y-101449999D01*
X142828554Y-101449999D01*
X142828554Y-101450001D01*
X143152577Y-101774024D01*
X143152578Y-101774024D01*
X143196175Y-101668775D01*
X143196179Y-101668760D01*
X143224999Y-101523873D01*
X143225000Y-101523871D01*
X143225000Y-101496153D01*
X156024500Y-101496153D01*
X156024500Y-101653846D01*
X156055261Y-101808489D01*
X156055264Y-101808501D01*
X156115602Y-101954172D01*
X156115609Y-101954185D01*
X156203210Y-102085288D01*
X156203213Y-102085292D01*
X156314707Y-102196786D01*
X156314711Y-102196789D01*
X156445814Y-102284390D01*
X156445827Y-102284397D01*
X156578611Y-102339397D01*
X156591503Y-102344737D01*
X156746153Y-102375499D01*
X156746156Y-102375500D01*
X156746158Y-102375500D01*
X156903844Y-102375500D01*
X156903845Y-102375499D01*
X157058497Y-102344737D01*
X157204179Y-102284394D01*
X157335289Y-102196789D01*
X157446789Y-102085289D01*
X157534394Y-101954179D01*
X157594737Y-101808497D01*
X157625500Y-101653842D01*
X157625500Y-101496158D01*
X157625500Y-101496155D01*
X157625499Y-101496153D01*
X157594737Y-101341503D01*
X157549065Y-101231240D01*
X157534397Y-101195827D01*
X157534390Y-101195814D01*
X157446789Y-101064711D01*
X157446786Y-101064707D01*
X157335292Y-100953213D01*
X157335288Y-100953210D01*
X157204185Y-100865609D01*
X157204172Y-100865602D01*
X157058501Y-100805264D01*
X157058489Y-100805261D01*
X156903845Y-100774500D01*
X156903842Y-100774500D01*
X156746158Y-100774500D01*
X156746155Y-100774500D01*
X156591510Y-100805261D01*
X156591498Y-100805264D01*
X156445827Y-100865602D01*
X156445814Y-100865609D01*
X156314711Y-100953210D01*
X156314707Y-100953213D01*
X156203213Y-101064707D01*
X156203210Y-101064711D01*
X156115609Y-101195814D01*
X156115602Y-101195827D01*
X156055264Y-101341498D01*
X156055261Y-101341510D01*
X156024500Y-101496153D01*
X143225000Y-101496153D01*
X143225000Y-101376128D01*
X143224999Y-101376126D01*
X143196179Y-101231240D01*
X143196178Y-101231236D01*
X143152577Y-101125975D01*
X142828554Y-101449999D01*
X142625000Y-101449999D01*
X142625000Y-101420163D01*
X142602164Y-101365032D01*
X142559968Y-101322836D01*
X142504837Y-101300000D01*
X142445163Y-101300000D01*
X142390032Y-101322836D01*
X142347836Y-101365032D01*
X142325000Y-101420163D01*
X142091610Y-101420163D01*
X141797421Y-101125974D01*
X141797420Y-101125974D01*
X141753823Y-101231228D01*
X141753820Y-101231240D01*
X141725000Y-101376126D01*
X141224999Y-101376126D01*
X141196179Y-101231240D01*
X141196178Y-101231236D01*
X141152577Y-101125975D01*
X140828554Y-101449999D01*
X140625000Y-101449999D01*
X140625000Y-101420163D01*
X140602164Y-101365032D01*
X140559968Y-101322836D01*
X140504837Y-101300000D01*
X140445163Y-101300000D01*
X140390032Y-101322836D01*
X140347836Y-101365032D01*
X140325000Y-101420163D01*
X140091610Y-101420163D01*
X139797421Y-101125974D01*
X139797420Y-101125974D01*
X139753823Y-101231228D01*
X139753820Y-101231240D01*
X139725000Y-101376126D01*
X138931297Y-101376126D01*
X138879397Y-101250827D01*
X138879390Y-101250814D01*
X138791789Y-101119711D01*
X138791786Y-101119707D01*
X138680292Y-101008213D01*
X138680288Y-101008210D01*
X138549180Y-100920606D01*
X138549177Y-100920604D01*
X138403501Y-100860264D01*
X138403489Y-100860261D01*
X138248845Y-100829500D01*
X138248842Y-100829500D01*
X138091158Y-100829500D01*
X138091155Y-100829500D01*
X137936510Y-100860261D01*
X137936498Y-100860264D01*
X137790827Y-100920602D01*
X137790814Y-100920609D01*
X137659711Y-101008210D01*
X137659707Y-101008213D01*
X137548213Y-101119707D01*
X137548210Y-101119711D01*
X137460609Y-101250814D01*
X137460602Y-101250827D01*
X137400264Y-101396498D01*
X137400261Y-101396510D01*
X137369500Y-101551153D01*
X135780499Y-101551153D01*
X135749738Y-101396510D01*
X135749737Y-101396503D01*
X135749735Y-101396498D01*
X135689397Y-101250827D01*
X135689390Y-101250814D01*
X135601789Y-101119711D01*
X135601786Y-101119707D01*
X135490292Y-101008213D01*
X135490288Y-101008210D01*
X135359185Y-100920609D01*
X135359172Y-100920602D01*
X135213501Y-100860264D01*
X135213489Y-100860261D01*
X135058845Y-100829500D01*
X135058842Y-100829500D01*
X134901158Y-100829500D01*
X134901155Y-100829500D01*
X134746510Y-100860261D01*
X134746498Y-100860264D01*
X134600827Y-100920602D01*
X134600814Y-100920609D01*
X134469711Y-101008210D01*
X134469707Y-101008213D01*
X134358213Y-101119707D01*
X134358210Y-101119711D01*
X134270609Y-101250814D01*
X134270602Y-101250827D01*
X134210264Y-101396498D01*
X134210261Y-101396510D01*
X134179500Y-101551153D01*
X92825500Y-101551153D01*
X92825500Y-100772420D01*
X140150974Y-100772420D01*
X140150974Y-100772421D01*
X140475000Y-101096446D01*
X140475001Y-101096446D01*
X140799024Y-100772421D01*
X140799022Y-100772420D01*
X142150974Y-100772420D01*
X142150974Y-100772421D01*
X142475000Y-101096446D01*
X142475001Y-101096446D01*
X142799024Y-100772421D01*
X142693767Y-100728822D01*
X142693759Y-100728820D01*
X142548872Y-100700000D01*
X142401128Y-100700000D01*
X142256240Y-100728820D01*
X142256228Y-100728823D01*
X142150974Y-100772420D01*
X140799022Y-100772420D01*
X140693767Y-100728822D01*
X140693759Y-100728820D01*
X140548872Y-100700000D01*
X140401128Y-100700000D01*
X140256240Y-100728820D01*
X140256228Y-100728823D01*
X140150974Y-100772420D01*
X92825500Y-100772420D01*
X92825500Y-100127577D01*
X140150975Y-100127577D01*
X140256236Y-100171178D01*
X140256240Y-100171179D01*
X140401126Y-100199999D01*
X140401129Y-100200000D01*
X140548871Y-100200000D01*
X140548873Y-100199999D01*
X140693760Y-100171179D01*
X140693775Y-100171175D01*
X140799024Y-100127578D01*
X140799024Y-100127577D01*
X142150975Y-100127577D01*
X142256236Y-100171178D01*
X142256240Y-100171179D01*
X142401126Y-100199999D01*
X142401129Y-100200000D01*
X142548871Y-100200000D01*
X142548873Y-100199999D01*
X142693760Y-100171179D01*
X142693775Y-100171175D01*
X142799024Y-100127578D01*
X142799024Y-100127577D01*
X142475001Y-99803554D01*
X142475000Y-99803554D01*
X142150975Y-100127577D01*
X140799024Y-100127577D01*
X140475001Y-99803554D01*
X140475000Y-99803554D01*
X140150975Y-100127577D01*
X92825500Y-100127577D01*
X92825500Y-98631153D01*
X137399500Y-98631153D01*
X137399500Y-98788846D01*
X137430261Y-98943489D01*
X137430264Y-98943501D01*
X137490602Y-99089172D01*
X137490609Y-99089185D01*
X137578210Y-99220288D01*
X137578213Y-99220292D01*
X137689707Y-99331786D01*
X137689711Y-99331789D01*
X137820814Y-99419390D01*
X137820827Y-99419397D01*
X137894713Y-99450001D01*
X137966503Y-99479737D01*
X138121153Y-99510499D01*
X138121156Y-99510500D01*
X138121158Y-99510500D01*
X138278844Y-99510500D01*
X138278845Y-99510499D01*
X138433497Y-99479737D01*
X138546166Y-99433067D01*
X138579172Y-99419397D01*
X138579172Y-99419396D01*
X138579179Y-99419394D01*
X138643934Y-99376126D01*
X139725000Y-99376126D01*
X139725000Y-99523873D01*
X139753820Y-99668759D01*
X139753822Y-99668767D01*
X139797421Y-99774024D01*
X140121446Y-99450000D01*
X140121446Y-99449999D01*
X140091610Y-99420163D01*
X140325000Y-99420163D01*
X140325000Y-99479837D01*
X140347836Y-99534968D01*
X140390032Y-99577164D01*
X140445163Y-99600000D01*
X140504837Y-99600000D01*
X140559968Y-99577164D01*
X140602164Y-99534968D01*
X140625000Y-99479837D01*
X140625000Y-99449999D01*
X140828554Y-99449999D01*
X140828554Y-99450001D01*
X141152577Y-99774024D01*
X141152578Y-99774024D01*
X141196175Y-99668775D01*
X141196179Y-99668760D01*
X141224999Y-99523873D01*
X141225000Y-99523871D01*
X141225000Y-99376128D01*
X141224999Y-99376126D01*
X141725000Y-99376126D01*
X141725000Y-99523873D01*
X141753820Y-99668759D01*
X141753822Y-99668767D01*
X141797421Y-99774024D01*
X142121446Y-99450000D01*
X142121446Y-99449999D01*
X142091610Y-99420163D01*
X142325000Y-99420163D01*
X142325000Y-99479837D01*
X142347836Y-99534968D01*
X142390032Y-99577164D01*
X142445163Y-99600000D01*
X142504837Y-99600000D01*
X142559968Y-99577164D01*
X142602164Y-99534968D01*
X142625000Y-99479837D01*
X142625000Y-99449999D01*
X142828554Y-99449999D01*
X142828554Y-99450001D01*
X143152577Y-99774024D01*
X143152578Y-99774024D01*
X143196175Y-99668775D01*
X143196179Y-99668760D01*
X143224999Y-99523873D01*
X143225000Y-99523871D01*
X143225000Y-99376128D01*
X143224999Y-99376126D01*
X143196179Y-99231240D01*
X143196178Y-99231236D01*
X143152577Y-99125975D01*
X142828554Y-99449999D01*
X142625000Y-99449999D01*
X142625000Y-99420163D01*
X142602164Y-99365032D01*
X142559968Y-99322836D01*
X142504837Y-99300000D01*
X142445163Y-99300000D01*
X142390032Y-99322836D01*
X142347836Y-99365032D01*
X142325000Y-99420163D01*
X142091610Y-99420163D01*
X141797421Y-99125974D01*
X141797420Y-99125974D01*
X141753823Y-99231228D01*
X141753820Y-99231240D01*
X141725000Y-99376126D01*
X141224999Y-99376126D01*
X141196179Y-99231240D01*
X141196178Y-99231236D01*
X141152577Y-99125975D01*
X140828554Y-99449999D01*
X140625000Y-99449999D01*
X140625000Y-99420163D01*
X140602164Y-99365032D01*
X140559968Y-99322836D01*
X140504837Y-99300000D01*
X140445163Y-99300000D01*
X140390032Y-99322836D01*
X140347836Y-99365032D01*
X140325000Y-99420163D01*
X140091610Y-99420163D01*
X139797421Y-99125974D01*
X139797420Y-99125974D01*
X139753823Y-99231228D01*
X139753820Y-99231240D01*
X139725000Y-99376126D01*
X138643934Y-99376126D01*
X138710289Y-99331789D01*
X138719242Y-99322836D01*
X138759721Y-99282358D01*
X138821786Y-99220292D01*
X138821789Y-99220289D01*
X138909394Y-99089179D01*
X138969737Y-98943497D01*
X139000500Y-98788842D01*
X139000500Y-98772420D01*
X140150974Y-98772420D01*
X140150974Y-98772421D01*
X140475000Y-99096446D01*
X140475001Y-99096446D01*
X140799024Y-98772421D01*
X140799022Y-98772420D01*
X142150974Y-98772420D01*
X142150974Y-98772421D01*
X142475000Y-99096446D01*
X142475001Y-99096446D01*
X142750292Y-98821153D01*
X176649500Y-98821153D01*
X176649500Y-98978846D01*
X176680261Y-99133489D01*
X176680264Y-99133501D01*
X176739930Y-99277548D01*
X176747399Y-99347017D01*
X176739930Y-99372452D01*
X176680264Y-99516498D01*
X176680261Y-99516510D01*
X176649500Y-99671153D01*
X176649500Y-99828846D01*
X176680261Y-99983489D01*
X176680264Y-99983501D01*
X176740602Y-100129172D01*
X176740609Y-100129185D01*
X176828210Y-100260288D01*
X176828213Y-100260292D01*
X176939707Y-100371786D01*
X176939711Y-100371789D01*
X177070814Y-100459390D01*
X177070827Y-100459397D01*
X177216498Y-100519735D01*
X177216503Y-100519737D01*
X177371153Y-100550499D01*
X177371156Y-100550500D01*
X177371158Y-100550500D01*
X177528844Y-100550500D01*
X177528845Y-100550499D01*
X177683497Y-100519737D01*
X177829179Y-100459394D01*
X177960289Y-100371789D01*
X178071789Y-100260289D01*
X178159394Y-100129179D01*
X178219737Y-99983497D01*
X178250500Y-99828842D01*
X178250500Y-99671158D01*
X178250500Y-99671155D01*
X178250499Y-99671153D01*
X178221203Y-99523873D01*
X178219737Y-99516503D01*
X178219735Y-99516498D01*
X178160070Y-99372452D01*
X178152601Y-99302983D01*
X178160070Y-99277548D01*
X178219735Y-99133501D01*
X178219737Y-99133497D01*
X178250500Y-98978842D01*
X178250500Y-98821158D01*
X178250500Y-98821155D01*
X178250499Y-98821153D01*
X178244072Y-98788842D01*
X178219737Y-98666503D01*
X178205097Y-98631158D01*
X178159397Y-98520827D01*
X178159390Y-98520814D01*
X178071789Y-98389711D01*
X178071786Y-98389707D01*
X177960292Y-98278213D01*
X177960288Y-98278210D01*
X177829185Y-98190609D01*
X177829172Y-98190602D01*
X177683501Y-98130264D01*
X177683489Y-98130261D01*
X177528845Y-98099500D01*
X177528842Y-98099500D01*
X177371158Y-98099500D01*
X177371155Y-98099500D01*
X177216510Y-98130261D01*
X177216498Y-98130264D01*
X177070827Y-98190602D01*
X177070814Y-98190609D01*
X176939711Y-98278210D01*
X176939707Y-98278213D01*
X176828213Y-98389707D01*
X176828210Y-98389711D01*
X176740609Y-98520814D01*
X176740602Y-98520827D01*
X176680264Y-98666498D01*
X176680261Y-98666510D01*
X176649500Y-98821153D01*
X142750292Y-98821153D01*
X142799024Y-98772421D01*
X142693767Y-98728822D01*
X142693759Y-98728820D01*
X142548872Y-98700000D01*
X142401128Y-98700000D01*
X142256240Y-98728820D01*
X142256228Y-98728823D01*
X142150974Y-98772420D01*
X140799022Y-98772420D01*
X140693767Y-98728822D01*
X140693759Y-98728820D01*
X140548872Y-98700000D01*
X140401128Y-98700000D01*
X140256240Y-98728820D01*
X140256228Y-98728823D01*
X140150974Y-98772420D01*
X139000500Y-98772420D01*
X139000500Y-98631158D01*
X139000500Y-98631155D01*
X139000499Y-98631153D01*
X138969737Y-98476503D01*
X138969732Y-98476492D01*
X138967969Y-98470676D01*
X138970002Y-98470059D01*
X138963557Y-98410165D01*
X138994825Y-98347682D01*
X139038135Y-98317607D01*
X139094179Y-98294394D01*
X139225289Y-98206789D01*
X139336789Y-98095289D01*
X139424394Y-97964179D01*
X139484737Y-97818497D01*
X139515500Y-97663842D01*
X139515500Y-97506158D01*
X139515500Y-97506155D01*
X139515499Y-97506153D01*
X139507166Y-97464257D01*
X139503565Y-97446153D01*
X143624500Y-97446153D01*
X143624500Y-97603846D01*
X143655261Y-97758489D01*
X143655264Y-97758501D01*
X143715602Y-97904172D01*
X143715609Y-97904185D01*
X143803210Y-98035288D01*
X143803213Y-98035292D01*
X143914707Y-98146786D01*
X143914711Y-98146789D01*
X144045814Y-98234390D01*
X144045827Y-98234397D01*
X144151603Y-98278210D01*
X144191503Y-98294737D01*
X144346153Y-98325499D01*
X144346156Y-98325500D01*
X144346158Y-98325500D01*
X144503844Y-98325500D01*
X144503845Y-98325499D01*
X144658497Y-98294737D01*
X144804179Y-98234394D01*
X144935289Y-98146789D01*
X145046789Y-98035289D01*
X145134394Y-97904179D01*
X145194737Y-97758497D01*
X145225500Y-97603842D01*
X145225500Y-97547621D01*
X145245185Y-97480582D01*
X145297989Y-97434827D01*
X145365065Y-97425182D01*
X145365093Y-97424903D01*
X145366229Y-97425014D01*
X145367147Y-97424883D01*
X145370200Y-97425405D01*
X145371156Y-97425500D01*
X145371158Y-97425500D01*
X145528844Y-97425500D01*
X145528845Y-97425499D01*
X145683497Y-97394737D01*
X145829179Y-97334394D01*
X145960289Y-97246789D01*
X146071789Y-97135289D01*
X146159394Y-97004179D01*
X146219737Y-96858497D01*
X146250500Y-96703842D01*
X146250500Y-96546158D01*
X146250500Y-96546155D01*
X146250499Y-96546153D01*
X146222192Y-96403846D01*
X146219737Y-96391503D01*
X146190597Y-96321153D01*
X163249500Y-96321153D01*
X163249500Y-96478846D01*
X163280261Y-96633489D01*
X163280264Y-96633501D01*
X163340602Y-96779172D01*
X163340609Y-96779185D01*
X163428210Y-96910288D01*
X163428213Y-96910292D01*
X163539707Y-97021786D01*
X163539711Y-97021789D01*
X163670814Y-97109390D01*
X163670827Y-97109397D01*
X163816498Y-97169735D01*
X163816503Y-97169737D01*
X163971153Y-97200499D01*
X163971156Y-97200500D01*
X163971158Y-97200500D01*
X164128844Y-97200500D01*
X164128845Y-97200499D01*
X164283497Y-97169737D01*
X164429179Y-97109394D01*
X164560289Y-97021789D01*
X164671789Y-96910289D01*
X164759394Y-96779179D01*
X164819737Y-96633497D01*
X164850500Y-96478842D01*
X164850500Y-96321158D01*
X164850500Y-96321155D01*
X164839182Y-96264258D01*
X164839182Y-96264257D01*
X164835581Y-96246153D01*
X172749500Y-96246153D01*
X172749500Y-96403846D01*
X172780261Y-96558489D01*
X172780264Y-96558501D01*
X172840602Y-96704172D01*
X172840609Y-96704185D01*
X172928210Y-96835288D01*
X172928213Y-96835292D01*
X173039707Y-96946786D01*
X173039711Y-96946789D01*
X173170814Y-97034390D01*
X173170827Y-97034397D01*
X173316498Y-97094735D01*
X173316503Y-97094737D01*
X173471153Y-97125499D01*
X173471156Y-97125500D01*
X173471158Y-97125500D01*
X173628844Y-97125500D01*
X173628845Y-97125499D01*
X173783497Y-97094737D01*
X173929179Y-97034394D01*
X174060289Y-96946789D01*
X174171789Y-96835289D01*
X174259394Y-96704179D01*
X174319737Y-96558497D01*
X174350500Y-96403842D01*
X174350500Y-96246158D01*
X174350500Y-96246155D01*
X174350499Y-96246153D01*
X174334657Y-96166510D01*
X174319737Y-96091503D01*
X174290858Y-96021782D01*
X174259397Y-95945827D01*
X174259390Y-95945814D01*
X174171789Y-95814711D01*
X174171786Y-95814707D01*
X174060292Y-95703213D01*
X174060288Y-95703210D01*
X173929185Y-95615609D01*
X173929172Y-95615602D01*
X173783501Y-95555264D01*
X173783489Y-95555261D01*
X173628845Y-95524500D01*
X173628842Y-95524500D01*
X173471158Y-95524500D01*
X173471155Y-95524500D01*
X173316510Y-95555261D01*
X173316498Y-95555264D01*
X173170827Y-95615602D01*
X173170814Y-95615609D01*
X173039711Y-95703210D01*
X173039707Y-95703213D01*
X172928213Y-95814707D01*
X172928210Y-95814711D01*
X172840609Y-95945814D01*
X172840602Y-95945827D01*
X172780264Y-96091498D01*
X172780261Y-96091510D01*
X172749500Y-96246153D01*
X164835581Y-96246153D01*
X164819738Y-96166510D01*
X164819737Y-96166503D01*
X164805357Y-96131786D01*
X164759397Y-96020827D01*
X164759390Y-96020814D01*
X164671789Y-95889711D01*
X164671786Y-95889707D01*
X164560292Y-95778213D01*
X164560288Y-95778210D01*
X164429185Y-95690609D01*
X164429172Y-95690602D01*
X164283501Y-95630264D01*
X164283489Y-95630261D01*
X164128845Y-95599500D01*
X164128842Y-95599500D01*
X163971158Y-95599500D01*
X163971155Y-95599500D01*
X163816510Y-95630261D01*
X163816498Y-95630264D01*
X163670827Y-95690602D01*
X163670814Y-95690609D01*
X163539711Y-95778210D01*
X163539707Y-95778213D01*
X163428213Y-95889707D01*
X163428210Y-95889711D01*
X163340609Y-96020814D01*
X163340602Y-96020827D01*
X163280264Y-96166498D01*
X163280261Y-96166510D01*
X163249500Y-96321153D01*
X146190597Y-96321153D01*
X146173443Y-96279738D01*
X146159397Y-96245827D01*
X146159390Y-96245814D01*
X146071789Y-96114711D01*
X146071786Y-96114707D01*
X145960292Y-96003213D01*
X145960288Y-96003210D01*
X145829185Y-95915609D01*
X145829172Y-95915602D01*
X145683501Y-95855264D01*
X145683491Y-95855261D01*
X145607779Y-95840201D01*
X145545868Y-95807816D01*
X145511294Y-95747100D01*
X145515035Y-95677330D01*
X145528869Y-95649693D01*
X145609390Y-95529185D01*
X145609390Y-95529184D01*
X145609394Y-95529179D01*
X145669737Y-95383497D01*
X145700500Y-95228842D01*
X145700500Y-95071158D01*
X145700500Y-95071155D01*
X145694155Y-95039258D01*
X145694155Y-95039257D01*
X145690554Y-95021153D01*
X154174500Y-95021153D01*
X154174500Y-95178846D01*
X154205261Y-95333489D01*
X154205264Y-95333501D01*
X154265602Y-95479172D01*
X154265609Y-95479185D01*
X154353210Y-95610288D01*
X154353213Y-95610292D01*
X154464707Y-95721786D01*
X154464711Y-95721789D01*
X154595814Y-95809390D01*
X154595827Y-95809397D01*
X154741498Y-95869735D01*
X154741503Y-95869737D01*
X154896153Y-95900499D01*
X154896156Y-95900500D01*
X154896158Y-95900500D01*
X155053844Y-95900500D01*
X155053845Y-95900499D01*
X155208497Y-95869737D01*
X155354179Y-95809394D01*
X155485289Y-95721789D01*
X155596789Y-95610289D01*
X155684394Y-95479179D01*
X155744737Y-95333497D01*
X155775500Y-95178842D01*
X155775500Y-95071153D01*
X165799500Y-95071153D01*
X165799500Y-95228846D01*
X165830261Y-95383489D01*
X165830264Y-95383501D01*
X165890602Y-95529172D01*
X165890609Y-95529185D01*
X165978210Y-95660288D01*
X165978213Y-95660292D01*
X166089707Y-95771786D01*
X166089711Y-95771789D01*
X166220814Y-95859390D01*
X166220827Y-95859397D01*
X166320060Y-95900500D01*
X166366503Y-95919737D01*
X166521153Y-95950499D01*
X166521156Y-95950500D01*
X166521158Y-95950500D01*
X166678844Y-95950500D01*
X166678845Y-95950499D01*
X166833497Y-95919737D01*
X166979179Y-95859394D01*
X167110289Y-95771789D01*
X167221789Y-95660289D01*
X167309394Y-95529179D01*
X167369737Y-95383497D01*
X167400500Y-95228842D01*
X167400500Y-95071158D01*
X167400500Y-95071155D01*
X167400499Y-95071153D01*
X176224500Y-95071153D01*
X176224500Y-95228846D01*
X176255261Y-95383489D01*
X176255264Y-95383501D01*
X176315602Y-95529172D01*
X176315609Y-95529185D01*
X176406595Y-95665354D01*
X176405187Y-95666294D01*
X176429331Y-95723152D01*
X176417536Y-95792019D01*
X176406324Y-95809464D01*
X176406595Y-95809646D01*
X176315609Y-95945814D01*
X176315602Y-95945827D01*
X176255264Y-96091498D01*
X176255261Y-96091510D01*
X176224500Y-96246153D01*
X176224500Y-96403846D01*
X176255261Y-96558489D01*
X176255264Y-96558501D01*
X176315602Y-96704172D01*
X176315609Y-96704185D01*
X176403210Y-96835288D01*
X176403213Y-96835292D01*
X176514707Y-96946786D01*
X176514711Y-96946789D01*
X176645814Y-97034390D01*
X176645827Y-97034397D01*
X176791498Y-97094735D01*
X176791503Y-97094737D01*
X176946153Y-97125499D01*
X176946156Y-97125500D01*
X176946158Y-97125500D01*
X177103844Y-97125500D01*
X177103845Y-97125499D01*
X177258497Y-97094737D01*
X177404179Y-97034394D01*
X177535289Y-96946789D01*
X177646789Y-96835289D01*
X177734394Y-96704179D01*
X177794737Y-96558497D01*
X177810581Y-96478844D01*
X177825332Y-96404690D01*
X177825332Y-96404689D01*
X177825500Y-96403844D01*
X177825500Y-96246155D01*
X177825499Y-96246153D01*
X177809657Y-96166510D01*
X177794737Y-96091503D01*
X177765858Y-96021782D01*
X177734397Y-95945827D01*
X177734390Y-95945814D01*
X177643405Y-95809646D01*
X177644816Y-95808702D01*
X177620671Y-95751870D01*
X177632453Y-95683001D01*
X177643677Y-95665536D01*
X177643405Y-95665354D01*
X177734390Y-95529185D01*
X177734390Y-95529184D01*
X177734394Y-95529179D01*
X177794737Y-95383497D01*
X177825500Y-95228842D01*
X177825500Y-95071158D01*
X177825500Y-95071155D01*
X177825499Y-95071153D01*
X177794738Y-94916510D01*
X177794737Y-94916503D01*
X177779531Y-94879792D01*
X177734397Y-94770827D01*
X177734390Y-94770814D01*
X177646789Y-94639711D01*
X177646786Y-94639707D01*
X177535292Y-94528213D01*
X177535288Y-94528210D01*
X177404185Y-94440609D01*
X177404172Y-94440602D01*
X177258501Y-94380264D01*
X177258489Y-94380261D01*
X177103845Y-94349500D01*
X177103842Y-94349500D01*
X176946158Y-94349500D01*
X176946155Y-94349500D01*
X176791510Y-94380261D01*
X176791498Y-94380264D01*
X176645827Y-94440602D01*
X176645814Y-94440609D01*
X176514711Y-94528210D01*
X176514707Y-94528213D01*
X176403213Y-94639707D01*
X176403210Y-94639711D01*
X176315609Y-94770814D01*
X176315602Y-94770827D01*
X176255264Y-94916498D01*
X176255261Y-94916510D01*
X176224500Y-95071153D01*
X167400499Y-95071153D01*
X167369738Y-94916510D01*
X167369737Y-94916503D01*
X167354531Y-94879792D01*
X167309397Y-94770827D01*
X167309390Y-94770814D01*
X167221789Y-94639711D01*
X167221786Y-94639707D01*
X167110292Y-94528213D01*
X167110288Y-94528210D01*
X166979185Y-94440609D01*
X166979172Y-94440602D01*
X166833501Y-94380264D01*
X166833489Y-94380261D01*
X166678845Y-94349500D01*
X166678842Y-94349500D01*
X166521158Y-94349500D01*
X166521155Y-94349500D01*
X166366510Y-94380261D01*
X166366498Y-94380264D01*
X166220827Y-94440602D01*
X166220814Y-94440609D01*
X166089711Y-94528210D01*
X166089707Y-94528213D01*
X165978213Y-94639707D01*
X165978210Y-94639711D01*
X165890609Y-94770814D01*
X165890602Y-94770827D01*
X165830264Y-94916498D01*
X165830261Y-94916510D01*
X165799500Y-95071153D01*
X155775500Y-95071153D01*
X155775500Y-95021158D01*
X155775500Y-95021155D01*
X155775499Y-95021153D01*
X155754684Y-94916510D01*
X155744737Y-94866503D01*
X155733650Y-94839737D01*
X155684397Y-94720827D01*
X155684390Y-94720814D01*
X155596789Y-94589711D01*
X155596786Y-94589707D01*
X155485292Y-94478213D01*
X155485288Y-94478210D01*
X155354185Y-94390609D01*
X155354172Y-94390602D01*
X155208501Y-94330264D01*
X155208489Y-94330261D01*
X155053845Y-94299500D01*
X155053842Y-94299500D01*
X154896158Y-94299500D01*
X154896155Y-94299500D01*
X154741510Y-94330261D01*
X154741498Y-94330264D01*
X154595827Y-94390602D01*
X154595814Y-94390609D01*
X154464711Y-94478210D01*
X154464707Y-94478213D01*
X154353213Y-94589707D01*
X154353210Y-94589711D01*
X154265609Y-94720814D01*
X154265602Y-94720827D01*
X154205264Y-94866498D01*
X154205261Y-94866510D01*
X154174500Y-95021153D01*
X145690554Y-95021153D01*
X145669738Y-94916510D01*
X145669737Y-94916503D01*
X145654531Y-94879792D01*
X145609397Y-94770827D01*
X145609390Y-94770814D01*
X145521789Y-94639711D01*
X145521786Y-94639707D01*
X145410292Y-94528213D01*
X145410288Y-94528210D01*
X145279185Y-94440609D01*
X145279172Y-94440602D01*
X145133501Y-94380264D01*
X145133489Y-94380261D01*
X144978845Y-94349500D01*
X144978842Y-94349500D01*
X144821158Y-94349500D01*
X144821155Y-94349500D01*
X144666510Y-94380261D01*
X144666498Y-94380264D01*
X144520827Y-94440602D01*
X144520814Y-94440609D01*
X144389711Y-94528210D01*
X144389707Y-94528213D01*
X144278213Y-94639707D01*
X144278210Y-94639711D01*
X144190609Y-94770814D01*
X144190602Y-94770827D01*
X144130264Y-94916498D01*
X144130261Y-94916510D01*
X144099500Y-95071153D01*
X144099500Y-95228846D01*
X144130261Y-95383489D01*
X144130264Y-95383501D01*
X144190602Y-95529172D01*
X144190609Y-95529185D01*
X144278210Y-95660288D01*
X144278213Y-95660292D01*
X144389707Y-95771786D01*
X144389711Y-95771789D01*
X144520814Y-95859390D01*
X144520827Y-95859397D01*
X144620060Y-95900500D01*
X144666503Y-95919737D01*
X144733746Y-95933112D01*
X144742219Y-95934798D01*
X144804130Y-95967182D01*
X144838704Y-96027898D01*
X144834965Y-96097667D01*
X144821131Y-96125305D01*
X144740608Y-96245816D01*
X144740602Y-96245827D01*
X144680264Y-96391498D01*
X144680261Y-96391510D01*
X144649500Y-96546153D01*
X144649500Y-96602378D01*
X144629815Y-96669417D01*
X144577011Y-96715172D01*
X144509934Y-96724816D01*
X144509907Y-96725097D01*
X144508766Y-96724984D01*
X144507853Y-96725116D01*
X144504812Y-96724595D01*
X144503845Y-96724500D01*
X144503842Y-96724500D01*
X144346158Y-96724500D01*
X144346155Y-96724500D01*
X144191510Y-96755261D01*
X144191498Y-96755264D01*
X144045827Y-96815602D01*
X144045814Y-96815609D01*
X143914711Y-96903210D01*
X143914707Y-96903213D01*
X143803213Y-97014707D01*
X143803210Y-97014711D01*
X143715609Y-97145814D01*
X143715602Y-97145827D01*
X143655264Y-97291498D01*
X143655261Y-97291510D01*
X143624500Y-97446153D01*
X139503565Y-97446153D01*
X139484738Y-97351508D01*
X139484737Y-97351507D01*
X139484737Y-97351503D01*
X139464115Y-97301716D01*
X139424397Y-97205827D01*
X139424390Y-97205814D01*
X139336789Y-97074711D01*
X139336786Y-97074707D01*
X139225292Y-96963213D01*
X139225288Y-96963210D01*
X139094185Y-96875609D01*
X139094172Y-96875602D01*
X138948501Y-96815264D01*
X138948489Y-96815261D01*
X138793845Y-96784500D01*
X138793842Y-96784500D01*
X138636158Y-96784500D01*
X138636155Y-96784500D01*
X138481510Y-96815261D01*
X138481498Y-96815264D01*
X138335827Y-96875602D01*
X138335814Y-96875609D01*
X138204711Y-96963210D01*
X138204707Y-96963213D01*
X138093213Y-97074707D01*
X138093210Y-97074711D01*
X138005609Y-97205814D01*
X138005602Y-97205827D01*
X137945264Y-97351498D01*
X137945261Y-97351510D01*
X137914500Y-97506153D01*
X137914500Y-97663846D01*
X137945260Y-97818488D01*
X137947030Y-97824320D01*
X137945004Y-97824934D01*
X137951435Y-97884876D01*
X137920145Y-97947348D01*
X137876863Y-97977392D01*
X137820824Y-98000604D01*
X137820814Y-98000609D01*
X137689711Y-98088210D01*
X137689707Y-98088213D01*
X137578213Y-98199707D01*
X137578210Y-98199711D01*
X137490609Y-98330814D01*
X137490602Y-98330827D01*
X137430264Y-98476498D01*
X137430261Y-98476510D01*
X137399500Y-98631153D01*
X92825500Y-98631153D01*
X92825500Y-95431153D01*
X121309500Y-95431153D01*
X121309500Y-95588846D01*
X121340261Y-95743489D01*
X121340264Y-95743501D01*
X121400602Y-95889172D01*
X121400609Y-95889185D01*
X121488210Y-96020288D01*
X121488213Y-96020292D01*
X121599707Y-96131786D01*
X121599711Y-96131789D01*
X121730814Y-96219390D01*
X121730827Y-96219397D01*
X121839133Y-96264258D01*
X121876503Y-96279737D01*
X122031153Y-96310499D01*
X122031156Y-96310500D01*
X122031158Y-96310500D01*
X122188844Y-96310500D01*
X122188845Y-96310499D01*
X122343497Y-96279737D01*
X122489179Y-96219394D01*
X122620289Y-96131789D01*
X122731789Y-96020289D01*
X122819394Y-95889179D01*
X122879737Y-95743497D01*
X122910500Y-95588842D01*
X122910500Y-95431158D01*
X122910500Y-95431155D01*
X122910499Y-95431153D01*
X122901393Y-95385373D01*
X122879737Y-95276503D01*
X122859996Y-95228844D01*
X122819397Y-95130827D01*
X122819390Y-95130814D01*
X122731789Y-94999711D01*
X122731786Y-94999707D01*
X122620292Y-94888213D01*
X122620288Y-94888210D01*
X122489185Y-94800609D01*
X122489172Y-94800602D01*
X122343501Y-94740264D01*
X122343491Y-94740261D01*
X122233487Y-94718380D01*
X122233486Y-94718379D01*
X122188845Y-94709500D01*
X122188842Y-94709500D01*
X122031158Y-94709500D01*
X122031155Y-94709500D01*
X121876510Y-94740261D01*
X121876498Y-94740264D01*
X121730827Y-94800602D01*
X121730814Y-94800609D01*
X121599711Y-94888210D01*
X121599707Y-94888213D01*
X121488213Y-94999707D01*
X121488210Y-94999711D01*
X121400609Y-95130814D01*
X121400602Y-95130827D01*
X121340264Y-95276498D01*
X121340261Y-95276510D01*
X121309500Y-95431153D01*
X92825500Y-95431153D01*
X92825500Y-94637577D01*
X123605975Y-94637577D01*
X123711236Y-94681178D01*
X123711240Y-94681179D01*
X123856126Y-94709999D01*
X123856129Y-94710000D01*
X124003871Y-94710000D01*
X124003873Y-94709999D01*
X124148760Y-94681179D01*
X124148775Y-94681175D01*
X124254024Y-94637578D01*
X124254024Y-94637577D01*
X123930001Y-94313554D01*
X123930000Y-94313554D01*
X123605975Y-94637577D01*
X92825500Y-94637577D01*
X92825500Y-93886126D01*
X123180000Y-93886126D01*
X123180000Y-94033873D01*
X123208820Y-94178759D01*
X123208822Y-94178767D01*
X123252421Y-94284024D01*
X123576446Y-93960000D01*
X123576446Y-93959999D01*
X123546610Y-93930163D01*
X123780000Y-93930163D01*
X123780000Y-93989837D01*
X123802836Y-94044968D01*
X123845032Y-94087164D01*
X123900163Y-94110000D01*
X123959837Y-94110000D01*
X124014968Y-94087164D01*
X124057164Y-94044968D01*
X124080000Y-93989837D01*
X124080000Y-93959999D01*
X124283554Y-93959999D01*
X124283554Y-93960001D01*
X124607577Y-94284024D01*
X124607578Y-94284024D01*
X124651175Y-94178775D01*
X124651179Y-94178760D01*
X124679999Y-94033873D01*
X124680000Y-94033871D01*
X124680000Y-93991153D01*
X125299500Y-93991153D01*
X125299500Y-94148846D01*
X125330261Y-94303489D01*
X125330264Y-94303501D01*
X125390602Y-94449172D01*
X125390609Y-94449185D01*
X125478210Y-94580288D01*
X125478213Y-94580292D01*
X125589707Y-94691786D01*
X125589711Y-94691789D01*
X125720814Y-94779390D01*
X125720827Y-94779397D01*
X125866498Y-94839735D01*
X125866503Y-94839737D01*
X126001039Y-94866498D01*
X126021153Y-94870499D01*
X126021156Y-94870500D01*
X126021158Y-94870500D01*
X126178844Y-94870500D01*
X126178845Y-94870499D01*
X126333497Y-94839737D01*
X126479179Y-94779394D01*
X126610289Y-94691789D01*
X126721789Y-94580289D01*
X126809394Y-94449179D01*
X126869737Y-94303497D01*
X126900500Y-94148842D01*
X126900500Y-93991158D01*
X126900500Y-93991155D01*
X126900499Y-93991153D01*
X126881603Y-93896158D01*
X126869737Y-93836503D01*
X126830278Y-93741240D01*
X126809397Y-93690827D01*
X126809390Y-93690814D01*
X126721789Y-93559711D01*
X126721786Y-93559707D01*
X126610292Y-93448213D01*
X126610288Y-93448210D01*
X126479185Y-93360609D01*
X126479172Y-93360602D01*
X126333501Y-93300264D01*
X126333489Y-93300261D01*
X126178845Y-93269500D01*
X126178842Y-93269500D01*
X126021158Y-93269500D01*
X126021155Y-93269500D01*
X125866510Y-93300261D01*
X125866498Y-93300264D01*
X125720827Y-93360602D01*
X125720814Y-93360609D01*
X125589711Y-93448210D01*
X125589707Y-93448213D01*
X125478213Y-93559707D01*
X125478210Y-93559711D01*
X125390609Y-93690814D01*
X125390602Y-93690827D01*
X125330264Y-93836498D01*
X125330261Y-93836510D01*
X125299500Y-93991153D01*
X124680000Y-93991153D01*
X124680000Y-93886128D01*
X124679999Y-93886126D01*
X124651179Y-93741240D01*
X124651178Y-93741236D01*
X124607577Y-93635975D01*
X124283554Y-93959999D01*
X124080000Y-93959999D01*
X124080000Y-93930163D01*
X124057164Y-93875032D01*
X124014968Y-93832836D01*
X123959837Y-93810000D01*
X123900163Y-93810000D01*
X123845032Y-93832836D01*
X123802836Y-93875032D01*
X123780000Y-93930163D01*
X123546610Y-93930163D01*
X123252421Y-93635974D01*
X123252420Y-93635974D01*
X123208823Y-93741228D01*
X123208820Y-93741240D01*
X123180000Y-93886126D01*
X92825500Y-93886126D01*
X92825500Y-93410000D01*
X123733554Y-93410000D01*
X123930000Y-93606446D01*
X124126446Y-93410000D01*
X123930000Y-93213554D01*
X123733554Y-93410000D01*
X92825500Y-93410000D01*
X92825500Y-92786126D01*
X123180000Y-92786126D01*
X123180000Y-92933873D01*
X123208820Y-93078759D01*
X123208822Y-93078767D01*
X123252421Y-93184024D01*
X123576446Y-92860000D01*
X123576446Y-92859999D01*
X123546610Y-92830163D01*
X123780000Y-92830163D01*
X123780000Y-92889837D01*
X123802836Y-92944968D01*
X123845032Y-92987164D01*
X123900163Y-93010000D01*
X123959837Y-93010000D01*
X124014968Y-92987164D01*
X124057164Y-92944968D01*
X124080000Y-92889837D01*
X124080000Y-92859999D01*
X124283554Y-92859999D01*
X124283554Y-92860001D01*
X124607577Y-93184024D01*
X124607578Y-93184024D01*
X124641905Y-93101153D01*
X157749500Y-93101153D01*
X157749500Y-93258846D01*
X157780261Y-93413489D01*
X157780264Y-93413501D01*
X157840602Y-93559172D01*
X157840609Y-93559185D01*
X157928210Y-93690288D01*
X157928213Y-93690292D01*
X158039707Y-93801786D01*
X158039711Y-93801789D01*
X158170814Y-93889390D01*
X158170827Y-93889397D01*
X158316498Y-93949735D01*
X158316503Y-93949737D01*
X158464482Y-93979172D01*
X158471153Y-93980499D01*
X158471156Y-93980500D01*
X158471158Y-93980500D01*
X158628844Y-93980500D01*
X158628845Y-93980499D01*
X158783497Y-93949737D01*
X158912849Y-93896158D01*
X158912861Y-93896153D01*
X173149500Y-93896153D01*
X173149500Y-94053846D01*
X173180261Y-94208489D01*
X173180264Y-94208501D01*
X173240602Y-94354172D01*
X173240609Y-94354185D01*
X173328210Y-94485288D01*
X173328213Y-94485292D01*
X173439707Y-94596786D01*
X173439711Y-94596789D01*
X173570814Y-94684390D01*
X173570827Y-94684397D01*
X173705704Y-94740264D01*
X173716503Y-94744737D01*
X173871153Y-94775499D01*
X173871156Y-94775500D01*
X173871158Y-94775500D01*
X174028844Y-94775500D01*
X174028845Y-94775499D01*
X174183497Y-94744737D01*
X174329179Y-94684394D01*
X174460289Y-94596789D01*
X174571789Y-94485289D01*
X174659394Y-94354179D01*
X174719737Y-94208497D01*
X174750500Y-94053842D01*
X174750500Y-93896158D01*
X174750500Y-93896155D01*
X174750499Y-93896153D01*
X181424500Y-93896153D01*
X181424500Y-94053846D01*
X181455261Y-94208489D01*
X181455264Y-94208501D01*
X181515602Y-94354172D01*
X181515609Y-94354185D01*
X181603210Y-94485288D01*
X181603213Y-94485292D01*
X181714707Y-94596786D01*
X181714711Y-94596789D01*
X181845814Y-94684390D01*
X181845827Y-94684397D01*
X181980704Y-94740264D01*
X181991503Y-94744737D01*
X182146153Y-94775499D01*
X182146156Y-94775500D01*
X182146158Y-94775500D01*
X182303844Y-94775500D01*
X182303845Y-94775499D01*
X182458497Y-94744737D01*
X182604179Y-94684394D01*
X182735289Y-94596789D01*
X182846789Y-94485289D01*
X182934394Y-94354179D01*
X182994737Y-94208497D01*
X183025500Y-94053842D01*
X183025500Y-93896158D01*
X183025500Y-93896155D01*
X183025499Y-93896153D01*
X183008362Y-93810000D01*
X182994737Y-93741503D01*
X182994623Y-93741228D01*
X182934397Y-93595827D01*
X182934390Y-93595814D01*
X182846789Y-93464711D01*
X182846786Y-93464707D01*
X182735292Y-93353213D01*
X182735288Y-93353210D01*
X182604185Y-93265609D01*
X182604172Y-93265602D01*
X182458501Y-93205264D01*
X182458489Y-93205261D01*
X182303845Y-93174500D01*
X182303842Y-93174500D01*
X182146158Y-93174500D01*
X182146155Y-93174500D01*
X181991510Y-93205261D01*
X181991498Y-93205264D01*
X181845827Y-93265602D01*
X181845814Y-93265609D01*
X181714711Y-93353210D01*
X181714707Y-93353213D01*
X181603213Y-93464707D01*
X181603210Y-93464711D01*
X181515609Y-93595814D01*
X181515602Y-93595827D01*
X181455264Y-93741498D01*
X181455261Y-93741510D01*
X181424500Y-93896153D01*
X174750499Y-93896153D01*
X174733362Y-93810000D01*
X174719737Y-93741503D01*
X174719623Y-93741228D01*
X174659397Y-93595827D01*
X174659390Y-93595814D01*
X174571789Y-93464711D01*
X174571786Y-93464707D01*
X174460292Y-93353213D01*
X174460288Y-93353210D01*
X174329185Y-93265609D01*
X174329172Y-93265602D01*
X174183501Y-93205264D01*
X174183489Y-93205261D01*
X174028845Y-93174500D01*
X174028842Y-93174500D01*
X173871158Y-93174500D01*
X173871155Y-93174500D01*
X173716510Y-93205261D01*
X173716498Y-93205264D01*
X173570827Y-93265602D01*
X173570814Y-93265609D01*
X173439711Y-93353210D01*
X173439707Y-93353213D01*
X173328213Y-93464707D01*
X173328210Y-93464711D01*
X173240609Y-93595814D01*
X173240602Y-93595827D01*
X173180264Y-93741498D01*
X173180261Y-93741510D01*
X173149500Y-93896153D01*
X158912861Y-93896153D01*
X158929172Y-93889397D01*
X158929172Y-93889396D01*
X158929179Y-93889394D01*
X159060289Y-93801789D01*
X159171789Y-93690289D01*
X159259394Y-93559179D01*
X159319737Y-93413497D01*
X159350500Y-93258842D01*
X159350500Y-93101158D01*
X159350500Y-93101155D01*
X159350499Y-93101153D01*
X159346046Y-93078767D01*
X159319737Y-92946503D01*
X159303236Y-92906666D01*
X159259397Y-92800827D01*
X159259390Y-92800814D01*
X159171789Y-92669711D01*
X159171786Y-92669707D01*
X159060292Y-92558213D01*
X159060288Y-92558210D01*
X158929185Y-92470609D01*
X158929172Y-92470602D01*
X158783501Y-92410264D01*
X158783489Y-92410261D01*
X158628845Y-92379500D01*
X158628842Y-92379500D01*
X158471158Y-92379500D01*
X158471155Y-92379500D01*
X158316510Y-92410261D01*
X158316498Y-92410264D01*
X158170827Y-92470602D01*
X158170814Y-92470609D01*
X158039711Y-92558210D01*
X158039707Y-92558213D01*
X157928213Y-92669707D01*
X157928210Y-92669711D01*
X157840609Y-92800814D01*
X157840602Y-92800827D01*
X157780264Y-92946498D01*
X157780261Y-92946510D01*
X157749500Y-93101153D01*
X124641905Y-93101153D01*
X124651175Y-93078775D01*
X124651177Y-93078767D01*
X124652747Y-93070877D01*
X124652747Y-93070875D01*
X124652748Y-93070874D01*
X124680000Y-92933871D01*
X124680000Y-92786128D01*
X124679999Y-92786126D01*
X124651179Y-92641240D01*
X124651178Y-92641236D01*
X124607577Y-92535975D01*
X124283554Y-92859999D01*
X124080000Y-92859999D01*
X124080000Y-92830163D01*
X124057164Y-92775032D01*
X124014968Y-92732836D01*
X123959837Y-92710000D01*
X123900163Y-92710000D01*
X123845032Y-92732836D01*
X123802836Y-92775032D01*
X123780000Y-92830163D01*
X123546610Y-92830163D01*
X123252421Y-92535974D01*
X123252420Y-92535974D01*
X123208823Y-92641228D01*
X123208820Y-92641240D01*
X123180000Y-92786126D01*
X92825500Y-92786126D01*
X92825500Y-91481153D01*
X121289500Y-91481153D01*
X121289500Y-91638846D01*
X121320261Y-91793489D01*
X121320264Y-91793501D01*
X121380602Y-91939172D01*
X121380609Y-91939185D01*
X121468210Y-92070288D01*
X121468213Y-92070292D01*
X121579707Y-92181786D01*
X121579711Y-92181789D01*
X121710814Y-92269390D01*
X121710827Y-92269397D01*
X121856498Y-92329735D01*
X121856503Y-92329737D01*
X121998002Y-92357883D01*
X122011153Y-92360499D01*
X122011156Y-92360500D01*
X122011158Y-92360500D01*
X122168844Y-92360500D01*
X122168845Y-92360499D01*
X122323497Y-92329737D01*
X122469179Y-92269394D01*
X122599345Y-92182420D01*
X123605974Y-92182420D01*
X123605974Y-92182421D01*
X123930000Y-92506446D01*
X123930001Y-92506446D01*
X124254024Y-92182421D01*
X124148767Y-92138822D01*
X124148759Y-92138820D01*
X124003872Y-92110000D01*
X123856128Y-92110000D01*
X123711240Y-92138820D01*
X123711228Y-92138823D01*
X123605974Y-92182420D01*
X122599345Y-92182420D01*
X122600289Y-92181789D01*
X122600292Y-92181786D01*
X122646524Y-92135555D01*
X122711786Y-92070292D01*
X122711789Y-92070289D01*
X122799394Y-91939179D01*
X122859737Y-91793497D01*
X122890500Y-91638842D01*
X122890500Y-91481158D01*
X122890500Y-91481155D01*
X122890499Y-91481153D01*
X122885135Y-91454185D01*
X122859737Y-91326503D01*
X122859735Y-91326498D01*
X122799397Y-91180827D01*
X122799390Y-91180814D01*
X122717967Y-91058957D01*
X122717966Y-91058955D01*
X122711790Y-91049712D01*
X122711786Y-91049707D01*
X122658232Y-90996153D01*
X174499500Y-90996153D01*
X174499500Y-91153846D01*
X174530261Y-91308489D01*
X174530264Y-91308501D01*
X174590602Y-91454172D01*
X174590609Y-91454185D01*
X174678210Y-91585288D01*
X174678213Y-91585292D01*
X174789707Y-91696786D01*
X174789711Y-91696789D01*
X174920814Y-91784390D01*
X174920827Y-91784397D01*
X174994013Y-91814711D01*
X175066503Y-91844737D01*
X175221153Y-91875499D01*
X175221156Y-91875500D01*
X175221158Y-91875500D01*
X175378844Y-91875500D01*
X175378845Y-91875499D01*
X175533497Y-91844737D01*
X175679179Y-91784394D01*
X175810289Y-91696789D01*
X175921789Y-91585289D01*
X176009394Y-91454179D01*
X176069737Y-91308497D01*
X176100500Y-91153842D01*
X176100500Y-90996158D01*
X176100500Y-90996155D01*
X176100499Y-90996153D01*
X176095527Y-90971158D01*
X176069737Y-90841503D01*
X176060721Y-90819737D01*
X176009397Y-90695827D01*
X176009390Y-90695814D01*
X175926536Y-90571815D01*
X175905658Y-90505138D01*
X175924142Y-90437757D01*
X175960754Y-90399819D01*
X175965289Y-90396789D01*
X176076789Y-90285289D01*
X176164394Y-90154179D01*
X176224737Y-90008497D01*
X176255500Y-89853842D01*
X176255500Y-89696158D01*
X176255500Y-89696155D01*
X176255499Y-89696153D01*
X176224738Y-89541510D01*
X176224737Y-89541503D01*
X176223993Y-89539707D01*
X176164397Y-89395827D01*
X176164390Y-89395814D01*
X176076789Y-89264711D01*
X176076786Y-89264707D01*
X175965292Y-89153213D01*
X175965288Y-89153210D01*
X175834185Y-89065609D01*
X175834172Y-89065602D01*
X175688501Y-89005264D01*
X175688489Y-89005261D01*
X175533845Y-88974500D01*
X175533842Y-88974500D01*
X175376158Y-88974500D01*
X175376155Y-88974500D01*
X175221510Y-89005261D01*
X175221498Y-89005264D01*
X175075827Y-89065602D01*
X175075814Y-89065609D01*
X174944711Y-89153210D01*
X174944707Y-89153213D01*
X174833213Y-89264707D01*
X174833210Y-89264711D01*
X174745609Y-89395814D01*
X174745602Y-89395827D01*
X174685264Y-89541498D01*
X174685261Y-89541510D01*
X174654500Y-89696153D01*
X174654500Y-89853846D01*
X174685261Y-90008489D01*
X174685264Y-90008501D01*
X174745602Y-90154172D01*
X174745609Y-90154185D01*
X174828462Y-90278183D01*
X174849340Y-90344861D01*
X174830855Y-90412241D01*
X174794259Y-90450171D01*
X174789712Y-90453209D01*
X174789707Y-90453213D01*
X174678213Y-90564707D01*
X174678210Y-90564711D01*
X174590609Y-90695814D01*
X174590602Y-90695827D01*
X174530264Y-90841498D01*
X174530261Y-90841510D01*
X174499500Y-90996153D01*
X122658232Y-90996153D01*
X122600292Y-90938213D01*
X122600288Y-90938210D01*
X122469185Y-90850609D01*
X122469172Y-90850602D01*
X122323501Y-90790264D01*
X122323489Y-90790261D01*
X122168845Y-90759500D01*
X122168842Y-90759500D01*
X122011158Y-90759500D01*
X122011155Y-90759500D01*
X121856510Y-90790261D01*
X121856498Y-90790264D01*
X121710827Y-90850602D01*
X121710814Y-90850609D01*
X121579711Y-90938210D01*
X121579707Y-90938213D01*
X121468213Y-91049707D01*
X121468210Y-91049711D01*
X121380609Y-91180814D01*
X121380602Y-91180827D01*
X121320264Y-91326498D01*
X121320261Y-91326510D01*
X121289500Y-91481153D01*
X92825500Y-91481153D01*
X92825500Y-89971153D01*
X151599500Y-89971153D01*
X151599500Y-90128846D01*
X151630261Y-90283489D01*
X151630264Y-90283501D01*
X151690602Y-90429172D01*
X151690609Y-90429185D01*
X151778210Y-90560288D01*
X151778213Y-90560292D01*
X151889707Y-90671786D01*
X151889711Y-90671789D01*
X152020814Y-90759390D01*
X152020827Y-90759397D01*
X152095348Y-90790264D01*
X152166503Y-90819737D01*
X152275963Y-90841510D01*
X152321153Y-90850499D01*
X152321156Y-90850500D01*
X152321158Y-90850500D01*
X152478844Y-90850500D01*
X152478845Y-90850499D01*
X152633497Y-90819737D01*
X152704659Y-90790261D01*
X152777548Y-90760070D01*
X152847017Y-90752601D01*
X152872452Y-90760070D01*
X152945348Y-90790264D01*
X153016503Y-90819737D01*
X153125963Y-90841510D01*
X153171153Y-90850499D01*
X153171156Y-90850500D01*
X153171158Y-90850500D01*
X153328844Y-90850500D01*
X153328845Y-90850499D01*
X153483497Y-90819737D01*
X153629179Y-90759394D01*
X153760289Y-90671789D01*
X153871789Y-90560289D01*
X153959394Y-90429179D01*
X154019737Y-90283497D01*
X154050500Y-90128842D01*
X154050500Y-89971158D01*
X154050500Y-89971155D01*
X154050499Y-89971153D01*
X154027165Y-89853846D01*
X154019737Y-89816503D01*
X153987021Y-89737518D01*
X153969887Y-89696153D01*
X160049500Y-89696153D01*
X160049500Y-89853846D01*
X160080261Y-90008489D01*
X160080264Y-90008501D01*
X160140602Y-90154172D01*
X160140609Y-90154185D01*
X160228210Y-90285288D01*
X160228213Y-90285292D01*
X160339707Y-90396786D01*
X160339711Y-90396789D01*
X160470814Y-90484390D01*
X160470827Y-90484397D01*
X160539112Y-90512681D01*
X160616503Y-90544737D01*
X160771153Y-90575499D01*
X160771156Y-90575500D01*
X160771158Y-90575500D01*
X160928844Y-90575500D01*
X160928845Y-90575499D01*
X161083497Y-90544737D01*
X161229179Y-90484394D01*
X161360289Y-90396789D01*
X161471789Y-90285289D01*
X161559394Y-90154179D01*
X161619737Y-90008497D01*
X161650500Y-89853842D01*
X161650500Y-89696158D01*
X161650500Y-89696155D01*
X161650499Y-89696153D01*
X161619738Y-89541510D01*
X161619737Y-89541503D01*
X161618993Y-89539707D01*
X161559397Y-89395827D01*
X161559390Y-89395814D01*
X161471789Y-89264711D01*
X161471786Y-89264707D01*
X161360292Y-89153213D01*
X161360288Y-89153210D01*
X161229185Y-89065609D01*
X161229172Y-89065602D01*
X161083501Y-89005264D01*
X161083489Y-89005261D01*
X160928845Y-88974500D01*
X160928842Y-88974500D01*
X160771158Y-88974500D01*
X160771155Y-88974500D01*
X160616510Y-89005261D01*
X160616498Y-89005264D01*
X160470827Y-89065602D01*
X160470814Y-89065609D01*
X160339711Y-89153210D01*
X160339707Y-89153213D01*
X160228213Y-89264707D01*
X160228210Y-89264711D01*
X160140609Y-89395814D01*
X160140602Y-89395827D01*
X160080264Y-89541498D01*
X160080261Y-89541510D01*
X160049500Y-89696153D01*
X153969887Y-89696153D01*
X153959397Y-89670827D01*
X153959390Y-89670814D01*
X153871789Y-89539711D01*
X153871786Y-89539707D01*
X153760292Y-89428213D01*
X153760288Y-89428210D01*
X153629185Y-89340609D01*
X153629172Y-89340602D01*
X153483501Y-89280264D01*
X153483489Y-89280261D01*
X153328845Y-89249500D01*
X153328842Y-89249500D01*
X153171158Y-89249500D01*
X153171155Y-89249500D01*
X153016510Y-89280261D01*
X153016498Y-89280264D01*
X152872452Y-89339930D01*
X152802983Y-89347399D01*
X152777548Y-89339930D01*
X152633501Y-89280264D01*
X152633489Y-89280261D01*
X152478845Y-89249500D01*
X152478842Y-89249500D01*
X152321158Y-89249500D01*
X152321155Y-89249500D01*
X152166510Y-89280261D01*
X152166498Y-89280264D01*
X152020827Y-89340602D01*
X152020814Y-89340609D01*
X151889711Y-89428210D01*
X151889707Y-89428213D01*
X151778213Y-89539707D01*
X151778210Y-89539711D01*
X151690609Y-89670814D01*
X151690602Y-89670827D01*
X151630264Y-89816498D01*
X151630261Y-89816510D01*
X151599500Y-89971153D01*
X92825500Y-89971153D01*
X92825500Y-85733713D01*
X93809500Y-85733713D01*
X93809500Y-85946286D01*
X93842753Y-86156239D01*
X93908444Y-86358414D01*
X94004951Y-86547820D01*
X94129890Y-86719786D01*
X94280213Y-86870109D01*
X94452179Y-86995048D01*
X94452181Y-86995049D01*
X94452184Y-86995051D01*
X94641588Y-87091557D01*
X94843757Y-87157246D01*
X95053713Y-87190500D01*
X95053714Y-87190500D01*
X95266286Y-87190500D01*
X95266287Y-87190500D01*
X95476243Y-87157246D01*
X95678412Y-87091557D01*
X95867816Y-86995051D01*
X95954478Y-86932088D01*
X96039784Y-86870110D01*
X96039784Y-86870109D01*
X96039792Y-86870104D01*
X96153717Y-86756178D01*
X96215036Y-86722696D01*
X96284728Y-86727680D01*
X96340662Y-86769551D01*
X96357577Y-86800528D01*
X96406646Y-86932088D01*
X96406649Y-86932093D01*
X96492809Y-87047187D01*
X96492812Y-87047190D01*
X96607906Y-87133350D01*
X96607913Y-87133354D01*
X96742620Y-87183596D01*
X96742627Y-87183598D01*
X96802155Y-87189999D01*
X96802172Y-87190000D01*
X97450000Y-87190000D01*
X97450000Y-86273012D01*
X97507007Y-86305925D01*
X97634174Y-86340000D01*
X97765826Y-86340000D01*
X97892993Y-86305925D01*
X97950000Y-86273012D01*
X97950000Y-87190000D01*
X98597828Y-87190000D01*
X98597844Y-87189999D01*
X98657372Y-87183598D01*
X98657379Y-87183596D01*
X98792086Y-87133354D01*
X98792093Y-87133350D01*
X98907187Y-87047190D01*
X98907190Y-87047187D01*
X98993350Y-86932093D01*
X98993354Y-86932086D01*
X99043596Y-86797379D01*
X99043598Y-86797372D01*
X99049999Y-86737844D01*
X99050000Y-86737827D01*
X99050000Y-86090000D01*
X98133012Y-86090000D01*
X98165925Y-86032993D01*
X98200000Y-85905826D01*
X98200000Y-85774174D01*
X98165925Y-85647007D01*
X98133012Y-85590000D01*
X99050000Y-85590000D01*
X99050000Y-84942172D01*
X99049999Y-84942155D01*
X99043598Y-84882627D01*
X99043596Y-84882620D01*
X98993354Y-84747913D01*
X98993350Y-84747906D01*
X98907190Y-84632812D01*
X98907187Y-84632809D01*
X98792093Y-84546649D01*
X98792086Y-84546645D01*
X98657379Y-84496403D01*
X98657372Y-84496401D01*
X98597844Y-84490000D01*
X97950000Y-84490000D01*
X97950000Y-85406988D01*
X97892993Y-85374075D01*
X97765826Y-85340000D01*
X97634174Y-85340000D01*
X97507007Y-85374075D01*
X97450000Y-85406988D01*
X97450000Y-84490000D01*
X96802155Y-84490000D01*
X96742627Y-84496401D01*
X96742620Y-84496403D01*
X96607913Y-84546645D01*
X96607906Y-84546649D01*
X96492812Y-84632809D01*
X96492809Y-84632812D01*
X96406649Y-84747906D01*
X96406646Y-84747912D01*
X96357577Y-84879471D01*
X96315705Y-84935404D01*
X96250241Y-84959821D01*
X96181968Y-84944969D01*
X96153714Y-84923818D01*
X96039786Y-84809890D01*
X95867820Y-84684951D01*
X95678414Y-84588444D01*
X95678413Y-84588443D01*
X95678412Y-84588443D01*
X95476243Y-84522754D01*
X95476241Y-84522753D01*
X95476240Y-84522753D01*
X95314957Y-84497208D01*
X95266287Y-84489500D01*
X95053713Y-84489500D01*
X95005042Y-84497208D01*
X94843760Y-84522753D01*
X94641585Y-84588444D01*
X94452179Y-84684951D01*
X94280213Y-84809890D01*
X94129890Y-84960213D01*
X94004951Y-85132179D01*
X93908444Y-85321585D01*
X93842753Y-85523760D01*
X93809500Y-85733713D01*
X92825500Y-85733713D01*
X92825500Y-82933713D01*
X102229500Y-82933713D01*
X102229500Y-83146286D01*
X102258935Y-83332136D01*
X102262754Y-83356243D01*
X102325547Y-83549500D01*
X102328444Y-83558414D01*
X102424951Y-83747820D01*
X102549890Y-83919786D01*
X102700213Y-84070109D01*
X102872179Y-84195048D01*
X102872181Y-84195049D01*
X102872184Y-84195051D01*
X103061588Y-84291557D01*
X103263757Y-84357246D01*
X103473713Y-84390500D01*
X103473714Y-84390500D01*
X103686286Y-84390500D01*
X103686287Y-84390500D01*
X103896243Y-84357246D01*
X104098412Y-84291557D01*
X104287816Y-84195051D01*
X104360379Y-84142331D01*
X104459784Y-84070110D01*
X104459784Y-84070109D01*
X104459792Y-84070104D01*
X104573717Y-83956178D01*
X104635036Y-83922696D01*
X104704728Y-83927680D01*
X104760662Y-83969551D01*
X104777577Y-84000528D01*
X104826646Y-84132088D01*
X104826649Y-84132093D01*
X104912809Y-84247187D01*
X104912812Y-84247190D01*
X105027906Y-84333350D01*
X105027913Y-84333354D01*
X105162620Y-84383596D01*
X105162627Y-84383598D01*
X105222155Y-84389999D01*
X105222172Y-84390000D01*
X105870000Y-84390000D01*
X105870000Y-83473012D01*
X105927007Y-83505925D01*
X106054174Y-83540000D01*
X106185826Y-83540000D01*
X106312993Y-83505925D01*
X106370000Y-83473012D01*
X106370000Y-84390000D01*
X107017828Y-84390000D01*
X107017844Y-84389999D01*
X107077372Y-84383598D01*
X107077379Y-84383596D01*
X107212086Y-84333354D01*
X107212093Y-84333350D01*
X107327187Y-84247190D01*
X107327190Y-84247187D01*
X107413350Y-84132093D01*
X107413354Y-84132086D01*
X107463596Y-83997379D01*
X107463598Y-83997372D01*
X107469999Y-83937844D01*
X107470000Y-83937827D01*
X107470000Y-83290000D01*
X106553012Y-83290000D01*
X106585925Y-83232993D01*
X106620000Y-83105826D01*
X106620000Y-82974174D01*
X106585925Y-82847007D01*
X106553012Y-82790000D01*
X107470000Y-82790000D01*
X107470000Y-82142172D01*
X107469999Y-82142155D01*
X107463598Y-82082627D01*
X107463596Y-82082620D01*
X107413354Y-81947913D01*
X107413350Y-81947906D01*
X107327190Y-81832812D01*
X107327187Y-81832809D01*
X107212093Y-81746649D01*
X107212086Y-81746645D01*
X107077379Y-81696403D01*
X107077372Y-81696401D01*
X107017844Y-81690000D01*
X106370000Y-81690000D01*
X106370000Y-82606988D01*
X106312993Y-82574075D01*
X106185826Y-82540000D01*
X106054174Y-82540000D01*
X105927007Y-82574075D01*
X105870000Y-82606988D01*
X105870000Y-81690000D01*
X105222155Y-81690000D01*
X105162627Y-81696401D01*
X105162620Y-81696403D01*
X105027913Y-81746645D01*
X105027906Y-81746649D01*
X104912812Y-81832809D01*
X104912809Y-81832812D01*
X104826649Y-81947906D01*
X104826646Y-81947912D01*
X104777577Y-82079471D01*
X104735705Y-82135404D01*
X104670241Y-82159821D01*
X104601968Y-82144969D01*
X104573714Y-82123818D01*
X104459786Y-82009890D01*
X104287820Y-81884951D01*
X104098414Y-81788444D01*
X104098413Y-81788443D01*
X104098412Y-81788443D01*
X103896243Y-81722754D01*
X103896241Y-81722753D01*
X103896240Y-81722753D01*
X103734957Y-81697208D01*
X103686287Y-81689500D01*
X103473713Y-81689500D01*
X103425042Y-81697208D01*
X103263760Y-81722753D01*
X103061585Y-81788444D01*
X102872179Y-81884951D01*
X102700213Y-82009890D01*
X102549890Y-82160213D01*
X102424951Y-82332179D01*
X102328444Y-82521585D01*
X102262753Y-82723760D01*
X102229500Y-82933713D01*
X92825500Y-82933713D01*
X92825500Y-80110258D01*
X95574500Y-80110258D01*
X95574500Y-80339741D01*
X95595094Y-80496158D01*
X95604452Y-80567238D01*
X95634093Y-80677860D01*
X95663842Y-80788887D01*
X95751650Y-81000876D01*
X95751657Y-81000890D01*
X95803254Y-81090259D01*
X95865224Y-81197595D01*
X95866392Y-81199617D01*
X96006081Y-81381661D01*
X96006089Y-81381670D01*
X96168330Y-81543911D01*
X96168338Y-81543918D01*
X96350382Y-81683607D01*
X96350385Y-81683608D01*
X96350388Y-81683611D01*
X96549112Y-81798344D01*
X96549117Y-81798346D01*
X96549123Y-81798349D01*
X96632325Y-81832812D01*
X96761113Y-81886158D01*
X96982762Y-81945548D01*
X97210266Y-81975500D01*
X97210273Y-81975500D01*
X97439727Y-81975500D01*
X97439734Y-81975500D01*
X97667238Y-81945548D01*
X97888887Y-81886158D01*
X98100888Y-81798344D01*
X98299612Y-81683611D01*
X98481661Y-81543919D01*
X98481665Y-81543914D01*
X98481670Y-81543911D01*
X98643911Y-81381670D01*
X98643914Y-81381665D01*
X98643919Y-81381661D01*
X98783611Y-81199612D01*
X98898344Y-81000888D01*
X98986158Y-80788887D01*
X99045548Y-80567238D01*
X99075500Y-80339734D01*
X99075500Y-80110266D01*
X99045548Y-79882762D01*
X98986158Y-79661113D01*
X98898344Y-79449112D01*
X98783611Y-79250388D01*
X98783608Y-79250385D01*
X98783607Y-79250382D01*
X98643918Y-79068338D01*
X98643911Y-79068330D01*
X98481670Y-78906089D01*
X98481661Y-78906081D01*
X98299617Y-78766392D01*
X98256601Y-78741557D01*
X98182729Y-78698907D01*
X98100890Y-78651657D01*
X98100876Y-78651650D01*
X97888887Y-78563842D01*
X97817585Y-78544737D01*
X97667238Y-78504452D01*
X97629215Y-78499446D01*
X97439741Y-78474500D01*
X97439734Y-78474500D01*
X97210266Y-78474500D01*
X97210258Y-78474500D01*
X96993715Y-78503009D01*
X96982762Y-78504452D01*
X96924329Y-78520109D01*
X96761112Y-78563842D01*
X96549123Y-78651650D01*
X96549109Y-78651657D01*
X96350382Y-78766392D01*
X96168338Y-78906081D01*
X96006081Y-79068338D01*
X95866392Y-79250382D01*
X95751657Y-79449109D01*
X95751650Y-79449123D01*
X95663842Y-79661112D01*
X95604453Y-79882759D01*
X95604451Y-79882770D01*
X95574500Y-80110258D01*
X92825500Y-80110258D01*
X92825500Y-75849500D01*
X92845185Y-75782461D01*
X92897989Y-75736706D01*
X92949500Y-75725500D01*
X108525500Y-75725500D01*
X108592539Y-75745185D01*
G37*
%TD.AperFunction*%
%TD*%
M02*
