M48
; DRILL file {KiCad 9.0.6} date 2026-03-07T16:11:00-0500
; FORMAT={-:-/ absolute / metric / decimal}
; #@! TF.CreationDate,2026-03-07T16:11:00-05:00
; #@! TF.GenerationSoftware,Kicad,Pcbnew,9.0.6
; #@! TF.FileFunction,Plated,1,4,PTH
FMAT,2
METRIC
; #@! TA.AperFunction,Plated,PTH,ViaDrill
T1C0.300
; #@! TA.AperFunction,Plated,PTH,ComponentDrill
T2C0.300
; #@! TA.AperFunction,Plated,PTH,ComponentDrill
T3C0.600
; #@! TA.AperFunction,Plated,PTH,ComponentDrill
T4C1.000
; #@! TA.AperFunction,Plated,PTH,ComponentDrill
T5C1.020
%
G90
G05
T1
X109.47Y-126.775
X119.005Y-126.755
X121.9Y-93.41
X122.09Y-91.56
X122.11Y-95.51
X123.92Y-91.3
X123.93Y-95.51
X126.05Y-92.76
X126.1Y-94.07
X126.3Y-105.44
X131.75Y-105.39
X133.26Y-104.145
X134.98Y-101.63
X136.83Y-99.99
X137.45Y-105.1
X138.1Y-107.45
X138.17Y-101.63
X138.2Y-98.71
X138.715Y-97.585
X139.27Y-95.33
X139.46Y-106.11
X140.975Y-105.6
X142.05Y-81.8
X142.725Y-95.275
X143.125Y-87.375
X143.3Y-104.475
X144.1Y-103.05
X144.425Y-97.525
X144.9Y-95.15
X145.45Y-96.625
X145.81Y-102.93
X145.81Y-108.36
X146.25Y-86.925
X146.625Y-98.525
X146.975Y-89.4
X149.125Y-85.225
X149.47Y-102.525
X149.925Y-84.375
X152.05Y-93.975
X152.4Y-90.05
X153.25Y-90.05
X154.725Y-84.35
X154.975Y-95.1
X155.55Y-85.225
X156.35Y-95.1
X156.825Y-101.575
X158.55Y-93.18
X159.025Y-87.05
X160.15Y-76.375
X160.85Y-89.775
X161.55Y-80.575
X161.95Y-76.425
X162.89Y-105.43
X163.55Y-82.4
X164.05Y-96.4
X164.375Y-98.6
X166.6Y-95.15
X167.225Y-76.575
X167.225Y-77.775
X167.54Y-93.18
X167.77Y-96.36
X167.85Y-110.3
X168.025Y-80.55
X170.08Y-105.36
X170.1Y-115.22
X172.35Y-109.525
X173.55Y-96.325
X173.95Y-93.975
X174.35Y-105.975
X175.3Y-91.075
X175.455Y-89.775
X177.025Y-95.15
X177.025Y-96.325
X177.45Y-98.9
X177.45Y-99.75
X177.59Y-88.513
X177.6Y-87.25
X177.7Y-103.09
X180.675Y-108.4
X181.9Y-83.45
X181.9Y-84.725
X182.225Y-87.25
X182.225Y-88.52
X182.225Y-89.775
X182.225Y-91.075
X182.225Y-93.975
X182.475Y-106.25
X183.56Y-112.25
X184.35Y-128.125
X185.675Y-122.75
X186.1Y-112.26
X186.925Y-128.15
X188.35Y-104.07
X189.45Y-128.125
X190.75Y-122.75
X192.0Y-128.15
X200.562Y-103.612
X203.475Y-89.8
X203.475Y-91.05
X203.475Y-92.325
X203.5Y-93.6
X203.75Y-83.45
X210.625Y-88.875
T2
X123.93Y-92.86
X123.93Y-93.96
X140.475Y-99.45
X140.475Y-101.45
X142.475Y-99.45
X142.475Y-101.45
X189.9Y-90.46
X189.9Y-91.86
X190.6Y-89.76
X190.6Y-91.16
X190.6Y-92.56
X191.3Y-90.46
X191.3Y-91.86
X192.0Y-89.76
X192.0Y-91.16
X192.0Y-92.56
X192.7Y-90.46
X192.7Y-91.86
T4
X95.16Y-85.84
X95.3Y-124.41
X97.7Y-85.84
X97.84Y-124.41
X103.58Y-83.04
X103.625Y-132.635
X106.12Y-83.04
X106.165Y-132.635
X111.46Y-131.875
X114.0Y-131.875
X116.54Y-131.875
X133.15Y-83.05
X135.69Y-83.05
X141.31Y-77.49
X143.85Y-77.49
X160.275Y-105.835
X160.275Y-108.375
X160.325Y-112.36
X160.325Y-114.9
X184.355Y-132.725
X186.895Y-132.725
X189.435Y-132.725
X191.975Y-132.725
X194.515Y-132.725
X198.925Y-132.76
X201.465Y-132.76
X206.85Y-124.485
X209.39Y-124.485
X209.925Y-91.46
X209.925Y-94.0
X209.925Y-96.54
T5
X124.022Y-125.925
X179.522Y-125.925
T3
X148.005Y-78.225G85X148.005Y-77.425
G05
X148.005Y-82.555G85X148.005Y-81.455
G05
X156.645Y-78.225G85X156.645Y-77.425
G05
X156.645Y-82.555G85X156.645Y-81.455
G05
M30
